<svg width="84" height="84" viewBox="0 0 84 84" xmlns="http://www.w3.org/2000/svg">
    <g fill="none" fill-rule="evenodd">
        <rect fill="#F1F1F1" width="84" height="84" rx="3"/>
        <path d="M25 25h34v34H25z"/>
        <g transform="translate(32 31)">
            <path d="m8.47 11.645 2.326 2.363 1.852-1.361a4 4 0 0 1 5.22.417l2.079 2.112V17a4 4 0 0 1-4 4H4a4 4 0 0 1-4-4v-3.384l3.25-2.388a4 4 0 0 1 5.22.417z" fill="#B8B8B8"/>
            <path stroke="#B8B8B8" stroke-width="2" d="M1 1h18v19H1z"/>
            <ellipse fill="#B8B8B8" cx="14.286" cy="6.517" rx="2.143" ry="2.172"/>
            <path fill="#B8B8B8" d="m1.296 11.59 4.616-3.273 5.08 4.36 3.92-2.177 3.392 2.177v6.83H1.296z"/>
        </g>
        <g transform="translate(45 46)">
            <circle stroke="#F1F1F1" fill="#F1F1F1" cx="5.5" cy="5.5" r="5.5"/>
            <circle stroke="#B8B8B8" stroke-width="1.8" cx="5.5" cy="5.5" r="3.814"/>
            <path stroke="#B8B8B8" stroke-width="1.8" stroke-linecap="square" d="m3.143 3.143 4.321 4.321"/>
        </g>
    </g>
</svg>
