<svg width="325" height="330" viewBox="0 0 325 330" fill="none" xmlns="http://www.w3.org/2000/svg">
<path d="M4.07617 0.719482H312.632L217.023 292.783H104.289L4.07617 0.719482Z" fill="url(#paint0_linear_5072_41002)"/>
<g filter="url(#filter0_f_5072_41002)">
<path d="M100.752 204.919C100.022 196.403 106.334 188.907 114.85 188.177L155.242 184.713C163.759 183.982 171.254 190.294 171.985 198.81L172.885 209.305C173.615 217.821 167.303 225.317 158.787 226.047L102.974 230.834L100.752 204.919Z" fill="#FFE481"/>
</g>
<g filter="url(#filter1_f_5072_41002)">
<path d="M266.271 72.721C267.002 64.2046 260.69 56.7087 252.174 55.9784L183.284 50.0705C174.768 49.3402 167.272 55.652 166.541 64.1683L165.641 74.6625C164.911 83.1788 171.223 90.6747 179.739 91.4051L264.049 98.6354L266.271 72.721Z" fill="#FFF1BE"/>
</g>
<g filter="url(#filter2_d_5072_41002)">
<path d="M53.779 78.1909C53.6961 71.564 59.0011 66.1247 65.628 66.0418L175.478 64.6679C182.105 64.585 187.544 69.89 187.627 76.5169L188.11 115.181C188.193 121.808 182.888 127.248 176.261 127.331L66.4117 128.704C59.7848 128.787 54.3455 123.482 54.2626 116.855L53.779 78.1909Z" fill="white" shape-rendering="crispEdges"/>
<path d="M77.9292 80.8685L78.0659 91.7982L76.7722 91.8143L76.7031 86.2891L75.4941 86.3042L75.5563 91.2733L74.2989 91.289L74.1717 81.1211L75.4291 81.1053L75.4803 85.204L76.6894 85.1888L76.6355 80.8847L77.9292 80.8685ZM69.1213 89.1893L69.0344 82.2373L70.3885 82.2204L70.4606 87.9875C71.4034 87.9576 72.43 87.8601 73.5758 87.622L73.7235 88.7931C72.2517 89.0715 71.0014 89.1658 69.8467 89.1802L69.1213 89.1893ZM87.807 80.745L87.8604 85.0128L89.4805 84.9926L89.4946 86.117L87.8744 86.1372L87.9434 91.6504L86.6014 91.6672L86.465 80.7617L87.807 80.745ZM79.2856 88.7719C81.9289 87.4087 83.3445 85.5409 83.5793 83.047L79.8072 83.0942L79.7932 81.9819L84.9316 81.9176C84.9657 85.1276 83.6711 87.9674 80.0603 89.8022L79.2856 88.7719ZM102.258 87.5898L102.307 91.495L100.965 91.5117L100.929 88.6705L94.5699 88.7501L94.5566 87.6861L102.258 87.5898ZM92.7812 85.9187C94.012 85.2322 94.4364 83.8725 94.4218 82.7058L94.4194 82.5124L93.1499 82.5282L93.1363 81.4401L96.3523 81.3999L96.3659 82.488L95.6647 82.4968L95.6671 82.6902C95.6778 83.5486 95.8973 84.6584 96.651 85.4591C97.3544 84.6583 97.5341 83.5557 97.529 82.6669L97.5266 82.4735L96.8374 82.4821L96.8238 81.394L99.9673 81.3547L99.9809 82.4428L98.8082 82.4575L98.8106 82.6509C98.8193 83.8298 99.2655 85.1846 100.519 85.8219L99.8297 86.7858C99.0081 86.3608 98.4974 85.6477 98.2028 84.817C97.9475 85.6727 97.4797 86.4585 96.6634 86.9342C95.8475 86.4789 95.3603 85.7171 95.0779 84.8863C94.804 85.712 94.3112 86.4316 93.5064 86.8649L92.7812 85.9187ZM100.91 87.0988L100.828 80.5821L102.17 80.5653L102.252 87.082L100.91 87.0988ZM113.618 86.0692L113.631 87.1452L103.669 87.2698L103.656 86.1938L113.618 86.0692ZM104.645 83.0979C104.627 81.7136 106.17 80.8599 108.558 80.8361C110.94 80.8002 112.504 81.615 112.528 82.9993C112.539 84.3898 110.996 85.2555 108.614 85.2853C106.226 85.3152 104.662 84.4883 104.645 83.0979ZM104.952 91.2442L104.912 88.0645L106.254 88.0477L106.28 90.1393L112.543 90.061L112.557 91.1491L104.952 91.2442ZM106.047 83.0804C106.044 83.8241 107.01 84.211 108.6 84.1851C110.196 84.1712 111.146 83.7603 111.137 83.0167C111.128 82.2973 110.168 81.8922 108.572 81.9121C106.982 81.932 106.026 82.3611 106.047 83.0804ZM121.161 82.9518C121.173 84.9045 122.177 86.863 123.88 87.6579L123.071 88.7443C121.879 88.1606 121.012 87.0166 120.529 85.6321C120.07 87.1252 119.191 88.3696 117.948 89.0139L117.112 87.9482C118.861 87.0919 119.838 84.9877 119.819 82.9686L119.797 81.2276L121.139 81.2108L121.161 82.9518ZM124.577 91.2164L124.441 80.2868L125.783 80.27L125.836 84.5499L127.517 84.5289L127.531 85.6775L125.851 85.6985L125.919 91.1996L124.577 91.2164ZM132.098 82.416C132.115 83.7761 133.062 85.0944 134.81 85.6107L134.134 86.6711C132.89 86.2877 131.979 85.4768 131.464 84.4433C130.988 85.5799 130.069 86.4922 128.781 86.9558L128.078 85.9004C129.83 85.2981 130.749 83.8718 130.743 82.4329L130.739 82.1185L128.382 82.148L128.368 81.072L134.377 80.9968L134.391 82.0729L132.094 82.1016L132.098 82.416ZM129.931 90.9318L129.887 87.4377L131.241 87.4208L131.271 89.8267L137.449 89.7495L137.463 90.8376L129.931 90.9318ZM135.772 88.0896L135.673 80.1584L137.027 80.1414L137.126 88.0727L135.772 88.0896ZM143.594 80.2165C146.085 80.1914 147.538 80.8322 147.559 82.0412C147.568 83.2624 146.131 83.9394 143.641 83.9766C141.156 84.0016 139.691 83.3609 139.676 82.1398C139.661 80.9308 141.109 80.2536 143.594 80.2165ZM138.693 85.6951L138.679 84.6191L148.641 84.4945L148.655 85.5705L138.693 85.6951ZM139.887 87.4094L139.874 86.418L147.419 86.3236L147.452 88.9956L141.238 89.0733L141.248 89.8833L147.765 89.8018L147.778 90.8295L139.943 90.9275L139.908 88.1346L146.122 88.0569L146.113 87.3315L139.887 87.4094ZM141.09 82.1221C141.092 82.7267 141.966 82.9939 143.628 82.9731C145.315 82.952 146.176 82.6631 146.168 82.0586C146.161 81.4964 145.293 81.1868 143.606 81.2079C141.944 81.2287 141.077 81.56 141.09 82.1221ZM160.82 79.8317L160.872 83.9787L162.553 83.9577L162.567 85.0579L160.886 85.0789L160.957 90.7735L159.615 90.7903L159.478 79.8485L160.82 79.8317ZM152.811 88.203L152.721 80.973L157.835 80.909L157.849 81.9971L154.077 82.0443L154.139 87.0618C155.838 87.0345 157.185 86.933 158.681 86.6543L158.852 87.7889C157.157 88.1003 155.689 88.167 153.718 88.1917L152.811 88.203ZM172.99 84.0569L173.003 85.1209L163.029 85.2456L163.015 84.1817L172.99 84.0569ZM164.223 86.9961L164.211 85.9806L171.755 85.8862L171.789 88.6307L165.575 88.7084L165.585 89.5427L172.102 89.4612L172.115 90.513L164.281 90.611L164.245 87.7577L170.459 87.68L170.45 86.9183L164.223 86.9961ZM164.276 83.4646L164.233 80.0672L171.657 79.9743L171.67 81.0504L165.589 81.1264L165.605 82.3838L171.783 82.3065L171.796 83.3705L164.276 83.4646ZM98.4959 104.866L98.5097 105.966L102.85 105.912L102.864 107L92.8771 107.125L92.8635 106.037L97.1797 105.983L97.166 104.882L98.4959 104.866ZM93.3167 104.568C95.2859 104.422 96.5834 103.741 96.8457 102.964L93.7445 103.002L93.7317 101.975L101.893 101.873L101.906 102.9L98.7741 102.94C99.0438 103.716 100.346 104.359 102.348 104.455L101.938 105.464C99.9105 105.332 98.4088 104.667 97.8275 103.635C97.2662 104.676 95.7816 105.383 93.7645 105.566L93.3167 104.568ZM93.8239 109.35L93.8112 108.334L97.1965 108.292L97.1855 107.409L98.5396 107.392L98.5506 108.275L101.936 108.233L101.949 109.248L93.8239 109.35ZM94.5723 111.179C94.5546 110.242 95.7513 109.725 97.8792 109.698C99.995 109.672 101.234 110.158 101.246 111.095C101.258 112.05 100.031 112.567 97.9153 112.588C95.7875 112.62 94.5782 112.134 94.5723 111.179ZM95.9506 111.161C95.9492 111.53 96.6407 111.709 97.9041 111.693C99.1918 111.677 99.8483 111.481 99.8558 111.112C99.839 110.738 99.1782 110.589 97.8905 110.605C96.6271 110.621 95.9399 110.787 95.9506 111.161ZM106.469 102.311C108.113 102.291 109.317 103.775 109.358 106.133C109.376 108.508 108.21 110.016 106.566 110.037C104.903 110.058 103.7 108.579 103.676 106.204C103.64 103.846 104.807 102.332 106.469 102.311ZM104.97 106.187C104.985 107.868 105.632 108.833 106.551 108.828C107.475 108.81 108.08 107.829 108.065 106.149C108.038 104.48 107.409 103.509 106.484 103.52C105.565 103.532 104.943 104.519 104.97 106.187ZM110.876 112.389L110.739 101.46L112.081 101.443L112.134 105.638L113.814 105.617L113.828 106.754L112.148 106.775L112.218 112.373L110.876 112.389ZM119.575 103.091L119.588 104.167L114.232 104.234L114.219 103.158L116.25 103.132L116.232 101.705L117.562 101.689L117.58 103.115L119.575 103.091ZM114.585 107.349C114.555 105.862 115.551 104.791 116.935 104.78C118.326 104.757 119.33 105.802 119.349 107.289C119.368 108.807 118.39 109.877 116.999 109.894C115.615 109.912 114.592 108.866 114.585 107.349ZM115.77 107.334C115.775 108.217 116.278 108.761 116.985 108.746C117.686 108.743 118.175 108.187 118.164 107.304C118.153 106.446 117.651 105.884 116.949 105.892C116.242 105.901 115.754 106.476 115.77 107.334ZM120.143 111.778L120.015 101.574L121.273 101.558L121.326 105.826L122.39 105.812L122.334 101.315L123.615 101.299L123.752 112.228L122.47 112.244L122.403 106.9L121.34 106.914L121.4 111.762L120.143 111.778ZM134.96 107.251L134.973 108.339L130.633 108.394L130.68 112.13L129.35 112.146L129.303 108.41L125.011 108.464L124.997 107.376L134.96 107.251ZM125.495 105.58C127.637 105.281 129.062 104.109 129.143 102.91L125.861 102.951L125.848 101.888L133.972 101.786L133.986 102.85L130.703 102.891C130.809 104.087 132.25 105.223 134.417 105.468L133.947 106.526C132.082 106.284 130.62 105.449 129.94 104.279C129.284 105.466 127.856 106.337 126.016 106.626L125.495 105.58ZM137.436 102.214L137.511 108.223C138.581 108.198 139.559 108.113 140.675 107.857L140.882 108.991C139.502 109.311 138.305 109.374 136.921 109.391L136.184 109.401L136.094 102.231L137.436 102.214ZM139.209 105.723L139.195 104.635L141.481 104.606L141.439 101.306L142.709 101.29L142.836 111.47L141.567 111.486L141.494 105.694L139.209 105.723ZM143.906 111.976L143.77 101.047L145.051 101.031L145.188 111.96L143.906 111.976ZM148.583 102.087L148.528 108.267L147.161 108.284L146.939 102.107L148.583 102.087ZM146.929 110.016C146.917 109.508 147.341 109.086 147.861 109.073C148.362 109.073 148.797 109.485 148.803 109.992C148.81 110.512 148.386 110.941 147.884 110.947C147.364 110.954 146.93 110.536 146.929 110.016Z" fill="#56575F"/>
</g>
<g filter="url(#filter3_d_5072_41002)">
<path d="M132.324 152.771C132.686 146.153 138.345 141.083 144.962 141.446L263.643 147.952C270.26 148.315 275.33 153.973 274.968 160.591L272.851 199.201C272.488 205.818 266.83 210.888 260.212 210.526L141.532 204.019C134.915 203.657 129.844 197.998 130.207 191.38L132.324 152.771Z" fill="white" shape-rendering="crispEdges"/>
<path d="M182.499 158.506L182.272 162.647L183.95 162.739L183.89 163.837L182.211 163.745L181.9 169.432L180.56 169.358L181.159 158.432L182.499 158.506ZM173.945 166.319L174.341 159.1L179.448 159.38L179.388 160.466L175.621 160.26L175.347 165.27C177.043 165.357 178.394 165.346 179.905 165.169L180 166.312C178.288 166.509 176.818 166.477 174.85 166.369L173.945 166.319ZM194.356 163.539L194.298 164.602L184.338 164.056L184.396 162.993L194.356 163.539ZM185.412 165.882L185.468 164.868L193.001 165.281L192.851 168.022L186.646 167.682L186.6 168.515L193.107 168.872L193.05 169.922L185.226 169.493L185.383 166.644L191.588 166.984L191.63 166.223L185.412 165.882ZM185.702 162.362L185.888 158.97L193.301 159.376L193.242 160.451L187.169 160.118L187.1 161.373L193.27 161.712L193.212 162.774L185.702 162.362ZM207.761 168.403L207.701 169.502L197.729 168.955L197.789 167.857L202.087 168.092L202.217 165.714L199.018 165.539L199.306 160.275L207.033 160.698L206.745 165.962L203.545 165.787L203.415 168.165L207.761 168.403ZM200.391 164.56L205.474 164.839L205.646 161.7L200.563 161.421L200.391 164.56ZM211.877 160.915C212.861 160.969 213.646 161.563 214.082 162.55L216.636 162.69L216.762 160.384L218.09 160.457L217.491 171.383L216.163 171.31L216.39 167.181L213.933 167.046C213.396 168.107 212.505 168.688 211.454 168.63C209.812 168.54 208.729 166.985 208.865 164.613C208.988 162.259 210.235 160.825 211.877 160.915ZM210.157 164.684C210.059 166.362 210.621 167.367 211.52 167.423C212.426 167.466 213.089 166.528 213.187 164.85C213.273 163.184 212.717 162.172 211.811 162.123C210.912 162.073 210.242 163.018 210.157 164.684ZM214.402 163.669C214.46 164.054 214.479 164.473 214.455 164.92C214.434 165.294 214.385 165.648 214.306 165.977L216.449 166.095L216.576 163.789L214.402 163.669ZM221.459 161.525L221.379 162.986L224.216 163.142L224.296 161.681L225.636 161.754L225.363 166.741L223.286 166.627L223.19 168.377C224.092 168.384 224.989 168.361 225.835 168.292L225.877 169.288C223.568 169.555 221.073 169.436 219.201 169.345L219.069 168.224C219.896 168.263 220.85 168.316 221.848 168.346L221.946 166.553L219.857 166.439L220.131 161.453L221.459 161.525ZM221.244 165.437L224.081 165.593L224.16 164.168L221.322 164.012L221.244 165.437ZM226.269 171.852L226.867 160.938L228.208 161.011L227.965 165.442L229.546 165.529L229.485 166.652L227.903 166.565L227.609 171.926L226.269 171.852ZM231.941 170.225L230.741 173.55L229.594 173.487L230.407 170.141L231.941 170.225ZM149.296 180.345C149.177 182.294 150.047 184.315 151.693 185.223L150.813 186.252C149.663 185.59 148.875 184.39 148.486 182.976C147.928 184.435 146.967 185.618 145.683 186.177L144.921 185.057C146.723 184.321 147.839 182.287 147.956 180.271L148.051 178.533L149.391 178.606L149.296 180.345ZM152.149 188.82L152.748 177.906L154.088 177.979L153.854 182.253L155.532 182.345L155.469 183.492L153.791 183.4L153.49 188.894L152.149 188.82ZM160.244 180.545C160.17 181.903 161.027 183.282 162.736 183.915L161.99 184.928C160.774 184.461 159.92 183.591 159.476 182.525C158.925 183.627 157.946 184.476 156.63 184.852L156 183.752C157.788 183.268 158.801 181.907 158.892 180.471L158.909 180.157L156.555 180.028L156.614 178.954L162.614 179.282L162.555 180.357L160.261 180.231L160.244 180.545ZM157.51 188.896L157.701 185.407L159.053 185.481L158.922 187.884L165.091 188.222L165.031 189.308L157.51 188.896ZM163.529 186.453L163.963 178.533L165.315 178.607L164.881 186.527L163.529 186.453ZM171.583 180.028L171.254 186.029C172.323 186.075 173.305 186.056 174.435 185.876L174.566 187.022C173.167 187.248 171.969 187.231 170.587 187.155L169.85 187.114L170.243 179.955L171.583 180.028ZM173.116 183.648L173.175 182.562L175.457 182.687L175.638 179.391L176.906 179.461L176.348 189.626L175.081 189.557L175.398 183.774L173.116 183.648ZM177.382 190.203L177.981 179.289L179.26 179.36L178.662 190.274L177.382 190.203ZM187.266 181.772C187.193 183.106 187.987 184.409 189.667 185.028L188.969 186.043C187.765 185.59 186.938 184.763 186.515 183.753C185.97 184.874 185.002 185.735 183.662 186.104L183.044 185.004C184.832 184.527 185.833 183.159 185.913 181.71L185.92 181.577L183.614 181.451L183.674 180.364L189.602 180.689L189.542 181.776L187.272 181.651L187.266 181.772ZM184.343 188.478C184.414 187.174 185.869 186.491 188.151 186.616C190.414 186.74 191.761 187.577 191.696 188.881C191.617 190.197 190.187 190.893 187.923 190.769C185.641 190.644 184.271 189.794 184.343 188.478ZM185.683 188.552C185.646 189.228 186.484 189.631 187.98 189.719C189.472 189.795 190.33 189.484 190.368 188.808C190.404 188.144 189.584 187.748 188.093 187.666C186.596 187.584 185.72 187.887 185.683 188.552ZM190.373 186.496L190.73 179.988L192.07 180.062L191.926 182.682L193.448 182.765L193.387 183.864L191.866 183.78L191.713 186.569L190.373 186.496ZM206.231 180.85L205.882 187.213L204.53 187.139L204.555 186.692L202.514 186.58L202.561 185.735L204.601 185.847L204.879 180.776L206.231 180.85ZM196.852 184.284C198.959 184.399 201.598 184.526 203.953 184.419L203.979 185.268C202.976 185.346 201.944 185.38 200.934 185.373L200.849 186.925L199.521 186.852L199.603 185.355C198.666 185.328 197.766 185.284 196.945 185.233L196.852 184.284ZM197.867 183.661L198.028 180.727L203.255 181.014L203.095 183.948L197.867 183.661ZM198.244 188.053L198.294 187.136L205.864 187.551L205.729 190.002L199.524 189.661L199.486 190.362L205.981 190.718L205.929 191.672L198.117 191.243L198.255 188.732L204.448 189.072L204.486 188.396L198.244 188.053ZM199.259 182.793L201.818 182.933L201.876 181.883L199.316 181.743L199.259 182.793ZM217.27 190.005L217.209 191.115L207.236 190.569L207.297 189.458L211.595 189.694L211.693 187.919L208.578 187.748L208.774 184.174L215.052 184.519L215.126 183.166L208.824 182.821L208.883 181.734L216.513 182.153L216.321 185.654L210.055 185.31L209.978 186.723L216.498 187.08L216.437 188.179L213.021 187.992L212.923 189.766L217.27 190.005ZM230.523 182.17L230.168 188.653L228.827 188.58L228.974 185.912L227.114 185.81L227.175 184.711L229.034 184.813L229.183 182.096L230.523 182.17ZM221.052 187.064C222.841 186.556 223.845 185.14 223.924 183.697L223.929 183.613L221.659 183.488L221.719 182.402L227.611 182.725L227.551 183.811L225.293 183.687L225.289 183.76C225.217 185.088 226.024 186.476 227.684 187.136L226.949 188.162C225.758 187.685 224.947 186.805 224.52 185.752C223.98 186.885 223.017 187.777 221.694 188.164L221.052 187.064ZM222.638 190.602C222.697 189.291 224.158 188.602 226.458 188.728C228.77 188.855 230.141 189.699 230.075 191.009C229.997 192.319 228.543 193.002 226.23 192.881C223.931 192.749 222.554 191.911 222.638 190.602ZM223.966 190.674C223.923 191.35 224.772 191.766 226.287 191.843C227.814 191.933 228.698 191.612 228.735 190.936C228.772 190.254 227.929 189.838 226.402 189.755C224.887 189.671 223.997 189.992 223.966 190.674ZM240.678 182.702L240.543 185.165L242.076 185.249L242.017 186.336L240.483 186.252L240.352 188.654L239.011 188.581L239.338 182.629L240.678 182.702ZM231.976 184.163L232.032 183.137L234.604 183.278L234.657 182.312L235.997 182.385L235.944 183.351L238.503 183.491L238.447 184.518L231.976 184.163ZM232.415 186.318C232.474 185.232 233.581 184.596 235.193 184.678C236.81 184.773 237.817 185.524 237.763 186.611C237.696 187.728 236.615 188.341 234.997 188.252C233.385 188.164 232.354 187.435 232.415 186.318ZM233.136 189.724L233.19 188.746L240.325 189.137L240.181 191.769L234.386 191.452L234.343 192.224L240.476 192.56L240.422 193.563L232.96 193.154L233.109 190.449L238.892 190.766L238.931 190.042L233.136 189.724ZM233.719 186.39C233.683 186.927 234.205 187.234 235.05 187.286C235.895 187.326 236.454 187.078 236.483 186.541C236.512 186.022 235.985 185.684 235.14 185.644C234.295 185.592 233.741 185.87 233.719 186.39ZM247.135 184.195L246.912 188.263L244.087 188.108L243.97 190.233C245.076 190.282 246.135 190.297 247.365 190.165L247.402 191.257C245.915 191.424 244.718 191.394 243.366 191.326L242.617 191.285L242.855 186.951L245.68 187.106L245.784 185.21L242.947 185.055L243.006 183.968L247.135 184.195ZM247.835 193.509L248.392 183.355L249.624 183.423L249.405 187.407L250.637 187.475L250.866 183.285L252.146 183.355L251.548 194.269L250.268 194.199L250.577 188.561L249.346 188.494L249.067 193.576L247.835 193.509ZM254.893 190.687C254.989 189.148 255.449 188.701 256.236 188.278C256.767 187.974 257.187 187.591 257.215 186.987C257.258 186.312 256.75 185.848 256.092 185.812C255.495 185.779 254.894 186.134 254.807 186.94L253.298 186.858C253.429 185.236 254.682 184.475 256.173 184.557C257.803 184.646 258.87 185.613 258.797 187.05C258.737 188.034 258.213 188.647 257.403 189.069C256.679 189.459 256.367 189.859 256.305 190.764L256.299 190.873L254.887 190.795L254.893 190.687ZM254.599 192.511C254.621 192.004 255.072 191.611 255.591 191.633C256.092 191.667 256.498 192.107 256.47 192.614C256.442 193.133 255.99 193.532 255.489 193.505C254.97 193.476 254.564 193.03 254.599 192.511Z" fill="#56575F"/>
</g>
<g filter="url(#filter4_d_5072_41002)">
<path d="M29.5068 49.3926C30.8913 40.8915 38.9052 35.1224 47.4062 36.5069L80.5418 41.9036C89.0429 43.2881 94.812 51.302 93.4275 59.8031C92.0429 68.3041 84.0291 74.0732 75.528 72.6887L42.3924 67.292C33.8913 65.9075 28.1222 57.8936 29.5068 49.3926Z" fill="#FFCD14"/>
<path d="M46.0101 53.3357L44.1484 53.0325L43.4209 55.2049L42.2394 55.0124L42.9669 52.84L41.7556 52.6428L42.137 51.5043L43.3543 51.7026L43.952 49.9133L42.7466 49.717L43.128 48.5786L44.3393 48.7759L45.0668 46.6035L46.2483 46.7959L45.5208 48.9683L47.3825 49.2715L48.11 47.0991L49.2795 47.2896L48.5521 49.462L49.7753 49.6612L49.3819 50.7977L48.1647 50.5994L47.567 52.3887L48.7843 52.5869L48.4028 53.7254L47.1796 53.5262L46.4522 55.6985L45.2826 55.5081L46.0101 53.3357ZM46.3975 52.1982L46.9951 50.409L45.1334 50.1058L44.5358 51.895L46.3975 52.1982ZM52.5361 48.506L53.7653 48.7062L53.9752 47.4173L55.2521 47.6253L54.4844 52.3392L50.6894 51.7212L51.4571 47.0072L52.746 47.2171L52.5361 48.506ZM53.3804 51.0691L53.5942 49.7564L52.365 49.5562L52.1512 50.8689L53.3804 51.0691ZM57.0233 49.2368L58.2644 49.439L58.4743 48.1501L59.7632 48.36L58.9954 53.0739L55.1766 52.452L55.9443 47.738L57.2332 47.9479L57.0233 49.2368ZM57.8796 51.8019L58.0934 50.4892L56.8522 50.287L56.6384 51.5998L57.8796 51.8019ZM59.431 55.2887L55.1348 54.589L54.5614 58.1096L53.2486 57.8958L53.822 54.3752L49.5735 53.6833L49.7504 52.5973L59.6079 54.2027L59.431 55.2887ZM70.1753 55.8871L60.3298 54.2835L60.5027 53.2214L70.3483 54.8249L70.1753 55.8871ZM69.4359 53.733L61.8577 52.4988L62.4758 48.7038L69.9346 49.9186L69.7597 50.9926L63.6256 49.9936L63.3574 51.6405L69.6108 52.659L69.4359 53.733ZM65.7733 56.1379C65.7065 56.5476 65.7849 56.9565 66.0084 57.3645C66.2359 57.7732 66.5951 58.1502 67.086 58.4956C67.5816 58.8376 68.1876 59.116 68.904 59.3307L68.2495 60.2654C67.3984 60.0002 66.6788 59.642 66.0907 59.191C65.502 58.7439 65.085 58.233 64.8397 57.6581C64.4246 58.1254 63.867 58.4777 63.1669 58.7148C62.4661 58.9559 61.67 59.0672 60.7788 59.0486L60.4666 57.9565C61.2101 57.9796 61.8691 57.9073 62.4437 57.7395C63.0188 57.5677 63.4748 57.3255 63.8116 57.0128C64.153 56.6968 64.3574 56.332 64.4247 55.9183L64.4655 55.6677L65.8141 55.8873L65.7733 56.1379ZM79.9562 53.9764L81.4599 54.2213L81.2792 55.3311L79.7755 55.0862L79.342 57.7475L78.0174 57.5318L79.0767 51.0277L80.4013 51.2435L79.9562 53.9764ZM78.6657 61.9006L71.6962 60.7655L72.289 57.1256L79.2585 58.2607L78.6657 61.9006ZM73.1839 59.9052L77.5278 60.6127L77.7747 59.0971L73.4307 58.3896L73.1839 59.9052ZM77.9589 53.0018L71.5622 51.96L71.7352 50.8979L74.2771 51.3118L74.4579 50.202L75.7826 50.4177L75.6018 51.5276L78.1318 51.9396L77.9589 53.0018ZM74.6964 52.8747C75.2096 52.9583 75.6518 53.114 76.023 53.3419C76.3942 53.5698 76.6673 53.8491 76.8421 54.1797C77.0176 54.5064 77.0765 54.859 77.0189 55.2376C76.9528 55.6188 76.7843 55.9385 76.5136 56.1966C76.2475 56.4513 75.9023 56.6279 75.4779 56.7262C75.0542 56.8205 74.5838 56.8256 74.0667 56.7413C73.5455 56.6565 73.097 56.5017 72.7212 56.2772C72.3499 56.0493 72.0766 55.772 71.9011 55.4453C71.7263 55.1147 71.67 54.7584 71.7322 54.3765C71.7937 53.9986 71.9595 53.6826 72.2296 53.4285C72.5003 53.1704 72.8498 52.9925 73.2782 52.8949C73.7065 52.7972 74.1793 52.7905 74.6964 52.8747ZM74.5331 53.8772C74.1194 53.8098 73.7756 53.8395 73.5018 53.9665C73.2286 54.0894 73.0683 54.296 73.021 54.5864C72.9731 54.8808 73.0569 55.1313 73.2723 55.3379C73.4917 55.5451 73.8103 55.6828 74.228 55.7508C74.6457 55.8188 74.9914 55.7894 75.2653 55.6625C75.5431 55.5362 75.706 55.3259 75.7539 55.0315C75.8012 54.7411 75.7129 54.494 75.4888 54.2901C75.2694 54.0828 74.9508 53.9452 74.5331 53.8772Z" fill="white"/>
</g>
<g filter="url(#filter5_d_5072_41002)">
<path d="M229.751 141.965C229.239 133.367 235.794 125.982 244.392 125.47L288.885 122.822C297.483 122.31 304.868 128.865 305.38 137.463C305.892 146.061 299.337 153.446 290.739 153.958L246.245 156.606C237.647 157.118 230.263 150.563 229.751 141.965Z" fill="#FFCD14"/>
<path d="M246.866 142.187L244.983 142.299L244.749 144.578L243.555 144.649L243.788 142.37L242.563 142.443L242.686 141.249L243.917 141.176L244.108 139.299L242.889 139.371L243.012 138.177L244.237 138.104L244.471 135.825L245.666 135.754L245.432 138.033L247.315 137.921L247.549 135.642L248.731 135.572L248.498 137.851L249.735 137.777L249.6 138.972L248.369 139.045L248.178 140.922L249.409 140.849L249.286 142.043L248.049 142.117L247.815 144.396L246.632 144.466L246.866 142.187ZM246.995 140.992L247.186 139.116L245.303 139.228L245.112 141.105L246.995 140.992ZM259.212 139.89L255.977 140.082L256.126 142.581L260.471 142.322L260.536 143.421L250.566 144.014L250.501 142.916L254.798 142.66L254.649 140.161L251.559 140.345L251.249 135.131L258.817 134.681L258.881 135.755L252.653 136.126L252.836 139.203L259.148 138.828L259.212 139.89ZM269.473 136.469L271.006 136.378L271.073 137.5L269.54 137.591L269.76 141.285L268.42 141.364L267.942 133.338L269.282 133.258L269.473 136.469ZM270.365 143.914L262.978 144.353L262.782 141.058L264.146 140.977L264.277 143.186L270.3 142.827L270.365 143.914ZM266.309 137.444L262.676 137.661L262.756 139C263.717 138.935 264.542 138.858 265.231 138.768C265.924 138.675 266.629 138.544 267.346 138.376L267.556 139.466C266.796 139.648 266.037 139.784 265.279 139.874C264.521 139.963 263.553 140.043 262.374 140.113L261.481 140.167L261.276 136.727L264.933 136.509L264.862 135.302L261.192 135.52L261.127 134.422L266.112 134.125L266.309 137.444ZM280.575 138.618L277.341 138.811L277.489 141.309L281.834 141.051L281.9 142.149L271.93 142.742L271.865 141.644L276.162 141.388L276.013 138.89L272.923 139.074L272.613 133.859L280.18 133.409L280.244 134.483L274.016 134.854L274.199 137.932L280.512 137.556L280.575 138.618ZM290.837 135.197L292.37 135.106L292.437 136.228L290.904 136.32L291.124 140.013L289.784 140.093L289.306 132.066L290.646 131.987L290.837 135.197ZM291.728 142.642L284.342 143.082L284.145 139.786L285.509 139.705L285.641 141.914L291.664 141.556L291.728 142.642ZM287.673 136.173L284.04 136.389L284.12 137.729C285.081 137.664 285.906 137.586 286.595 137.497C287.288 137.403 287.993 137.272 288.71 137.104L288.92 138.194C288.16 138.377 287.401 138.513 286.643 138.602C285.885 138.692 284.917 138.772 283.738 138.842L282.845 138.895L282.64 135.455L286.297 135.237L286.225 134.03L282.556 134.249L282.491 133.15L287.476 132.854L287.673 136.173Z" fill="white"/>
</g>
<rect x="161.924" y="274.702" width="64.4042" height="44.5817" transform="rotate(1.85325 161.924 274.702)" fill="#FFDC5C"/>
<path d="M188.889 241.432L254.077 243.542L226.294 276.785L161.924 274.702L188.889 241.432Z" fill="#FFDC5C"/>
<path d="M137.166 239.759L71.9781 237.649L97.5533 272.619L161.924 274.702L137.166 239.759Z" fill="#FFB700"/>
<rect x="97.5527" y="272.619" width="64.4042" height="44.5817" transform="rotate(1.85325 97.5527 272.619)" fill="#FFB700"/>
<path d="M187.422 320.133C191.689 320.271 198.31 310.547 198.284 298.231C198.251 282.512 207.894 267.377 220.161 267.774C227.148 268 236.329 268.297 245.601 285.627C250.084 294.007 257.373 297.068 268.433 297.426" stroke="#FFB700" stroke-width="4.64305" stroke-linecap="round"/>
<path d="M66.843 274.974C76.877 271.974 100.446 268.977 114.452 280.981C123.186 288.466 125.409 293.864 126.976 305.821C127.518 309.689 130.865 317.453 139.924 317.569" stroke="#FFDC5C" stroke-width="4.64305" stroke-linecap="round"/>
<defs>
<filter id="filter0_f_5072_41002" x="97.5999" y="181.56" width="78.4368" height="52.3692" filterUnits="userSpaceOnUse" color-interpolation-filters="sRGB">
<feFlood flood-opacity="0" result="BackgroundImageFix"/>
<feBlend mode="normal" in="SourceGraphic" in2="BackgroundImageFix" result="shape"/>
<feGaussianBlur stdDeviation="1.54768" result="effect1_foregroundBlur_5072_41002"/>
</filter>
<filter id="filter1_f_5072_41002" x="162.489" y="46.9176" width="106.935" height="54.813" filterUnits="userSpaceOnUse" color-interpolation-filters="sRGB">
<feFlood flood-opacity="0" result="BackgroundImageFix"/>
<feBlend mode="normal" in="SourceGraphic" in2="BackgroundImageFix" result="shape"/>
<feGaussianBlur stdDeviation="1.54768" result="effect1_foregroundBlur_5072_41002"/>
</filter>
<filter id="filter2_d_5072_41002" x="24.6872" y="35.5761" width="192.514" height="122.22" filterUnits="userSpaceOnUse" color-interpolation-filters="sRGB">
<feFlood flood-opacity="0" result="BackgroundImageFix"/>
<feColorMatrix in="SourceAlpha" type="matrix" values="0 0 0 0 0 0 0 0 0 0 0 0 0 0 0 0 0 0 127 0" result="hardAlpha"/>
<feOffset/>
<feGaussianBlur stdDeviation="14.4708"/>
<feComposite in2="hardAlpha" operator="out"/>
<feColorMatrix type="matrix" values="0 0 0 0 1 0 0 0 0 0.8045 0 0 0 0 0.08 0 0 0 0.2 0"/>
<feBlend mode="normal" in2="BackgroundImageFix" result="effect1_dropShadow_5072_41002"/>
<feBlend mode="normal" in="SourceGraphic" in2="effect1_dropShadow_5072_41002" result="shape"/>
</filter>
<filter id="filter3_d_5072_41002" x="100.609" y="111.847" width="203.958" height="128.277" filterUnits="userSpaceOnUse" color-interpolation-filters="sRGB">
<feFlood flood-opacity="0" result="BackgroundImageFix"/>
<feColorMatrix in="SourceAlpha" type="matrix" values="0 0 0 0 0 0 0 0 0 0 0 0 0 0 0 0 0 0 127 0" result="hardAlpha"/>
<feOffset/>
<feGaussianBlur stdDeviation="14.4708"/>
<feComposite in2="hardAlpha" operator="out"/>
<feColorMatrix type="matrix" values="0 0 0 0 1 0 0 0 0 0.8045 0 0 0 0 0.08 0 0 0 0.2 0"/>
<feBlend mode="normal" in2="BackgroundImageFix" result="effect1_dropShadow_5072_41002"/>
<feBlend mode="normal" in="SourceGraphic" in2="effect1_dropShadow_5072_41002" result="shape"/>
</filter>
<filter id="filter4_d_5072_41002" x="18.0234" y="25.0234" width="86.8867" height="59.1487" filterUnits="userSpaceOnUse" color-interpolation-filters="sRGB">
<feFlood flood-opacity="0" result="BackgroundImageFix"/>
<feColorMatrix in="SourceAlpha" type="matrix" values="0 0 0 0 0 0 0 0 0 0 0 0 0 0 0 0 0 0 127 0" result="hardAlpha"/>
<feOffset/>
<feGaussianBlur stdDeviation="4.48828"/>
<feComposite in2="hardAlpha" operator="out"/>
<feColorMatrix type="matrix" values="0 0 0 0 1 0 0 0 0 0.8045 0 0 0 0 0.08 0 0 0 0.3 0"/>
<feBlend mode="normal" in2="BackgroundImageFix" result="effect1_dropShadow_5072_41002"/>
<feBlend mode="normal" in="SourceGraphic" in2="effect1_dropShadow_5072_41002" result="shape"/>
</filter>
<filter id="filter5_d_5072_41002" x="219.848" y="112.919" width="95.4355" height="53.5906" filterUnits="userSpaceOnUse" color-interpolation-filters="sRGB">
<feFlood flood-opacity="0" result="BackgroundImageFix"/>
<feColorMatrix in="SourceAlpha" type="matrix" values="0 0 0 0 0 0 0 0 0 0 0 0 0 0 0 0 0 0 127 0" result="hardAlpha"/>
<feOffset/>
<feGaussianBlur stdDeviation="4.48828"/>
<feComposite in2="hardAlpha" operator="out"/>
<feColorMatrix type="matrix" values="0 0 0 0 1 0 0 0 0 0.8045 0 0 0 0 0.08 0 0 0 0.3 0"/>
<feBlend mode="normal" in2="BackgroundImageFix" result="effect1_dropShadow_5072_41002"/>
<feBlend mode="normal" in="SourceGraphic" in2="effect1_dropShadow_5072_41002" result="shape"/>
</filter>
<linearGradient id="paint0_linear_5072_41002" x1="154.916" y1="-12.9234" x2="154.916" y2="292.784" gradientUnits="userSpaceOnUse">
<stop stop-color="white" stop-opacity="0"/>
<stop offset="1" stop-color="#FFE894"/>
</linearGradient>
</defs>
</svg>
