<svg width="309" height="326" viewBox="0 0 309 326" fill="none" xmlns="http://www.w3.org/2000/svg">
<path d="M0 12C0 5.37258 5.37258 0 12 0H297C303.627 0 309 5.37258 309 12V314C309 320.627 303.627 326 297 326H12C5.37258 326 0 320.627 0 314V12Z" fill="#FFFBEB"/>
<path d="M123 46C123 38.268 129.268 32 137 32H172C179.732 32 186 38.268 186 46C186 53.732 179.732 60 172 60H137C129.268 60 123 53.732 123 46Z" fill="#FFCD14"/>
<path d="M144.406 52L149.312 42.4688V42.3906H143.625V40.6875H151.422V42.4219L146.516 52H144.406ZM156.594 39.7188C158.734 39.7188 160.328 41.0469 160.344 42.9062C160.328 44.7812 158.734 46.0938 156.594 46.0938C154.438 46.0938 152.844 44.7812 152.844 42.9062C152.844 41.0469 154.438 39.7188 156.594 39.7188ZM156.594 41.1562C155.406 41.1562 154.531 41.8281 154.531 42.9062C154.531 44 155.406 44.6875 156.594 44.6875C157.781 44.6875 158.656 44 158.656 42.9062C158.656 41.8281 157.781 41.1562 156.594 41.1562ZM164.359 39.2656V46.4062H162.609V39.2656H164.359ZM164.359 47.0156V50.7031H156.719V51.8438H164.781V53.2188H155.016V49.4219H162.625V48.375H154.984V47.0156H164.359Z" fill="#424349"/>
<path d="M60.5234 85.4531C60.5234 87.7969 62.0547 90.2188 64.2109 91.1406L63.3984 92.2969C61.75 91.5703 60.4375 90.0312 59.7891 88.1562C59.1406 90.1562 57.8203 91.8594 56.1953 92.6562L55.3359 91.4844C57.4453 90.5 59.0078 87.8594 59.0234 85.4531V83.9688H55.8203V82.7344H63.7109V83.9688H60.5234V85.4531ZM66.9609 81.3281V95.3281H65.4766V81.3281H66.9609ZM82.2734 86.8281V88.0469H80.1016V95.3125H78.6172V81.3281H80.1016V86.8281H82.2734ZM71.1953 82.6875V90.5625C73.1484 90.5625 75.1875 90.3984 77.4141 89.9375L77.5859 91.1875C75.1953 91.6719 72.9766 91.7969 70.8828 91.7969H69.7266V82.6875H71.1953ZM90.1641 82.5156V83.7031H93.2109V81.3438H94.6953V91.5469H93.2109V87.9219H90.1641V89.1406H83.6641V82.5156H90.1641ZM85.1328 83.7188V87.9688H88.7109V83.7188H85.1328ZM95.0078 93.8281V95.0312H85.5547V90.6094H87.0547V93.8281H95.0078ZM90.1641 86.7031H93.2109V84.9219H90.1641V86.7031ZM111.664 81.3281V86.75H113.914V87.9688H111.664V95.3594H110.18V81.3281H111.664ZM107.898 82.6719V83.875H102.836V90.6406C105.188 90.6328 106.953 90.5312 108.945 90.1719L109.133 91.4219C106.945 91.8125 105.086 91.8906 102.477 91.875H101.352V82.6719H107.898ZM119.727 84.8906C119.711 87.4531 121.258 90.0156 123.43 90.9844L122.539 92.1562C120.93 91.3906 119.656 89.8203 119.008 87.9062C118.352 89.9531 117.062 91.6484 115.383 92.4688L114.477 91.2188C116.68 90.2344 118.227 87.5625 118.227 84.8906V82.5H119.727V84.8906ZM126.18 81.3281V95.3594H124.695V81.3281H126.18ZM135.461 81.5469V82.7656H141.945V81.5469H143.43V86.1875H139.398V87.4062H145.086V88.5938H132.32V87.4062H137.945V86.1875H133.992V81.5469H135.461ZM135.461 85.0625H141.945V83.8594H135.461V85.0625ZM143.477 89.6094V92.875H135.32V94.0469H143.867V95.1875H133.867V91.8125H142.008V90.7188H133.852V89.6094H143.477ZM157.227 82.5625C157.211 84.4219 159.492 86.1719 162.242 86.5312L161.664 87.75C159.375 87.3828 157.359 86.1953 156.461 84.5469C155.539 86.2031 153.531 87.3828 151.258 87.75L150.664 86.5312C153.414 86.1719 155.664 84.4375 155.68 82.5625V81.7969H157.227V82.5625ZM162.82 89.125V90.3438H157.133V95.3281H155.68V90.3438H150.055V89.125H162.82ZM170.773 89.5312V91.1562H172.961V89.5312H174.336V95.1562H169.383V89.5312H170.773ZM170.773 94H172.961V92.2812H170.773V94ZM178.398 90.5781C178.398 92.0469 179.211 93.5312 180.945 94.1406L180.18 95.2656C178.914 94.7812 178.094 93.8672 177.664 92.75C177.195 93.8438 176.367 94.7656 175.164 95.2656L174.414 94.1406C176.102 93.4531 176.93 91.9688 176.93 90.5781V89.4375H178.398V90.5781ZM171.664 81.9219C173.508 81.9219 174.93 82.9688 175.242 84.5312H177.977V81.3281H179.461V88.75H177.977V85.75H175.258C174.953 87.3594 173.523 88.4062 171.664 88.4062C169.523 88.4062 167.992 87.0938 167.992 85.1562C167.992 83.25 169.523 81.9219 171.664 81.9219ZM171.664 83.1562C170.336 83.1562 169.414 83.9688 169.414 85.1562C169.414 86.3594 170.336 87.1875 171.664 87.2031C172.961 87.1875 173.883 86.3594 173.883 85.1562C173.883 83.9688 172.961 83.1562 171.664 83.1562ZM192.523 81.3281V86.75H194.773V87.9688H192.523V95.3594H191.039V81.3281H192.523ZM188.758 82.6719V83.875H183.695V90.6406C186.047 90.6328 187.812 90.5312 189.805 90.1719L189.992 91.4219C187.805 91.8125 185.945 91.8906 183.336 91.875H182.211V82.6719H188.758ZM206.773 85.4219V86.6094H197.133V81.8281H198.602V85.4219H206.773ZM208.242 88.375V89.5625H195.43V88.375H208.242ZM206.867 93.7812V95H197.023V90.8906H198.508V93.7812H206.867ZM218.039 84.8906C218.023 87.375 219.461 89.9062 221.555 90.9219L220.633 92.1094C219.109 91.3203 217.93 89.75 217.32 87.875C216.688 89.875 215.461 91.5469 213.867 92.375L212.945 91.1719C215.102 90.1406 216.555 87.4531 216.555 84.8906V82.5H218.039V84.8906ZM224.086 81.3281V86.9062H226.336V88.1719H224.086V95.3281H222.602V81.3281H224.086ZM238.602 81.3281V88.5312H237.133V81.3281H238.602ZM238.617 89.2031V92.7031H230.898V94H239.086V95.1875H229.461V91.5781H237.148V90.375H229.414V89.2031H238.617ZM232.102 82.7812C232.086 84.6562 233.445 86.3594 235.586 87.0312L234.852 88.1875C233.219 87.6562 231.992 86.5469 231.367 85.125C230.727 86.6562 229.477 87.875 227.805 88.4531L227.055 87.2812C229.242 86.5469 230.586 84.7188 230.586 82.7812V81.7031H232.102V82.7812ZM253.602 88.6406V89.8281H240.836V88.6406H253.602ZM252.164 93.8281V95.0312H242.445V90.9688H243.945V93.8281H252.164ZM247.211 81.7969C250.242 81.7812 252.211 82.8438 252.211 84.5938C252.211 86.3594 250.242 87.4219 247.211 87.4375C244.164 87.4219 242.211 86.3594 242.211 84.5938C242.211 82.8438 244.164 81.7812 247.211 81.7969ZM247.211 82.9844C245.07 82.9844 243.727 83.5938 243.742 84.5938C243.727 85.625 245.07 86.2188 247.211 86.2188C249.352 86.2188 250.68 85.625 250.68 84.5938C250.68 83.5938 249.352 82.9844 247.211 82.9844ZM72.0859 116.344V117.578H59.2734V116.344H64.9141V113.109H60.7422V106.453H70.5547V113.109H66.3828V116.344H72.0859ZM62.1797 107.641V111.938H69.1016V107.641H62.1797ZM84.3203 110.484V111.656H74.8203V106.125H84.1484V107.328H76.3203V110.484H84.3203ZM85.8984 113.359V114.562H80.1797V119.297H78.7266V114.562H73.0859V113.359H85.8984ZM98.9766 105.328V119.328H97.5547V105.328H98.9766ZM96.1328 105.594V118.641H94.7109V111.891H93.1328C93.0078 114.625 91.8359 116.328 90.1016 116.312C88.2734 116.328 87.0859 114.406 87.0859 111.375C87.0859 108.344 88.2734 106.438 90.1016 106.453C91.8047 106.438 92.9609 108.055 93.1328 110.688H94.7109V105.594H96.1328ZM90.1016 107.844C89.0859 107.844 88.4609 109.141 88.4609 111.375C88.4609 113.609 89.0859 114.906 90.1016 114.906C91.1328 114.906 91.7734 113.609 91.7734 111.375C91.7734 109.141 91.1328 107.844 90.1016 107.844ZM112.789 105.328V119.328H111.383V105.328H112.789ZM109.836 105.688V118.641H108.43V112.141H105.695C104.859 113.766 103.531 115.188 101.555 116.344L100.711 115.281C103.68 113.516 105.109 111.164 105.367 108.281H101.367V107.062H106.836C106.828 108.43 106.641 109.734 106.211 110.953H108.43V105.688H109.836ZM123.508 107.812C123.508 109.578 124.773 111.312 126.883 112.031L126.117 113.188C124.547 112.641 123.383 111.523 122.773 110.141C122.164 111.68 120.938 112.914 119.273 113.5L118.508 112.328C120.664 111.594 121.992 109.719 121.992 107.828V107.438H118.961V106.234H126.508V107.438H123.508V107.812ZM130.164 114.406V119.328H128.68V115.609H120.68V114.406H130.164ZM130.164 105.328V113.703H128.68V110.109H126.086V108.891H128.68V105.328H130.164ZM143.336 105.328V108.875H145.352V110.094H143.336V113.594H141.836V105.328H143.336ZM138.805 113.859C141.664 113.859 143.445 114.859 143.445 116.578C143.445 118.297 141.664 119.312 138.805 119.297C135.914 119.312 134.102 118.297 134.102 116.578C134.102 114.859 135.914 113.859 138.805 113.859ZM138.805 115.062C136.773 115.047 135.555 115.609 135.57 116.578C135.555 117.547 136.773 118.109 138.805 118.109C140.789 118.109 142.008 117.547 142.023 116.578C142.008 115.609 140.789 115.047 138.805 115.062ZM139.164 106.359V107.562H134.383V111.375C137.141 111.367 138.695 111.281 140.461 110.922L140.602 112.125C138.727 112.516 137.055 112.578 134.023 112.578H132.914V106.359H139.164ZM157.148 105.344V109.844H159.18V111.078H157.148V115.812H155.664V105.344H157.148ZM154.508 106.969V108.172H146.164V106.969H149.602V105.328H151.086V106.969H154.508ZM150.336 108.844C152.352 108.844 153.727 109.891 153.727 111.484C153.727 113.078 152.352 114.109 150.336 114.109C148.305 114.109 146.93 113.078 146.93 111.484C146.93 109.891 148.305 108.844 150.336 108.844ZM150.336 109.984C149.148 109.984 148.352 110.562 148.367 111.484C148.352 112.391 149.148 112.953 150.336 112.953C151.523 112.953 152.32 112.391 152.336 111.484C152.32 110.562 151.523 109.984 150.336 109.984ZM157.742 117.828V119.031H148.273V114.984H149.758V117.828H157.742ZM175.477 105.344V115.5H173.992V105.344H175.477ZM171.398 106.391C171.398 110.062 168.852 112.75 164.695 114L164.102 112.812C167.43 111.812 169.492 109.945 169.789 107.609H164.867V106.391H171.398ZM175.82 117.828V119.031H166.273V114.656H167.773V117.828H175.82ZM182.602 107.906C182.602 109.688 183.836 111.312 185.961 111.984L185.258 113.141C183.664 112.633 182.5 111.578 181.883 110.25C181.273 111.781 180.047 112.992 178.367 113.578L177.602 112.391C179.789 111.672 181.102 109.859 181.117 107.922V107.531H178.039V106.328H185.617V107.531H182.602V107.906ZM188.711 105.328V108.797H190.742V110.016H188.711V113.734H187.227V105.328H188.711ZM184.195 114.078C187.086 114.078 188.836 115.031 188.836 116.672C188.836 118.328 187.086 119.312 184.195 119.297C181.273 119.312 179.492 118.328 179.492 116.672C179.492 115.031 181.273 114.078 184.195 114.078ZM184.195 115.25C182.164 115.25 180.961 115.766 180.977 116.672C180.961 117.609 182.164 118.125 184.195 118.125C186.211 118.125 187.383 117.609 187.383 116.672C187.383 115.766 186.211 115.25 184.195 115.25ZM202.539 105.328V108.625H204.57V109.859H202.539V113.234H201.055V105.328H202.539ZM198.68 106.203C198.664 109.797 196.242 112.312 192.07 113.438L191.477 112.25C194.82 111.367 196.797 109.609 197.07 107.422H192.133V106.203H198.68ZM202.539 113.828V119.141H193.57V113.828H202.539ZM195.055 115.062V117.953H201.07V115.062H195.055ZM211.742 105.562C214.898 105.562 216.742 106.406 216.742 107.969C216.742 109.531 214.898 110.391 211.742 110.391C208.586 110.391 206.742 109.531 206.742 107.969C206.742 106.406 208.586 105.562 211.742 105.562ZM211.742 106.656C209.508 106.656 208.273 107.141 208.289 107.969C208.273 108.828 209.508 109.281 211.742 109.281C213.977 109.281 215.211 108.828 215.211 107.969C215.211 107.141 213.977 106.656 211.742 106.656ZM218.133 111.25V112.438H205.367V111.25H218.133ZM216.523 113.516V116.797H208.367V118.047H216.914V119.188H206.914V115.719H215.055V114.625H206.898V113.516H216.523ZM228.383 107.656C228.383 108.891 229.711 110 231.773 110.359L231.164 111.5C229.531 111.172 228.289 110.406 227.664 109.359C227.031 110.492 225.766 111.336 224.039 111.703L223.414 110.562C225.555 110.156 226.867 108.984 226.883 107.656V107.5H223.93V106.312H231.367V107.5H228.383V107.656ZM234.805 105.344V119.328H233.305V116.062H230.211V114.922H233.305V105.344H234.805ZM223.039 112.719C225.648 112.719 229.195 112.688 232.258 112.266L232.352 113.375C231.023 113.609 229.648 113.742 228.305 113.828V118.891H226.82V113.906C225.531 113.953 224.312 113.961 223.242 113.969L223.039 112.719ZM249.742 116.344V117.578H236.93V116.344H239.992V112.688C238.844 112.055 238.148 111.047 238.148 109.797C238.148 107.594 240.305 106.141 243.305 106.141C246.32 106.141 248.477 107.594 248.477 109.797C248.477 111.031 247.805 112.023 246.68 112.656V116.344H249.742ZM243.305 107.328C241.102 107.328 239.586 108.281 239.586 109.797C239.586 111.297 241.102 112.281 243.305 112.281C245.492 112.281 247.039 111.297 247.039 109.797C247.039 108.281 245.492 107.328 243.305 107.328ZM241.461 116.344H245.18V113.219C244.609 113.367 243.977 113.438 243.305 113.438C242.648 113.438 242.023 113.367 241.461 113.234V116.344Z" fill="#424349"/>
<ellipse cx="171.607" cy="195.835" rx="8.55783" ry="18.599" transform="rotate(122.237 171.607 195.835)" fill="url(#paint0_linear_5086_42391)"/>
<path d="M160.898 177.979C164.082 172.93 173.707 173.28 182.395 178.759C191.084 184.239 195.546 192.773 192.362 197.821C192.293 197.93 192.221 198.036 192.146 198.139L187.553 205.424L187.532 205.411C189.575 201.329 184.617 193.922 176.172 188.596C167.728 183.271 158.908 181.988 156.104 185.589L156.097 185.585L160.792 178.14L160.799 178.144C160.831 178.089 160.864 178.033 160.898 177.979Z" fill="#D9D9D9"/>
<path d="M160.898 177.979C164.082 172.93 173.707 173.28 182.395 178.759C191.084 184.239 195.546 192.773 192.362 197.821C192.293 197.93 192.221 198.036 192.146 198.139L187.553 205.424L187.532 205.411C189.575 201.329 184.617 193.922 176.172 188.596C167.728 183.271 158.908 181.988 156.104 185.589L156.097 185.585L160.792 178.14L160.799 178.144C160.831 178.089 160.864 178.033 160.898 177.979Z" fill="url(#paint1_linear_5086_42391)"/>
<path d="M145.275 192.517C159.663 195.616 172.333 207.318 176.894 223.547C181.548 240.108 176.445 256.711 165.177 266.31L166.5 271.214L150.488 273.692C130.512 278.279 109.611 264.621 103.46 242.733C97.4157 221.227 107.823 199.647 126.823 193.433L143.74 186.827L145.275 192.517Z" fill="url(#paint2_linear_5086_42391)"/>
<ellipse cx="156.581" cy="228.351" rx="38.1084" ry="43.9787" transform="rotate(-15.1656 156.581 228.351)" fill="url(#paint3_linear_5086_42391)"/>
<g filter="url(#filter0_i_5086_42391)">
<ellipse cx="150.527" cy="229.992" rx="31.8351" ry="36.739" transform="rotate(-15.1656 150.527 229.992)" fill="url(#paint4_linear_5086_42391)"/>
</g>
<g filter="url(#filter1_i_5086_42391)">
<path d="M145.075 185.904C165.388 180.399 187.007 194.939 193.361 218.382C199.715 241.825 188.398 265.293 168.085 270.799C147.771 276.305 126.153 261.764 119.798 238.321C113.444 214.878 124.761 191.41 145.075 185.904ZM187.063 220.089C181.796 200.66 163.88 188.61 147.045 193.173C130.21 197.736 120.831 217.185 126.097 236.613C131.363 256.042 149.28 268.093 166.115 263.53C182.95 258.967 192.329 239.517 187.063 220.089Z" fill="url(#paint5_linear_5086_42391)"/>
</g>
<path d="M125.932 188.086L125.926 188.093C125.956 188.116 125.986 188.138 126.015 188.163C128.778 190.481 125.777 198.605 119.312 206.307C112.848 214.01 105.367 218.375 102.605 216.057C102.487 215.958 102.381 215.847 102.284 215.728L94.4618 209.162L117.848 181.301L125.932 188.086Z" fill="url(#paint6_linear_5086_42391)"/>
<path d="M99.1573 184.066C103.397 179.687 111.441 177.17 117.204 180.922L117.174 180.958C117.512 181.087 117.819 181.263 118.09 181.491C121.222 184.12 118.52 192.498 112.053 200.202C105.587 207.907 97.8053 212.022 94.6726 209.392C94.4665 209.219 94.2865 209.021 94.1303 208.8L93.8348 208.522C90.8436 205.533 89.7433 198.975 93.7402 190.807L99.1573 184.066Z" fill="url(#paint7_linear_5086_42391)"/>
<ellipse cx="99.8895" cy="189.658" rx="4.41157" ry="10.4504" transform="rotate(40.0058 99.8895 189.658)" fill="url(#paint8_linear_5086_42391)"/>
<path d="M151.732 211.35C152.625 211.447 153.392 212.112 153.578 213.04L156.356 226.961L152.21 227.788L149.431 213.867C149.218 212.798 149.85 211.757 150.866 211.437L150.866 211.435L151.705 211.222L151.732 211.35Z" fill="url(#paint9_linear_5086_42391)"/>
<path d="M150.05 213.708C149.822 212.563 150.565 211.45 151.71 211.222C152.855 210.993 153.968 211.736 154.197 212.881L156.975 226.802L152.829 227.63L150.05 213.708Z" fill="url(#paint10_linear_5086_42391)"/>
<path d="M169.876 239.672C170.328 240.055 170.516 240.633 170.423 241.178L170.573 241.302L170.067 241.95L169.951 242.073C169.361 242.642 168.424 242.683 167.784 242.141L154.77 231.122L156.861 228.652L169.876 239.672Z" fill="url(#paint11_linear_5086_42391)"/>
<path d="M170.261 239.176C170.943 239.754 171.028 240.775 170.45 241.457C169.873 242.139 168.852 242.224 168.17 241.646L155.156 230.627L157.247 228.157L170.261 239.176Z" fill="url(#paint12_linear_5086_42391)"/>
<path d="M154.715 226.179C155.635 226.408 156.423 227.181 156.682 228.238C156.894 229.107 156.7 229.97 156.231 230.6L156.397 231.081L154.922 231.49L154.921 231.488C154.915 231.49 154.909 231.494 154.902 231.495C153.56 231.824 152.18 230.899 151.82 229.429C151.494 228.1 152.116 226.782 153.23 226.299L153.229 226.295L153.298 226.27C153.347 226.25 153.397 226.233 153.448 226.217L154.591 225.819L154.715 226.179Z" fill="url(#paint13_linear_5086_42391)"/>
<ellipse cx="155.547" cy="228.429" rx="2.78694" ry="2.50235" transform="rotate(76.2387 155.547 228.429)" fill="url(#paint14_linear_5086_42391)"/>
<path d="M179.387 224.287C179.706 224.476 179.94 224.803 179.997 225.199C180.097 225.894 179.615 226.539 178.92 226.639L176.07 227.048L175.985 227.175L175.402 227.076L175.403 227.072C174.887 226.972 174.467 226.557 174.388 226.007C174.288 225.312 174.77 224.667 175.465 224.567L178.557 224.122C178.698 224.102 178.836 224.106 178.969 224.131L178.972 224.129L179.458 224.212L179.387 224.287Z" fill="#D9D9D9"/>
<path d="M179.387 224.287C179.706 224.476 179.94 224.803 179.997 225.199C180.097 225.894 179.615 226.539 178.92 226.639L176.07 227.048L175.985 227.175L175.402 227.076L175.403 227.072C174.887 226.972 174.467 226.557 174.388 226.007C174.288 225.312 174.77 224.667 175.465 224.567L178.557 224.122C178.698 224.102 178.836 224.106 178.969 224.131L178.972 224.129L179.458 224.212L179.387 224.287Z" fill="url(#paint15_linear_5086_42391)"/>
<path d="M134.209 230.627C134.528 230.817 134.762 231.143 134.819 231.539C134.919 232.234 134.437 232.878 133.743 232.979L130.891 233.389L130.807 233.514L130.223 233.415L130.225 233.412C129.709 233.312 129.289 232.896 129.21 232.347C129.11 231.652 129.592 231.007 130.287 230.907L133.38 230.462C133.521 230.441 133.659 230.446 133.792 230.47L133.794 230.47L134.28 230.552L134.209 230.627Z" fill="#D9D9D9"/>
<path d="M134.209 230.627C134.528 230.817 134.762 231.143 134.819 231.539C134.919 232.234 134.437 232.878 133.743 232.979L130.891 233.389L130.807 233.514L130.223 233.415L130.225 233.412C129.709 233.312 129.289 232.896 129.21 232.347C129.11 231.652 129.592 231.007 130.287 230.907L133.38 230.462C133.521 230.441 133.659 230.446 133.792 230.47L133.794 230.47L134.28 230.552L134.209 230.627Z" fill="url(#paint16_linear_5086_42391)"/>
<rect x="174.74" y="224.839" width="5.66754" height="2.54312" rx="1.27156" transform="rotate(-8.19302 174.74 224.839)" fill="url(#paint17_linear_5086_42391)"/>
<rect x="129.561" y="231.179" width="5.66754" height="2.54312" rx="1.27156" transform="rotate(-8.19302 129.561 231.179)" fill="url(#paint18_linear_5086_42391)"/>
<rect x="147.877" y="200.67" width="2.74235" height="6.23801" rx="1.37118" transform="rotate(-11.1203 147.877 200.67)" fill="url(#paint19_linear_5086_42391)"/>
<rect x="157.488" y="251.611" width="2.74235" height="6.23801" rx="1.37118" transform="rotate(-11.1203 157.488 251.611)" fill="url(#paint20_linear_5086_42391)"/>
<rect x="148.227" y="200.328" width="2.74235" height="6.23801" rx="1.37118" transform="rotate(-11.1203 148.227 200.328)" fill="url(#paint21_linear_5086_42391)"/>
<rect x="157.838" y="251.269" width="2.74235" height="6.23801" rx="1.37118" transform="rotate(-11.1203 157.838 251.269)" fill="url(#paint22_linear_5086_42391)"/>
<path d="M204.717 192.469C205.255 190.454 205.39 188.353 205.116 186.285C204.841 184.218 204.162 182.225 203.118 180.42C202.073 178.615 200.683 177.034 199.027 175.766C197.371 174.498 195.482 173.569 193.467 173.031" stroke="url(#paint23_radial_5086_42391)" stroke-width="6" stroke-linecap="round"/>
<path d="M217.921 195.131C218.878 191.541 219.12 187.798 218.631 184.114C218.142 180.431 216.932 176.88 215.071 173.664C213.21 170.449 210.733 167.631 207.783 165.372C204.833 163.113 201.467 161.458 197.877 160.5" stroke="url(#paint24_radial_5086_42391)" stroke-width="6" stroke-linecap="round"/>
<defs>
<filter id="filter0_i_5086_42391" x="118.324" y="193.559" width="65.9062" height="78.1152" filterUnits="userSpaceOnUse" color-interpolation-filters="sRGB">
<feFlood flood-opacity="0" result="BackgroundImageFix"/>
<feBlend mode="normal" in="SourceGraphic" in2="BackgroundImageFix" result="shape"/>
<feColorMatrix in="SourceAlpha" type="matrix" values="0 0 0 0 0 0 0 0 0 0 0 0 0 0 0 0 0 0 127 0" result="hardAlpha"/>
<feOffset dx="1.5" dy="6"/>
<feGaussianBlur stdDeviation="2.625"/>
<feComposite in2="hardAlpha" operator="arithmetic" k2="-1" k3="1"/>
<feColorMatrix type="matrix" values="0 0 0 0 0 0 0 0 0 0 0 0 0 0 0 0 0 0 0.15 0"/>
<feBlend mode="normal" in2="shape" result="effect1_innerShadow_5086_42391"/>
</filter>
<filter id="filter1_i_5086_42391" x="118.031" y="181.74" width="80.0977" height="90.2239" filterUnits="userSpaceOnUse" color-interpolation-filters="sRGB">
<feFlood flood-opacity="0" result="BackgroundImageFix"/>
<feBlend mode="normal" in="SourceGraphic" in2="BackgroundImageFix" result="shape"/>
<feColorMatrix in="SourceAlpha" type="matrix" values="0 0 0 0 0 0 0 0 0 0 0 0 0 0 0 0 0 0 127 0" result="hardAlpha"/>
<feOffset dx="3" dy="-3"/>
<feGaussianBlur stdDeviation="1.5"/>
<feComposite in2="hardAlpha" operator="arithmetic" k2="-1" k3="1"/>
<feColorMatrix type="matrix" values="0 0 0 0 1 0 0 0 0 1 0 0 0 0 1 0 0 0 0.25 0"/>
<feBlend mode="normal" in2="shape" result="effect1_innerShadow_5086_42391"/>
</filter>
<linearGradient id="paint0_linear_5086_42391" x1="161.555" y1="184.274" x2="172.485" y2="184.031" gradientUnits="userSpaceOnUse">
<stop stop-color="#664200"/>
<stop offset="1" stop-color="#E09900"/>
</linearGradient>
<linearGradient id="paint1_linear_5086_42391" x1="158.896" y1="182.213" x2="178.65" y2="198.215" gradientUnits="userSpaceOnUse">
<stop stop-color="#FFDC5C"/>
<stop offset="0.390403" stop-color="#FFF7D6"/>
<stop offset="1" stop-color="#FFCD14"/>
</linearGradient>
<linearGradient id="paint2_linear_5086_42391" x1="113.132" y1="201.071" x2="148.767" y2="277.164" gradientUnits="userSpaceOnUse">
<stop stop-color="#FFDC5C"/>
<stop offset="1" stop-color="#E09900"/>
</linearGradient>
<linearGradient id="paint3_linear_5086_42391" x1="156.581" y1="184.372" x2="156.581" y2="272.33" gradientUnits="userSpaceOnUse">
<stop stop-color="#E09900"/>
<stop offset="1" stop-color="#FFB700"/>
</linearGradient>
<linearGradient id="paint4_linear_5086_42391" x1="166.733" y1="199.007" x2="159.374" y2="224.352" gradientUnits="userSpaceOnUse">
<stop stop-color="#D6D6D6"/>
<stop offset="1" stop-color="white"/>
</linearGradient>
<linearGradient id="paint5_linear_5086_42391" x1="163.782" y1="185.944" x2="149.377" y2="270.759" gradientUnits="userSpaceOnUse">
<stop stop-color="#FFF2C2"/>
<stop offset="1" stop-color="#FFB700"/>
</linearGradient>
<linearGradient id="paint6_linear_5086_42391" x1="129.847" y1="190.256" x2="107.655" y2="217.011" gradientUnits="userSpaceOnUse">
<stop stop-color="#FFDC5C"/>
<stop offset="0.390403" stop-color="#FFF7D6"/>
<stop offset="1" stop-color="#FFB700"/>
</linearGradient>
<linearGradient id="paint7_linear_5086_42391" x1="103.127" y1="190.125" x2="103.14" y2="207.376" gradientUnits="userSpaceOnUse">
<stop stop-color="#FFE894"/>
<stop offset="1" stop-color="#FFCD14"/>
</linearGradient>
<linearGradient id="paint8_linear_5086_42391" x1="107.851" y1="186.523" x2="96.9611" y2="189.298" gradientUnits="userSpaceOnUse">
<stop stop-color="#FFF2C2"/>
<stop offset="1" stop-color="#FFE894"/>
</linearGradient>
<linearGradient id="paint9_linear_5086_42391" x1="149.631" y1="211.853" x2="158.104" y2="225.212" gradientUnits="userSpaceOnUse">
<stop stop-color="#56575F"/>
<stop offset="0.110061" stop-color="#56575F"/>
<stop offset="0.27945" stop-color="#2C2C30"/>
</linearGradient>
<linearGradient id="paint10_linear_5086_42391" x1="149.471" y1="225.428" x2="156.168" y2="224.759" gradientUnits="userSpaceOnUse">
<stop stop-color="#56575F"/>
<stop offset="1" stop-color="#2C2C30"/>
</linearGradient>
<linearGradient id="paint11_linear_5086_42391" x1="167.393" y1="244.75" x2="162.037" y2="228.592" gradientUnits="userSpaceOnUse">
<stop stop-color="#56575F"/>
<stop offset="1" stop-color="#2C2C30"/>
</linearGradient>
<linearGradient id="paint12_linear_5086_42391" x1="157.993" y1="242.408" x2="167.377" y2="237.08" gradientUnits="userSpaceOnUse">
<stop stop-color="#56575F"/>
<stop offset="1" stop-color="#2C2C30"/>
</linearGradient>
<linearGradient id="paint13_linear_5086_42391" x1="153.033" y1="226.49" x2="154.651" y2="231.803" gradientUnits="userSpaceOnUse">
<stop stop-color="#56575F"/>
<stop offset="0.332609" stop-color="#747681"/>
<stop offset="1" stop-color="#2C2C30"/>
</linearGradient>
<linearGradient id="paint14_linear_5086_42391" x1="155.718" y1="230.557" x2="155.921" y2="225.935" gradientUnits="userSpaceOnUse">
<stop stop-color="#56575F"/>
<stop offset="1" stop-color="#2C2C30"/>
</linearGradient>
<linearGradient id="paint15_linear_5086_42391" x1="176.869" y1="225.549" x2="175.922" y2="227.634" gradientUnits="userSpaceOnUse">
<stop stop-color="#56575F"/>
<stop offset="0.711317" stop-color="#2C2C30"/>
</linearGradient>
<linearGradient id="paint16_linear_5086_42391" x1="131.692" y1="231.888" x2="130.745" y2="233.974" gradientUnits="userSpaceOnUse">
<stop stop-color="#56575F"/>
<stop offset="0.711317" stop-color="#2C2C30"/>
</linearGradient>
<linearGradient id="paint17_linear_5086_42391" x1="176.626" y1="222.35" x2="174.577" y2="230.152" gradientUnits="userSpaceOnUse">
<stop stop-color="#56575F"/>
<stop offset="1" stop-color="#2C2C30"/>
</linearGradient>
<linearGradient id="paint18_linear_5086_42391" x1="131.446" y1="228.69" x2="129.397" y2="236.492" gradientUnits="userSpaceOnUse">
<stop stop-color="#56575F"/>
<stop offset="1" stop-color="#2C2C30"/>
</linearGradient>
<linearGradient id="paint19_linear_5086_42391" x1="147.877" y1="201.042" x2="151.923" y2="204.543" gradientUnits="userSpaceOnUse">
<stop stop-color="#56575F"/>
<stop offset="0.110061" stop-color="#56575F"/>
<stop offset="0.27945" stop-color="#2C2C30"/>
</linearGradient>
<linearGradient id="paint20_linear_5086_42391" x1="157.488" y1="251.983" x2="161.534" y2="255.484" gradientUnits="userSpaceOnUse">
<stop stop-color="#56575F"/>
<stop offset="0.110061" stop-color="#56575F"/>
<stop offset="0.27945" stop-color="#2C2C30"/>
</linearGradient>
<linearGradient id="paint21_linear_5086_42391" x1="146.371" y1="205.488" x2="150.639" y2="206.196" gradientUnits="userSpaceOnUse">
<stop stop-color="#56575F"/>
<stop offset="1" stop-color="#2C2C30"/>
</linearGradient>
<linearGradient id="paint22_linear_5086_42391" x1="155.982" y1="256.429" x2="160.25" y2="257.138" gradientUnits="userSpaceOnUse">
<stop stop-color="#56575F"/>
<stop offset="1" stop-color="#2C2C30"/>
</linearGradient>
<radialGradient id="paint23_radial_5086_42391" cx="0" cy="0" r="1" gradientUnits="userSpaceOnUse" gradientTransform="translate(199.221 183.134) rotate(65.2826) scale(14.5977 6.32567)">
<stop stop-color="#FFB700"/>
<stop offset="1" stop-color="#FFF2C2"/>
</radialGradient>
<radialGradient id="paint24_radial_5086_42391" cx="0" cy="0" r="1" gradientUnits="userSpaceOnUse" gradientTransform="translate(208.129 178.5) rotate(65.2826) scale(26.0078 11.2701)">
<stop stop-color="#FFB700"/>
<stop offset="1" stop-color="#FFF2C2"/>
</radialGradient>
</defs>
</svg>
