<svg width="309" height="326" viewBox="0 0 309 326" fill="none" xmlns="http://www.w3.org/2000/svg">
<path d="M0 12C0 5.37258 5.37258 0 12 0H297C303.627 0 309 5.37258 309 12V314C309 320.627 303.627 326 297 326H12C5.37258 326 0 320.627 0 314V12Z" fill="#FFFBEB"/>
<path d="M127.5 46C127.5 38.268 133.768 32 141.5 32H167.5C175.232 32 181.5 38.268 181.5 46C181.5 53.732 175.232 60 167.5 60H141.5C133.768 60 127.5 53.732 127.5 46Z" fill="#FFCD14"/>
<path d="M160.008 39.2656V46.8594H158.305V39.2656H160.008ZM152.43 40.2344V41.6094H150.305V44.8594C151.023 44.8516 151.758 44.7812 152.586 44.625L152.758 46.0156C151.445 46.2656 150.414 46.2656 149.289 46.2656H148.586V40.2344H152.43ZM157.102 40.2344V41.6094H154.852V44.8594C155.789 44.8516 156.562 44.7969 157.461 44.6094L157.602 45.9844C156.352 46.25 155.367 46.2656 153.898 46.2812H153.133V40.2344H157.102ZM152.18 47.4531V48.9531H158.273V47.4531H159.992V53.2188H150.461V47.4531H152.18ZM152.18 51.8125H158.273V50.3281H152.18V51.8125Z" fill="#424349"/>
<path d="M69.1875 82.2969V88.3906H62.6406V82.2969H69.1875ZM64.0938 83.4844V87.1875H67.7344V83.4844H64.0938ZM73.0938 81.3281V84.6719H75.125V85.875H73.0938V89.375H71.6094V81.3281H73.0938ZM73.0938 90.0156V95.1562H64.1562V90.0156H73.0938ZM65.6094 91.2031V93.9531H71.625V91.2031H65.6094ZM87.9688 81.3281V95.3281H86.5469V81.3281H87.9688ZM85.125 81.5938V94.6406H83.7031V87.8906H82.125C82 90.625 80.8281 92.3281 79.0938 92.3125C77.2656 92.3281 76.0781 90.4062 76.0781 87.375C76.0781 84.3438 77.2656 82.4375 79.0938 82.4531C80.7969 82.4375 81.9531 84.0547 82.125 86.6875H83.7031V81.5938H85.125ZM79.0938 83.8438C78.0781 83.8438 77.4531 85.1406 77.4531 87.375C77.4531 89.6094 78.0781 90.9062 79.0938 90.9062C80.125 90.9062 80.7656 89.6094 80.7656 87.375C80.7656 85.1406 80.125 83.8438 79.0938 83.8438ZM106.438 88.3438V89.5312H93.6562V88.3438H106.438ZM105 85.7188V86.9375H95.25V81.9062H104.859V83.0938H96.7344V85.7188H105ZM105.094 93.8125V95.0312H95.2656V90.9062H96.7344V93.8125H105.094ZM116.25 84.8906C116.234 87.375 117.672 89.9062 119.766 90.9219L118.844 92.1094C117.32 91.3203 116.141 89.75 115.531 87.875C114.898 89.875 113.672 91.5469 112.078 92.375L111.156 91.1719C113.312 90.1406 114.766 87.4531 114.766 84.8906V82.5H116.25V84.8906ZM122.297 81.3281V86.9062H124.547V88.1719H122.297V95.3281H120.812V81.3281H122.297ZM130.406 84.25C130.406 86.0625 131.75 87.7656 133.906 88.4531L133.141 89.6094C131.531 89.0781 130.312 87.9766 129.688 86.5781C129.055 88.1016 127.812 89.3047 126.141 89.8906L125.375 88.7188C127.547 87.9844 128.891 86.1719 128.906 84.25V83.6406H125.766V82.4375H133.484V83.6406H130.406V84.25ZM136.828 81.3438V91.5625H135.344V81.3438H136.828ZM137.25 93.8281V95.0312H127.672V90.5938H129.172V93.8281H137.25ZM151.094 81.3281V95.3281H149.672V81.3281H151.094ZM148.25 81.5938V94.6406H146.828V87.8906H145.25C145.125 90.625 143.953 92.3281 142.219 92.3125C140.391 92.3281 139.203 90.4062 139.203 87.375C139.203 84.3438 140.391 82.4375 142.219 82.4531C143.922 82.4375 145.078 84.0547 145.25 86.6875H146.828V81.5938H148.25ZM142.219 83.8438C141.203 83.8438 140.578 85.1406 140.578 87.375C140.578 89.6094 141.203 90.9062 142.219 90.9062C143.25 90.9062 143.891 89.6094 143.891 87.375C143.891 85.1406 143.25 83.8438 142.219 83.8438ZM169.594 92.4531V93.6719H156.781V92.4531H160.219V89.3438H157.906V88.1406H160V83.7812H157.875V82.5625H168.422V83.7812H166.281V88.1406H168.375V89.3438H166.078V92.4531H169.594ZM161.469 88.1406H164.828V83.7812H161.469V88.1406ZM161.703 92.4531H164.594V89.3438H161.703V92.4531ZM175.75 84.8906C175.734 87.4531 177.281 90.0156 179.453 90.9844L178.562 92.1562C176.953 91.3906 175.68 89.8203 175.031 87.9062C174.375 89.9531 173.086 91.6484 171.406 92.4688L170.5 91.2188C172.703 90.2344 174.25 87.5625 174.25 84.8906V82.5H175.75V84.8906ZM182.203 81.3281V95.3594H180.719V81.3281H182.203ZM195.438 81.3438V85.8438H197.469V87.0781H195.438V91.8125H193.953V81.3438H195.438ZM192.797 82.9688V84.1719H184.453V82.9688H187.891V81.3281H189.375V82.9688H192.797ZM188.625 84.8438C190.641 84.8438 192.016 85.8906 192.016 87.4844C192.016 89.0781 190.641 90.1094 188.625 90.1094C186.594 90.1094 185.219 89.0781 185.219 87.4844C185.219 85.8906 186.594 84.8438 188.625 84.8438ZM188.625 85.9844C187.438 85.9844 186.641 86.5625 186.656 87.4844C186.641 88.3906 187.438 88.9531 188.625 88.9531C189.812 88.9531 190.609 88.3906 190.625 87.4844C190.609 86.5625 189.812 85.9844 188.625 85.9844ZM196.031 93.8281V95.0312H186.562V90.9844H188.047V93.8281H196.031ZM209.281 85.5V87.0312H214.969V88.2344H202.156V87.0312H207.812V85.5H209.281ZM213.797 81.7344V82.875H209.562C209.797 84.0859 211.766 85.0469 214.297 85.2188L213.812 86.3281C211.344 86.1172 209.297 85.2188 208.562 83.8125C207.82 85.2188 205.766 86.1172 203.297 86.3281L202.812 85.2188C205.297 85.0469 207.297 84.0859 207.547 82.875H203.344V81.7344H213.797ZM213.75 89.9531V91.0938H203.344V89.9531H207.812V88.7188H209.281V89.9531H213.75ZM208.531 91.6875C211.25 91.6875 212.812 92.3281 212.812 93.5312C212.812 94.75 211.25 95.3906 208.531 95.3906C205.812 95.3906 204.297 94.75 204.297 93.5312C204.297 92.3281 205.812 91.6875 208.531 91.6875ZM208.531 92.7031C206.781 92.7031 205.797 92.9688 205.812 93.5312C205.797 94.0938 206.781 94.3906 208.531 94.375C210.312 94.3906 211.266 94.0938 211.281 93.5312C211.266 92.9688 210.312 92.7031 208.531 92.7031ZM219.75 82.375C221.844 82.375 223.328 84.2812 223.344 87.2812C223.328 90.2969 221.844 92.2031 219.75 92.2031C217.656 92.2031 216.156 90.2969 216.172 87.2812C216.156 84.2812 217.656 82.375 219.75 82.375ZM219.75 83.7031C218.469 83.7031 217.594 85.0781 217.594 87.2812C217.594 89.5 218.469 90.875 219.75 90.875C221.047 90.875 221.922 89.5 221.922 87.2812C221.922 85.0781 221.047 83.7031 219.75 83.7031ZM226.906 81.3281V86.8125H229.156V88.0625H226.906V95.3281H225.422V81.3281H226.906ZM242.641 92.3438V93.5781H229.828V92.3438H232.891V88.6875C231.742 88.0547 231.047 87.0469 231.047 85.7969C231.047 83.5938 233.203 82.1406 236.203 82.1406C239.219 82.1406 241.375 83.5938 241.375 85.7969C241.375 87.0312 240.703 88.0234 239.578 88.6562V92.3438H242.641ZM236.203 83.3281C234 83.3281 232.484 84.2812 232.484 85.7969C232.484 87.2969 234 88.2812 236.203 88.2812C238.391 88.2812 239.938 87.2969 239.938 85.7969C239.938 84.2812 238.391 83.3281 236.203 83.3281ZM234.359 92.3438H238.078V89.2188C237.508 89.3672 236.875 89.4375 236.203 89.4375C235.547 89.4375 234.922 89.3672 234.359 89.2344V92.3438ZM246.172 92.9219L244.922 97.2344H243.594L244.422 92.9219H246.172ZM64.1719 114.375V119.328H62.6875V115.562H54.4219V114.375H64.1719ZM64.1719 105.328V113.703H62.6875V105.328H64.1719ZM55.7969 108.047C55.7969 109.109 56.0938 110.633 57.1406 111.672C58.1406 110.656 58.4219 109.172 58.4219 108.047V107.547H57.4531V106.344H61.4531V107.547H59.8438V108.047C59.8281 109.484 60.4375 111.266 62.0469 112.109L61.2656 113.172C60.1797 112.602 59.5156 111.625 59.1406 110.516C58.8203 111.641 58.2109 112.695 57.125 113.312C56.0547 112.688 55.4375 111.641 55.1094 110.531C54.7344 111.625 54.0703 112.609 53 113.172L52.2031 112.109C53.7969 111.25 54.4219 109.453 54.4219 108.047V107.547H52.7188V106.344H56.7969V107.547H55.7969V108.047ZM78.9531 112.641V113.828H66.1875V112.641H78.9531ZM77.5156 117.828V119.031H67.7969V114.969H69.2969V117.828H77.5156ZM72.5625 105.797C75.5938 105.781 77.5625 106.844 77.5625 108.594C77.5625 110.359 75.5938 111.422 72.5625 111.438C69.5156 111.422 67.5625 110.359 67.5625 108.594C67.5625 106.844 69.5156 105.781 72.5625 105.797ZM72.5625 106.984C70.4219 106.984 69.0781 107.594 69.0938 108.594C69.0781 109.625 70.4219 110.219 72.5625 110.219C74.7031 110.219 76.0312 109.625 76.0312 108.594C76.0312 107.594 74.7031 106.984 72.5625 106.984ZM88.7812 108.891C88.7656 111.375 90.2031 113.906 92.2969 114.922L91.375 116.109C89.8516 115.32 88.6719 113.75 88.0625 111.875C87.4297 113.875 86.2031 115.547 84.6094 116.375L83.6875 115.172C85.8438 114.141 87.2969 111.453 87.2969 108.891V106.5H88.7812V108.891ZM94.8281 105.328V110.906H97.0781V112.172H94.8281V119.328H93.3438V105.328H94.8281ZM108.75 105.344V108.828H110.797V110.078H108.75V113.672H107.266V105.344H108.75ZM108.75 114.328V119.156H99.7812V114.328H108.75ZM101.234 115.484V117.953H107.312V115.484H101.234ZM104.688 106.078V110.031H99.8125V111.781C102.242 111.773 103.961 111.703 106 111.359L106.156 112.547C103.984 112.938 102.141 113.016 99.4531 113.016H98.3281V108.906H103.234V107.266H98.3125V106.078H104.688ZM123.625 105.328V119.328H122.203V105.328H123.625ZM120.781 105.594V118.641H119.359V111.891H117.781C117.656 114.625 116.484 116.328 114.75 116.312C112.922 116.328 111.734 114.406 111.734 111.375C111.734 108.344 112.922 106.438 114.75 106.453C116.453 106.438 117.609 108.055 117.781 110.688H119.359V105.594H120.781ZM114.75 107.844C113.734 107.844 113.109 109.141 113.109 111.375C113.109 113.609 113.734 114.906 114.75 114.906C115.781 114.906 116.422 113.609 116.422 111.375C116.422 109.141 115.781 107.844 114.75 107.844ZM137.438 105.328V119.328H136.031V105.328H137.438ZM134.484 105.688V118.641H133.078V112.141H130.344C129.508 113.766 128.18 115.188 126.203 116.344L125.359 115.281C128.328 113.516 129.758 111.164 130.016 108.281H126.016V107.062H131.484C131.477 108.43 131.289 109.734 130.859 110.953H133.078V105.688H134.484ZM145.625 105.922V107.734H147.578V105.922H149V112.016H144.188V105.922H145.625ZM145.625 110.812H147.578V108.922H145.625V110.812ZM151.469 105.922V107.734H153.422V105.922H154.859V112.016H150.016V105.922H151.469ZM151.469 110.812H153.422V108.922H151.469V110.812ZM155.938 113.453V114.688H150.219V119.328H148.766V114.688H143.125V113.453H155.938ZM169.75 112.016V113.219H156.969V112.016H169.75ZM168.328 109.484V110.688H158.562V105.812H168.188V107.031H160.047V109.484H168.328ZM164.109 114.594C164.109 116.328 166.062 117.719 168.812 118.094L168.25 119.25C166.047 118.906 164.219 117.945 163.375 116.516C162.508 117.945 160.688 118.906 158.484 119.25L157.938 118.094C160.656 117.719 162.609 116.328 162.609 114.594V114.203H164.109V114.594ZM181.797 105.328V108.953H183.828V110.219H181.797V113.766H180.312V105.328H181.797ZM181.797 114.5V119.156H172.859V114.5H181.797ZM174.312 115.672V117.953H180.328V115.672H174.312ZM179.156 106.75V107.938H170.812V106.75H174.25V105.219H175.734V106.75H179.156ZM174.984 108.547C177 108.547 178.375 109.547 178.375 111.047C178.375 112.562 177 113.547 174.984 113.562C172.938 113.547 171.578 112.562 171.578 111.047C171.578 109.547 172.938 108.547 174.984 108.547ZM174.984 109.688C173.797 109.672 173 110.203 173.016 111.047C173 111.922 173.797 112.438 174.984 112.438C176.172 112.438 176.969 111.922 176.984 111.047C176.969 110.203 176.172 109.672 174.984 109.688ZM196.219 105.328V119.359H194.734V105.328H196.219ZM188.734 106.375C190.812 106.375 192.344 108.281 192.344 111.281C192.344 114.297 190.812 116.203 188.734 116.203C186.625 116.203 185.109 114.297 185.109 111.281C185.109 108.281 186.625 106.375 188.734 106.375ZM188.734 107.703C187.438 107.703 186.547 109.078 186.547 111.281C186.547 113.5 187.438 114.875 188.734 114.875C190.016 114.875 190.906 113.5 190.906 111.281C190.906 109.078 190.016 107.703 188.734 107.703ZM214.031 105.344V115.594H212.547V110.328H209.875V109.125H212.547V105.344H214.031ZM214.406 117.828V119.031H204.938V114.672H206.422V117.828H214.406ZM207.375 108.172C207.375 109.922 208.641 111.672 210.75 112.375L209.984 113.562C208.414 113.008 207.25 111.883 206.641 110.5C206.031 112.039 204.805 113.281 203.141 113.875L202.375 112.672C204.531 111.938 205.859 110.094 205.859 108.172V107.625H202.828V106.406H210.375V107.625H207.375V108.172ZM223.109 107.641V108.844H216.156V107.641H218.906V105.734H220.375V107.641H223.109ZM219.641 109.688C221.422 109.688 222.672 111.016 222.688 112.906C222.672 114.812 221.422 116.156 219.641 116.156C217.891 116.156 216.594 114.812 216.609 112.906C216.594 111.016 217.891 109.688 219.641 109.688ZM219.641 110.922C218.625 110.922 217.922 111.75 217.922 112.906C217.922 114.094 218.625 114.891 219.641 114.891C220.641 114.891 221.375 114.094 221.375 112.906C221.375 111.75 220.641 110.922 219.641 110.922ZM228.172 105.328V119.328H226.766V112.375H225.156V118.672H223.75V105.641H225.156V111.156H226.766V105.328H228.172ZM241.703 105.328V119.328H240.219V113.438H237.531V112.203H240.219V110.469H237.531V109.234H240.219V105.328H241.703ZM235.016 109.266C235.016 111.453 236.516 114.125 238.609 115.172L237.719 116.312C236.18 115.523 234.938 113.844 234.312 111.953C233.688 114.023 232.43 115.797 230.875 116.656L229.891 115.531C232 114.484 233.5 111.781 233.516 109.266V107.953H230.422V106.734H238.094V107.953H235.016V109.266ZM256.656 116.344V117.578H243.844V116.344H246.906V112.688C245.758 112.055 245.062 111.047 245.062 109.797C245.062 107.594 247.219 106.141 250.219 106.141C253.234 106.141 255.391 107.594 255.391 109.797C255.391 111.031 254.719 112.023 253.594 112.656V116.344H256.656ZM250.219 107.328C248.016 107.328 246.5 108.281 246.5 109.797C246.5 111.297 248.016 112.281 250.219 112.281C252.406 112.281 253.953 111.297 253.953 109.797C253.953 108.281 252.406 107.328 250.219 107.328ZM248.375 116.344H252.094V113.219C251.523 113.367 250.891 113.438 250.219 113.438C249.562 113.438 248.938 113.367 248.375 113.234V116.344Z" fill="#424349"/>
<g filter="url(#filter0_d_5086_42392)">
<path d="M217.636 253.827L154.904 224.719L97.2558 232.139C97.2558 232.139 91.8716 233.84 92.4383 242C93.005 250.16 99.3766 252.47 99.3766 252.47L154.751 282.046C157.136 283.32 159.992 283.344 162.398 282.112L217.636 253.827Z" fill="url(#paint0_linear_5086_42392)"/>
<path d="M95.3789 239.213C95.3789 234.411 96.3394 234.182 98.3438 233.033L213.485 237.847V250.694C213.485 252.241 212.619 253.658 211.242 254.364L162.815 279.198C160.462 280.404 157.679 280.415 155.329 279.204C137.299 269.92 107.343 253.722 102.665 251.044C97.6451 248.171 95.3789 244.015 95.3789 239.213Z" fill="url(#paint1_linear_5086_42392)"/>
<path fill-rule="evenodd" clip-rule="evenodd" d="M213.295 232.975L213.315 232.784C213.315 232.784 217.814 231.947 218.268 232.167C218.721 232.388 219.001 233.002 219.001 233.644C219.001 234.445 218.664 235.081 218.268 235.283C218.265 235.285 218.26 235.285 218.257 235.286L163.657 263.237C161.285 264.451 158.471 264.444 156.105 263.219L98.9835 233.645C96.5285 232.54 94.1183 233.774 93.4639 237.608C92.8036 241.477 93.6673 245.107 95.2549 247.389C97.6866 250.884 103.103 254.213 107.723 256.422L107.707 256.429L155.151 281.756C157.533 283.027 160.386 283.053 162.79 281.824L217.607 253.814C218.184 254.111 218.669 254.636 218.702 255.499C218.744 256.578 217.589 257.11 216.721 257.589C216.07 257.948 182.433 274.719 162.565 284.619C160.2 285.798 157.414 285.772 155.071 284.55L104.431 258.146L104.433 258.144C101.75 256.791 94.651 253.061 92.0421 248.189C89.0596 242.618 90.0913 237.414 90.5782 235.602C91.054 233.832 94.0227 228.136 100.433 231.255L155.532 206.162L213.295 232.975Z" fill="url(#paint2_linear_5086_42392)"/>
<path d="M94.4129 230.912L93.9141 231.139C93.9141 231.139 94.0918 231.038 94.4129 230.912L150.353 205.402C153.641 203.903 157.42 203.915 160.698 205.437L218.268 232.16L163.656 260.115C161.285 261.329 158.48 261.327 156.114 260.102C143.538 253.597 103.596 232.932 100.544 231.329C97.7996 229.888 95.412 230.519 94.4129 230.912Z" fill="url(#paint3_linear_5086_42392)"/>
<rect x="160.672" y="153.373" width="49.5967" height="50.569" rx="3.96" transform="rotate(9.45587 160.672 153.373)" fill="url(#paint4_linear_5086_42392)"/>
<g opacity="0.5">
<path d="M183.805 179.02C184.413 178.432 185.416 178.599 185.8 179.352L189.66 186.916C190.13 187.836 189.352 188.898 188.334 188.728L172.917 186.16C171.869 185.985 171.496 184.671 172.296 183.972L176.789 180.048C177.386 179.526 178.31 179.68 178.706 180.367L180.031 182.668L183.805 179.02Z" fill="url(#paint5_linear_5086_42392)"/>
<circle cx="178.999" cy="175.476" r="2.08523" transform="rotate(9.46 178.999 175.476)" fill="#FFDD71"/>
</g>
<rect x="120.59" y="183.993" width="49.5967" height="50.569" rx="3.96" transform="rotate(-4.91322 120.59 183.993)" fill="url(#paint6_linear_5086_42392)"/>
<g opacity="0.7">
<path fill-rule="evenodd" clip-rule="evenodd" d="M149.036 204.671C149.479 203.951 150.491 203.864 151.05 204.498L156.668 210.866C157.351 211.64 156.86 212.864 155.832 212.952L140.26 214.29C139.202 214.38 138.514 213.199 139.116 212.324L142.494 207.407C142.942 206.754 143.877 206.674 144.431 207.241L146.286 209.141L149.036 204.671Z" fill="url(#paint7_linear_5086_42392)"/>
<circle cx="143.502" cy="202.431" r="2.08523" transform="rotate(-4.91 143.502 202.431)" fill="#FFDD71"/>
</g>
<ellipse cx="124.652" cy="180.629" rx="21.6509" ry="21.2619" transform="rotate(122.418 124.652 180.629)" fill="#D9D9D9"/>
<ellipse cx="124.652" cy="180.629" rx="21.6509" ry="21.2619" transform="rotate(122.418 124.652 180.629)" fill="url(#paint8_linear_5086_42392)"/>
<ellipse cx="122.499" cy="179.234" rx="21.6509" ry="21.2619" transform="rotate(122.418 122.499 179.234)" fill="url(#paint9_linear_5086_42392)"/>
<path d="M140.447 190.632C134.037 200.726 120.805 203.805 110.892 197.51C100.98 191.215 98.1401 177.929 104.55 167.835C110.961 157.741 124.193 154.662 134.105 160.957C144.018 167.252 146.857 180.538 140.447 190.632ZM112.669 194.713C121.063 200.044 132.27 197.436 137.699 188.888C143.128 180.339 140.723 169.087 132.329 163.756C123.934 158.425 112.727 161.033 107.299 169.581C101.87 178.129 104.274 189.381 112.669 194.713Z" fill="#D9D9D9"/>
<path d="M140.447 190.632C134.037 200.726 120.805 203.805 110.892 197.51C100.98 191.215 98.1401 177.929 104.55 167.835C110.961 157.741 124.193 154.662 134.105 160.957C144.018 167.252 146.857 180.538 140.447 190.632ZM112.669 194.713C121.063 200.044 132.27 197.436 137.699 188.888C143.128 180.339 140.723 169.087 132.329 163.756C123.934 158.425 112.727 161.033 107.299 169.581C101.87 178.129 104.274 189.381 112.669 194.713Z" fill="url(#paint10_linear_5086_42392)"/>
<g filter="url(#filter1_i_5086_42392)">
<ellipse cx="123.635" cy="179.957" rx="18.3357" ry="16.6589" transform="rotate(122.418 123.635 179.957)" fill="url(#paint11_linear_5086_42392)"/>
</g>
<g filter="url(#filter2_d_5086_42392)">
<path fill-rule="evenodd" clip-rule="evenodd" d="M122.353 172.033C123.697 173.005 124.432 174.774 124.071 176.324C125.237 174.026 127.93 173.013 130.277 173.992L130.379 173.703L131.486 174.712C133.77 176.585 133.508 180.611 130.914 183.411C128.237 186.301 124.566 188.01 120.067 189.19V189.192L120.065 189.191L120.063 189.192C120.062 189.191 120.061 189.189 120.06 189.188L118.635 188.386L118.99 187.759C117.54 185.71 116.025 183.062 115.452 180.413C114.735 177.092 115.452 172.619 118.791 171.517C119.591 171.253 120.346 171.241 121.023 171.41L121.193 171.07L122.353 172.033Z" fill="url(#paint12_linear_5086_42392)"/>
</g>
<g filter="url(#filter3_i_5086_42392)">
<path d="M117.327 170.358C120.733 169.234 123.337 172.571 122.712 175.261C124.071 172.582 127.464 171.616 130.041 173.439C132.618 175.261 132.422 179.542 129.691 182.489C126.96 185.437 123.215 187.181 118.625 188.385C116.894 186.203 114.654 182.818 113.922 179.432C113.19 176.045 113.922 171.482 117.327 170.358Z" fill="url(#paint13_linear_5086_42392)"/>
</g>
</g>
<defs>
<filter id="filter0_d_5086_42392" x="42" y="109.5" width="225" height="225" filterUnits="userSpaceOnUse" color-interpolation-filters="sRGB">
<feFlood flood-opacity="0" result="BackgroundImageFix"/>
<feColorMatrix in="SourceAlpha" type="matrix" values="0 0 0 0 0 0 0 0 0 0 0 0 0 0 0 0 0 0 127 0" result="hardAlpha"/>
<feOffset dy="3"/>
<feGaussianBlur stdDeviation="18.75"/>
<feComposite in2="hardAlpha" operator="out"/>
<feColorMatrix type="matrix" values="0 0 0 0 0.878431 0 0 0 0 0.6 0 0 0 0 0 0 0 0 0.1 0"/>
<feBlend mode="normal" in2="BackgroundImageFix" result="effect1_dropShadow_5086_42392"/>
<feBlend mode="normal" in="SourceGraphic" in2="effect1_dropShadow_5086_42392" result="shape"/>
</filter>
<filter id="filter1_i_5086_42392" x="106.477" y="162.084" width="36.8384" height="38.7699" filterUnits="userSpaceOnUse" color-interpolation-filters="sRGB">
<feFlood flood-opacity="0" result="BackgroundImageFix"/>
<feBlend mode="normal" in="SourceGraphic" in2="BackgroundImageFix" result="shape"/>
<feColorMatrix in="SourceAlpha" type="matrix" values="0 0 0 0 0 0 0 0 0 0 0 0 0 0 0 0 0 0 127 0" result="hardAlpha"/>
<feOffset dx="2.52" dy="3.78"/>
<feGaussianBlur stdDeviation="1.512"/>
<feComposite in2="hardAlpha" operator="arithmetic" k2="-1" k3="1"/>
<feColorMatrix type="matrix" values="0 0 0 0 0 0 0 0 0 0 0 0 0 0 0 0 0 0 0.06 0"/>
<feBlend mode="normal" in2="shape" result="effect1_innerShadow_5086_42392"/>
</filter>
<filter id="filter2_d_5086_42392" x="115.199" y="171.07" width="20.1118" height="20.3901" filterUnits="userSpaceOnUse" color-interpolation-filters="sRGB">
<feFlood flood-opacity="0" result="BackgroundImageFix"/>
<feColorMatrix in="SourceAlpha" type="matrix" values="0 0 0 0 0 0 0 0 0 0 0 0 0 0 0 0 0 0 127 0" result="hardAlpha"/>
<feOffset dx="1.26" dy="1.26"/>
<feGaussianBlur stdDeviation="0.504"/>
<feComposite in2="hardAlpha" operator="out"/>
<feColorMatrix type="matrix" values="0 0 0 0 0 0 0 0 0 0 0 0 0 0 0 0 0 0 0.14 0"/>
<feBlend mode="normal" in2="BackgroundImageFix" result="effect1_dropShadow_5086_42392"/>
<feBlend mode="normal" in="SourceGraphic" in2="effect1_dropShadow_5086_42392" result="shape"/>
</filter>
<filter id="filter3_i_5086_42392" x="113.664" y="168.874" width="18.1973" height="19.511" filterUnits="userSpaceOnUse" color-interpolation-filters="sRGB">
<feFlood flood-opacity="0" result="BackgroundImageFix"/>
<feBlend mode="normal" in="SourceGraphic" in2="BackgroundImageFix" result="shape"/>
<feColorMatrix in="SourceAlpha" type="matrix" values="0 0 0 0 0 0 0 0 0 0 0 0 0 0 0 0 0 0 127 0" result="hardAlpha"/>
<feOffset dy="-1.26"/>
<feGaussianBlur stdDeviation="0.693"/>
<feComposite in2="hardAlpha" operator="arithmetic" k2="-1" k3="1"/>
<feColorMatrix type="matrix" values="0 0 0 0 1 0 0 0 0 1 0 0 0 0 1 0 0 0 0.41 0"/>
<feBlend mode="normal" in2="shape" result="effect1_innerShadow_5086_42392"/>
</filter>
<linearGradient id="paint0_linear_5086_42392" x1="168.778" y1="285.852" x2="108.909" y2="220.319" gradientUnits="userSpaceOnUse">
<stop stop-color="#FFB700"/>
<stop offset="1" stop-color="#664200"/>
</linearGradient>
<linearGradient id="paint1_linear_5086_42392" x1="149.12" y1="251.778" x2="154.432" y2="280.595" gradientUnits="userSpaceOnUse">
<stop stop-color="#E5E5E7"/>
<stop offset="1" stop-color="white"/>
</linearGradient>
<linearGradient id="paint2_linear_5086_42392" x1="156.402" y1="210.533" x2="140.152" y2="280.748" gradientUnits="userSpaceOnUse">
<stop stop-color="#FFB700"/>
<stop offset="1" stop-color="#996300"/>
</linearGradient>
<linearGradient id="paint3_linear_5086_42392" x1="156.091" y1="203.04" x2="156.091" y2="262.049" gradientUnits="userSpaceOnUse">
<stop stop-color="#FFB700"/>
<stop offset="1" stop-color="#FFE894"/>
</linearGradient>
<linearGradient id="paint4_linear_5086_42392" x1="174.114" y1="204.154" x2="197.256" y2="175.581" gradientUnits="userSpaceOnUse">
<stop stop-color="#F7F7F8"/>
<stop offset="1" stop-color="white"/>
</linearGradient>
<linearGradient id="paint5_linear_5086_42392" x1="189.038" y1="189.984" x2="170.092" y2="183.88" gradientUnits="userSpaceOnUse">
<stop stop-color="#FFCD14"/>
<stop offset="1" stop-color="#FFDC5C"/>
</linearGradient>
<linearGradient id="paint6_linear_5086_42392" x1="160.774" y1="225.21" x2="160.019" y2="131.617" gradientUnits="userSpaceOnUse">
<stop stop-color="white"/>
<stop offset="1" stop-color="#F1F2F3"/>
</linearGradient>
<linearGradient id="paint7_linear_5086_42392" x1="156.827" y1="213.993" x2="136.958" y2="212.782" gradientUnits="userSpaceOnUse">
<stop stop-color="#FFCD14"/>
<stop offset="1" stop-color="#FFDC5C"/>
</linearGradient>
<linearGradient id="paint8_linear_5086_42392" x1="106.853" y1="168.715" x2="140.097" y2="170.277" gradientUnits="userSpaceOnUse">
<stop stop-color="#FFDC5C"/>
<stop offset="1" stop-color="#996300"/>
</linearGradient>
<linearGradient id="paint9_linear_5086_42392" x1="100.848" y1="179.234" x2="144.15" y2="179.234" gradientUnits="userSpaceOnUse">
<stop stop-color="#996300"/>
<stop offset="1" stop-color="#FFCD14"/>
</linearGradient>
<linearGradient id="paint10_linear_5086_42392" x1="141.782" y1="171.059" x2="83.7259" y2="193.467" gradientUnits="userSpaceOnUse">
<stop stop-color="#FFF2C2"/>
<stop offset="1" stop-color="#FFB700"/>
</linearGradient>
<linearGradient id="paint11_linear_5086_42392" x1="117.605" y1="195.493" x2="139.725" y2="159.762" gradientUnits="userSpaceOnUse">
<stop stop-color="#F1F2F3"/>
<stop offset="1" stop-color="white"/>
</linearGradient>
<linearGradient id="paint12_linear_5086_42392" x1="134.939" y1="174.75" x2="124.121" y2="189.193" gradientUnits="userSpaceOnUse">
<stop stop-color="#FFB700"/>
<stop offset="1" stop-color="#996300"/>
</linearGradient>
<linearGradient id="paint13_linear_5086_42392" x1="124.151" y1="185.727" x2="115.4" y2="172.865" gradientUnits="userSpaceOnUse">
<stop stop-color="#FFB700"/>
<stop offset="1" stop-color="#FFCD14"/>
</linearGradient>
</defs>
</svg>
