<svg width="338" height="87" viewBox="0 0 338 87" fill="none" xmlns="http://www.w3.org/2000/svg">
<path d="M169 87H320C329.941 87 338 78.9411 338 69C338 59.0589 329.941 51 320 51H187C177.059 51 169 59.0589 169 69V87Z" fill="#FFDC5C"/>
<path d="M190.148 63.0625C193.18 63.0703 195.422 64.5781 195.414 66.875C195.422 68.9922 193.602 70.4062 191.008 70.6641V73.25H196.633V74.6719H183.727V73.25H189.289V70.6641C186.727 70.4062 184.906 68.9922 184.914 66.875C184.906 64.5781 187.141 63.0703 190.148 63.0625ZM186.617 66.875C186.609 68.3984 188.086 69.3125 190.148 69.3125C192.242 69.3125 193.711 68.3984 193.711 66.875C193.711 65.3984 192.242 64.4609 190.148 64.4688C188.086 64.4609 186.609 65.3984 186.617 66.875ZM208.961 65.3125V66.7031H199.211V62.4531H200.914V65.3125H208.961ZM197.539 69.1719V67.7812H210.445V69.1719H197.539ZM199.07 71.5V70.1562H208.867V73.7656H200.836V74.8594H209.336V76.2188H199.086V72.5H207.148V71.5H199.07ZM227.18 71.3438V76.3906H225.445V72.7188H217.227V71.3438H227.18ZM214.961 69.0312C216.562 68.1641 217.133 66.4141 217.133 64.9062V64.6562H215.492V63.25H219.648V64.6562H218.742V64.9062C218.742 66.0156 219.008 67.4531 219.969 68.5C220.891 67.4766 221.141 66.0547 221.148 64.9062V64.6562H220.258V63.25H224.32V64.6562H222.805V64.9062C222.797 66.4297 223.352 68.1875 224.961 69.0312L224.055 70.2656C223 69.7031 222.352 68.7734 221.984 67.6953C221.641 68.7969 221.023 69.8047 219.961 70.4062C218.914 69.8047 218.297 68.8125 217.945 67.7344C217.578 68.7969 216.93 69.7188 215.883 70.2656L214.961 69.0312ZM225.445 70.6875V62.2656H227.18V70.6875H225.445ZM241.883 69.5625V70.9531H229.008V69.5625H241.883ZM230.336 65.5781C230.336 63.7891 232.344 62.7109 235.43 62.7188C238.508 62.7109 240.516 63.7891 240.523 65.5781C240.516 67.375 238.508 68.4688 235.43 68.4688C232.344 68.4688 230.336 67.375 230.336 65.5781ZM230.602 76.1094V72H232.336V74.7031H240.43V76.1094H230.602ZM232.148 65.5781C232.133 66.5391 233.375 67.0547 235.43 67.0469C237.492 67.0547 238.727 66.5391 238.727 65.5781C238.727 64.6484 237.492 64.1094 235.43 64.1094C233.375 64.1094 232.133 64.6484 232.148 65.5781ZM251.68 65.6562C251.664 68.1797 252.93 70.7266 255.117 71.7812L254.055 73.1719C252.523 72.3984 251.422 70.9062 250.82 69.1094C250.203 71.0312 249.047 72.625 247.43 73.4375L246.367 72.0469C248.641 70.9688 249.938 68.2656 249.945 65.6562V63.4062H251.68V65.6562ZM255.961 76.3906V62.2656H257.695V67.7969H259.867V69.2812H257.695V76.3906H255.961ZM265.82 65.1406C265.82 66.8984 267.023 68.6172 269.273 69.3125L268.383 70.6719C266.781 70.1562 265.617 69.0938 264.969 67.75C264.336 69.2109 263.133 70.375 261.461 70.9531L260.57 69.5781C262.844 68.8281 264.055 67 264.07 65.1406V64.7344H261.023V63.3438H268.789V64.7344H265.82V65.1406ZM262.883 76.1094V71.5938H264.633V74.7031H272.617V76.1094H262.883ZM270.477 72.5312V62.2812H272.227V72.5312H270.477ZM290.992 73.2656V74.6875H278.086V73.2656H283.648V70.5156H279.508V63.2031H281.242V65.5156H287.789V63.2031H289.523V70.5156H285.367V73.2656H290.992ZM281.242 69.1094H287.789V66.9062H281.242V69.1094ZM304.039 62.2656V76.3906H302.367V69.25H300.805V75.6719H299.18V62.5312H300.805V67.8281H302.367V62.2656H304.039ZM292.523 72.875V63.8906H294.273V71.3438C295.492 71.3203 296.82 71.2109 298.305 70.9219L298.477 72.4375C296.57 72.7734 294.953 72.875 293.461 72.875H292.523ZM311.195 64.6562C311.195 65.7891 312.383 66.8594 314.508 67.2031L313.82 68.5312C312.172 68.2344 310.977 67.5 310.328 66.5234C309.688 67.5859 308.461 68.3828 306.711 68.7188L306.008 67.375C308.227 67 309.414 65.875 309.414 64.6562V64.5938H306.555V63.2188H314.07V64.5938H311.195V64.6562ZM305.68 69.6406C308.289 69.6406 311.836 69.6094 314.898 69.1875L315.008 70.4688C313.727 70.6953 312.398 70.8438 311.102 70.9297V75.9531H309.352V71.0234C308.109 71.0703 306.938 71.0781 305.898 71.0781L305.68 69.6406ZM312.898 73.2188V71.8906H315.898V62.2812H317.664V76.375H315.898V73.2188H312.898ZM322.477 63.6875L322.305 71.6719H320.539L320.352 63.6875H322.477ZM320.211 73.9062C320.203 73.25 320.758 72.7109 321.43 72.7031C322.078 72.7109 322.633 73.25 322.633 73.9062C322.633 74.5781 322.078 75.125 321.43 75.125C320.758 75.125 320.203 74.5781 320.211 73.9062Z" fill="#996300"/>
<path d="M155 87H18C8.05888 87 0 78.9411 0 69C0 59.0589 8.05887 51 18 51H137C146.941 51 155 59.0589 155 69V87Z" fill="#FFB700"/>
<path d="M26.3906 62.2656V76.4062H24.6406V62.2656H26.3906ZM15.0938 68.2812C15.0859 65.2344 16.6406 63.2969 18.7812 63.2969C20.8984 63.2969 22.4609 65.2344 22.4688 68.2812C22.4609 71.3516 20.8984 73.2812 18.7812 73.2812C16.6406 73.2812 15.0859 71.3516 15.0938 68.2812ZM16.7656 68.2812C16.7656 70.4531 17.5859 71.7109 18.7812 71.7188C19.9688 71.7109 20.7812 70.4531 20.7812 68.2812C20.7812 66.125 19.9688 64.8594 18.7812 64.8594C17.5859 64.8594 16.7656 66.125 16.7656 68.2812ZM40.2969 62.2656V76.3906H38.5625V69.2031H35.5781V67.7812H38.5625V62.2656H40.2969ZM28.375 72.4844C32.0312 70.6875 33.6016 68.3047 33.8906 65.1406H29.0312V63.7656H35.6406C35.625 67.9375 34.1484 71.4453 29.2812 73.8438L28.375 72.4844ZM50.3594 62.875C52.4219 62.875 53.8906 64.0234 53.9062 65.7188C53.8906 67.125 52.8359 68.1797 51.2656 68.4688V69.6094C52.4453 69.5391 53.625 69.4375 54.7188 69.2812L54.8594 70.5469C51.9219 71.0703 48.6406 71.1328 46.25 71.125L46.0625 69.7344C47.0781 69.7344 48.2656 69.7266 49.5156 69.6875V68.4766C47.8984 68.2031 46.8203 67.1484 46.8281 65.7188C46.8203 64.0234 48.2891 62.875 50.3594 62.875ZM48 76.0938V72.1094H49.7344V74.6875H57.7812V76.0938H48ZM48.4531 65.7188C48.4375 66.6484 49.2344 67.2266 50.3594 67.2344C51.4922 67.2266 52.2578 66.6484 52.2656 65.7188C52.2578 64.7656 51.4922 64.2031 50.3594 64.2031C49.2344 64.2031 48.4375 64.7656 48.4531 65.7188ZM55.5469 73.0625V62.2812H57.2812V66.8438H59.1875V68.2812H57.2812V73.0625H55.5469ZM71.75 62.2812V72.5938H70.0156V67.4219H67.5156V66.0156H70.0156V62.2812H71.75ZM59.8906 69.5469C62.1406 68.8047 63.3438 66.9609 63.3438 65.0781V64.7031H60.4062V63.2969H68.0312V64.7031H65.1094V65.0938C65.1094 66.7891 66.25 68.5469 68.4375 69.2656L67.5625 70.6562C65.9844 70.1172 64.8672 69.0391 64.25 67.7031C63.6328 69.1875 62.4531 70.375 60.7812 70.9531L59.8906 69.5469ZM62.4844 76.1094V71.6875H64.2188V74.7031H72.1094V76.1094H62.4844ZM85.5156 62.9844V64.3594H82.5938C82.6172 65.8906 83.7812 67.3828 85.9844 68.0156L85.1562 69.3438C83.5469 68.8984 82.3828 67.9297 81.7422 66.7031C81.1172 68.1016 79.9141 69.1875 78.1875 69.6875L77.3438 68.3281C79.6016 67.6641 80.8047 66.0391 80.8438 64.3594H77.8438V62.9844H85.5156ZM79.4531 71.4375V70.1094H88.6875V73.7188H81.1875V74.9062H89.125V76.25H79.4688V72.4844H86.9531V71.4375H79.4531ZM86.9531 69.5156V62.2656H88.6875V65.1562H90.6562V66.5625H88.6875V69.5156H86.9531ZM107.172 71.3438V76.3906H105.438V72.7188H97.2188V71.3438H107.172ZM94.9531 69.0312C96.5547 68.1641 97.125 66.4141 97.125 64.9062V64.6562H95.4844V63.25H99.6406V64.6562H98.7344V64.9062C98.7344 66.0156 99 67.4531 99.9609 68.5C100.883 67.4766 101.133 66.0547 101.141 64.9062V64.6562H100.25V63.25H104.312V64.6562H102.797V64.9062C102.789 66.4297 103.344 68.1875 104.953 69.0312L104.047 70.2656C102.992 69.7031 102.344 68.7734 101.977 67.6953C101.633 68.7969 101.016 69.8047 99.9531 70.4062C98.9062 69.8047 98.2891 68.8125 97.9375 67.7344C97.5703 68.7969 96.9219 69.7188 95.875 70.2656L94.9531 69.0312ZM105.438 70.6875V62.2656H107.172V70.6875H105.438ZM114.172 71.4219C114.156 72.6172 114.695 73.8516 115.914 74.6484C117.141 73.7969 117.688 72.4922 117.703 71.4219V70.7656H119.406V71.4219C119.398 72.8984 120.266 74.3125 122.156 74.9062L121.281 76.2031C119.906 75.7188 119.008 74.8125 118.523 73.6719C118.055 74.7891 117.219 75.7891 115.922 76.3125C114.609 75.8203 113.766 74.8672 113.312 73.7344C112.805 74.8203 111.914 75.7188 110.609 76.2031L109.766 74.9062C111.594 74.2812 112.477 72.8203 112.484 71.4219V70.7656H114.172V71.4219ZM109.188 66.375C109.188 64.4219 110.781 63.0156 112.922 63.0156C114.727 63.0156 116.18 64.0781 116.539 65.6406H119.094V62.2656H120.828V70.2344H119.094V67.0469H116.555C116.227 68.6562 114.758 69.7422 112.922 69.7344C110.781 69.7422 109.188 68.3438 109.188 66.375ZM110.859 66.375C110.852 67.5234 111.727 68.2891 112.922 68.2969C114.086 68.2891 114.953 67.5234 114.953 66.375C114.953 65.2109 114.086 64.4688 112.922 64.4688C111.727 64.4688 110.852 65.2109 110.859 66.375ZM133.891 62.2656V67.625H136.062V69.0469H133.891V76.4062H132.156V62.2656H133.891ZM123.406 72.9531V63.6094H130.016V65.0156H125.141V71.5C127.336 71.4922 129.078 71.3828 131.016 71.0469L131.219 72.5156C129.023 72.8906 127.125 72.9531 124.578 72.9531H123.406ZM139.562 63.6875L139.391 71.6719H137.625L137.438 63.6875H139.562ZM137.297 73.9062C137.289 73.25 137.844 72.7109 138.516 72.7031C139.164 72.7109 139.719 73.25 139.719 73.9062C139.719 74.5781 139.164 75.125 138.516 75.125C137.844 75.125 137.289 74.5781 137.297 73.9062Z" fill="white"/>
<path d="M69 18C69 27.9411 77.0589 36 87 36H251C260.941 36 269 27.9411 269 18C269 8.05887 260.941 0 251 0H87C77.0589 0 69 8.05887 69 18Z" fill="#FFF2C2"/>
<path d="M95.3359 11.2812V21.4844H93.5859V11.2812H95.3359ZM83.8203 15.7344C83.8203 13.6797 85.4844 12.2109 87.6328 12.2031C89.7812 12.2109 91.4375 13.6797 91.4297 15.7344C91.4375 17.8203 89.7812 19.2812 87.6328 19.2812C85.4844 19.2812 83.8203 17.8203 83.8203 15.7344ZM85.5234 15.7344C85.5156 16.9844 86.4219 17.7656 87.6328 17.7656C88.8125 17.7656 89.7266 16.9844 89.7266 15.7344C89.7266 14.5156 88.8125 13.7188 87.6328 13.7188C86.4219 13.7188 85.5156 14.5156 85.5234 15.7344ZM85.9922 25.1094V20.4531H87.7422V23.7031H95.7266V25.1094H85.9922ZM104.695 13.2031C104.695 15.3828 106.828 17.5781 109.789 18.0938L109.008 19.5469C106.641 19.0547 104.703 17.6172 103.781 15.7188C102.852 17.6016 100.914 19.0469 98.5547 19.5469L97.7891 18.0938C100.703 17.5625 102.844 15.375 102.852 13.2031V12.1562H104.695V13.2031ZM97.3984 23.5938V22.1562H110.305V23.5938H97.3984ZM118.477 12.4844V13.9062H113.57V16.4219H118.227V17.7969H113.57V20.7031C115.742 20.6953 117.445 20.6016 119.414 20.2812L119.57 21.6875C117.406 22.0391 115.5 22.1094 112.977 22.1094H111.805V12.4844H118.477ZM120.555 25.3906V11.2656H122.289V16.7344H124.461V18.1875H122.289V25.3906H120.555ZM137.242 11.2656V25.3906H135.57V11.2656H137.242ZM125.195 17.375C125.195 14.2656 126.398 12.3359 128.242 12.3438C129.953 12.3359 131.117 13.9375 131.32 16.5781H132.68V11.5156H134.336V24.7031H132.68V17.9844H131.336C131.172 20.7422 129.992 22.4297 128.242 22.4219C126.398 22.4297 125.195 20.4922 125.195 17.375ZM126.805 17.375C126.797 19.5859 127.344 20.7734 128.242 20.7656C129.18 20.7734 129.734 19.5859 129.742 17.375C129.734 15.1719 129.18 13.9766 128.242 13.9844C127.344 13.9766 126.797 15.1719 126.805 17.375ZM146.539 12.2969C148.445 12.2969 149.859 13.8906 150.109 16.4688H152.805V11.2656H154.523V25.4062H152.805V17.875H150.125C149.938 20.6016 148.5 22.2812 146.539 22.2812C144.414 22.2812 142.906 20.3516 142.914 17.2812C142.906 14.2344 144.414 12.2969 146.539 12.2969ZM144.586 17.2812C144.578 19.4531 145.375 20.7109 146.539 20.7188C147.711 20.7109 148.5 19.4531 148.508 17.2812C148.5 15.125 147.711 13.8594 146.539 13.8594C145.375 13.8594 144.578 15.125 144.586 17.2812ZM168.836 23.7031V25.1094H158.773V20.6406H160.508V23.7031H168.836ZM156.789 19.4219V12.375H160.445V13.7812H158.492V18.0078C159.164 17.9844 159.82 17.9141 160.555 17.75L160.695 19.1562C159.523 19.4219 158.594 19.4141 157.445 19.4219H156.789ZM161.164 19.4219V12.375H165.117V13.7812H162.883V18.0234C163.969 18 164.688 17.9297 165.508 17.7344L165.68 19.1406C164.555 19.3906 163.656 19.4141 161.914 19.4219H161.164ZM164.586 16.4688V15.0625H166.758V11.2812H168.461V21.5H166.758V16.4688H164.586ZM179.18 14.6562C179.164 17.1797 180.43 19.7266 182.617 20.7812L181.555 22.1719C180.023 21.3984 178.922 19.9062 178.32 18.1094C177.703 20.0312 176.547 21.625 174.93 22.4375L173.867 21.0469C176.141 19.9688 177.438 17.2656 177.445 14.6562V12.4062H179.18V14.6562ZM183.461 25.3906V11.2656H185.195V16.7969H187.367V18.2812H185.195V25.3906H183.461ZM193.32 14.1406C193.32 15.8984 194.523 17.6172 196.773 18.3125L195.883 19.6719C194.281 19.1562 193.117 18.0938 192.469 16.75C191.836 18.2109 190.633 19.375 188.961 19.9531L188.07 18.5781C190.344 17.8281 191.555 16 191.57 14.1406V13.7344H188.523V12.3438H196.289V13.7344H193.32V14.1406ZM190.383 25.1094V20.5938H192.133V23.7031H200.117V25.1094H190.383ZM197.977 21.5312V11.2812H199.727V21.5312H197.977ZM212.008 11.4062C215.227 11.4141 217.094 12.2734 217.102 13.8281C217.094 15.2656 215.547 16.0938 212.852 16.2422V17.1406H218.461V18.5312H205.586V17.1406H211.133V16.2422C208.461 16.0938 206.914 15.2578 206.914 13.8281C206.914 12.2734 208.797 11.4141 212.008 11.4062ZM207.102 20.75V19.4375H216.852V22.8906H208.82V23.9375H217.242V25.2656H207.117V21.6562H215.148V20.75H207.102ZM208.742 13.8281C208.734 14.6094 209.859 14.9688 212.008 14.9844C214.188 14.9688 215.305 14.6094 215.305 13.8281C215.305 13.1016 214.188 12.7109 212.008 12.7031C209.859 12.7109 208.734 13.1016 208.742 13.8281ZM226.695 11.9375V15.6406H221.852V16.9219C224.492 16.9062 226.109 16.8438 228.023 16.5469L228.195 17.8594C226.109 18.2031 224.336 18.2656 221.32 18.2656H220.133V14.4062H224.977V13.2656H220.086V11.9375H226.695ZM221.805 20.5312V19.2031H231.18V22.7969H223.586V23.9219H231.602V25.2656H221.836V21.5312H229.398V20.5312H221.805ZM229.43 18.6562V11.2656H231.18V18.6562H229.43ZM244.508 11.2656V16.9062H246.461V18.3438H244.508V25.3906H242.758V11.2656H244.508ZM233.039 21.3438C235.023 19.2344 235.68 16.9922 235.82 14.1719H233.602V12.75H237.477C237.469 16.4531 236.945 19.5703 234.398 22.3281L233.039 21.3438ZM237.039 22.2812C239.055 19.875 239.625 17.2344 239.734 14.1719H237.945V12.75H241.383C241.375 16.5469 240.977 20.1719 238.43 23.2344L237.039 22.2812ZM249.461 20.5312C249.477 18.5391 250.039 17.9297 251.023 17.3281C251.688 16.8984 252.203 16.375 252.195 15.5938C252.203 14.7188 251.516 14.1562 250.664 14.1562C249.891 14.1562 249.141 14.6562 249.086 15.7031H247.133C247.188 13.6016 248.75 12.5312 250.68 12.5312C252.789 12.5312 254.234 13.7031 254.242 15.5625C254.234 16.8359 253.602 17.6641 252.586 18.2656C251.68 18.8203 251.305 19.3594 251.289 20.5312V20.6719H249.461V20.5312ZM249.211 22.9062C249.203 22.25 249.758 21.7109 250.43 21.7031C251.078 21.7109 251.633 22.25 251.633 22.9062C251.633 23.5781 251.078 24.125 250.43 24.125C249.758 24.125 249.203 23.5781 249.211 22.9062Z" fill="#996300"/>
</svg>
