<svg width="309" height="326" viewBox="0 0 309 326" fill="none" xmlns="http://www.w3.org/2000/svg">
<path d="M0 12C0 5.37258 5.37258 0 12 0H297C303.627 0 309 5.37258 309 12V314C309 320.627 303.627 326 297 326H12C5.37258 326 0 320.627 0 314V12Z" fill="#FFFBEB"/>
<path d="M106.5 46C106.5 38.268 112.768 32 120.5 32H188.5C196.232 32 202.5 38.268 202.5 46C202.5 53.732 196.232 60 188.5 60H120.5C112.768 60 106.5 53.732 106.5 46Z" fill="#FFCD14"/>
<path d="M139.047 39.2656V53.3906H137.312V39.2656H139.047ZM132.734 43.75C132.734 45.9062 134.047 48.2031 136.328 49.1562L135.375 50.4844C133.75 49.8047 132.539 48.3906 131.891 46.6875C131.258 48.4922 130.039 50 128.391 50.7188L127.453 49.375C129.703 48.375 131 46 131 43.75V43.0156H127.891V41.625H131V39.5625H132.719V41.625H135.766V43.0156H132.734V43.75ZM154.047 50.1875V51.625H141.141V50.1875H154.047ZM148.484 42.1562C148.484 44.2344 150.594 46.1094 153.531 46.5625L152.844 47.9375C150.453 47.5156 148.5 46.2422 147.594 44.4688C146.68 46.2656 144.742 47.5781 142.391 48.0156L141.703 46.6094C144.562 46.1719 146.656 44.2344 146.656 42.1562V41.9375H142.219V40.5469H152.938V41.9375H148.484V42.1562ZM157.297 40.6719V48.4375C158.68 48.4219 159.953 48.3203 161.391 48.0156L161.641 49.4844C159.844 49.875 158.297 49.9375 156.516 49.9375H155.562V40.6719H157.297ZM167.156 39.2656V53.3906H165.5V39.2656H167.156ZM164.125 39.5625V52.7188H162.484V45.2344H159.531V43.8281H162.484V39.5625H164.125ZM180.625 39.2812V48.8594H178.891V44.6875H176.219V43.2812H178.891V39.2812H180.625ZM176.781 48.125C176.766 49.875 178.516 51.4531 181.328 51.9219L180.625 53.2969C178.438 52.9219 176.75 51.8906 175.906 50.4219C175.039 51.8906 173.344 52.9297 171.156 53.3125L170.469 51.9375C173.297 51.5 175.047 49.8906 175.047 48.125V47.7188H176.781V48.125ZM176.203 40.2188C176.203 44.0781 174.359 46.75 169.75 48.2344L169.078 46.875C171.18 46.2031 172.555 45.3125 173.391 44.2031L169.312 44.5312L169.047 43.1406L174.078 42.9375C174.227 42.5234 174.32 42.0859 174.375 41.625H169.766V40.2188H176.203Z" fill="#424349"/>
<path d="M101.695 92.3438V93.5781H88.8828V92.3438H94.5234V89.1094H90.3516V82.4531H100.164V89.1094H95.9922V92.3438H101.695ZM91.7891 83.6406V87.9375H98.7109V83.6406H91.7891ZM113.93 86.4844V87.6562H104.43V82.125H113.758V83.3281H105.93V86.4844H113.93ZM115.508 89.3594V90.5625H109.789V95.2969H108.336V90.5625H102.695V89.3594H115.508ZM121.102 82.3281C123.32 82.3125 124.898 83.6875 124.914 85.6562C124.898 87.625 123.32 89 121.102 89C118.898 89 117.273 87.625 117.289 85.6562C117.273 83.6875 118.898 82.3125 121.102 82.3281ZM121.102 83.6094C119.742 83.6094 118.742 84.4219 118.758 85.6562C118.742 86.8906 119.742 87.7031 121.102 87.7031C122.461 87.7031 123.461 86.8906 123.461 85.6562C123.461 84.4219 122.461 83.6094 121.102 83.6094ZM128.117 81.3281V95.3594H126.633V81.3281H128.117ZM116.617 91.1094C119.164 91.1094 122.695 91.0781 125.758 90.6406L125.867 91.7188C122.695 92.3281 119.305 92.3438 116.805 92.3438L116.617 91.1094ZM145.273 81.3438V85.4688H147.305V86.7188H145.273V91.625H143.789V81.3438H145.273ZM145.867 93.8281V95.0312H136.398V90.6094H137.883V93.8281H145.867ZM136.273 82.3438V84.5781H139.945V82.3438H141.414V89.3125H134.82V82.3438H136.273ZM136.273 88.125H139.945V85.75H136.273V88.125ZM160.867 88.0469V89.2344H148.102V88.0469H160.867ZM154.477 90.2969C157.492 90.2812 159.305 91.1875 159.305 92.8125C159.305 94.4375 157.492 95.3281 154.477 95.3281C151.43 95.3281 149.617 94.4375 149.617 92.8125C149.617 91.1875 151.43 90.2812 154.477 90.2969ZM154.477 91.4219C152.336 91.4219 151.117 91.9062 151.117 92.8125C151.117 93.6875 152.336 94.1719 154.477 94.1719C156.586 94.1719 157.82 93.6875 157.82 92.8125C157.82 91.9062 156.586 91.4219 154.477 91.4219ZM154.477 81.6562C157.539 81.6719 159.477 82.6875 159.477 84.3594C159.477 86.0312 157.539 87.0312 154.477 87.0312C151.414 87.0312 149.477 86.0312 149.477 84.3594C149.477 82.6875 151.414 81.6719 154.477 81.6562ZM154.477 82.8438C152.32 82.8438 150.992 83.3906 151.008 84.3594C150.992 85.3281 152.32 85.875 154.477 85.875C156.617 85.875 157.945 85.3281 157.945 84.3594C157.945 83.3906 156.617 82.8438 154.477 82.8438ZM173.523 81.3281V95.3594H172.039V81.3281H173.523ZM166.039 82.375C168.117 82.375 169.648 84.2812 169.648 87.2812C169.648 90.2969 168.117 92.2031 166.039 92.2031C163.93 92.2031 162.414 90.2969 162.414 87.2812C162.414 84.2812 163.93 82.375 166.039 82.375ZM166.039 83.7031C164.742 83.7031 163.852 85.0781 163.852 87.2812C163.852 89.5 164.742 90.875 166.039 90.875C167.32 90.875 168.211 89.5 168.211 87.2812C168.211 85.0781 167.32 83.7031 166.039 83.7031ZM192.477 92.3438V93.5781H179.664V92.3438H185.305V89.1094H181.133V82.4531H190.945V89.1094H186.773V92.3438H192.477ZM182.57 83.6406V87.9375H189.492V83.6406H182.57ZM205.086 81.3281V95.3594H203.602V81.3281H205.086ZM197.602 82.375C199.68 82.375 201.211 84.2812 201.211 87.2812C201.211 90.2969 199.68 92.2031 197.602 92.2031C195.492 92.2031 193.977 90.2969 193.977 87.2812C193.977 84.2812 195.492 82.375 197.602 82.375ZM197.602 83.7031C196.305 83.7031 195.414 85.0781 195.414 87.2812C195.414 89.5 196.305 90.875 197.602 90.875C198.883 90.875 199.773 89.5 199.773 87.2812C199.773 85.0781 198.883 83.7031 197.602 83.7031ZM214.461 82.5156V83.7031H217.508V81.3438H218.992V91.5469H217.508V87.9219H214.461V89.1406H207.961V82.5156H214.461ZM209.43 83.7188V87.9688H213.008V83.7188H209.43ZM219.305 93.8281V95.0312H209.852V90.6094H211.352V93.8281H219.305ZM214.461 86.7031H217.508V84.9219H214.461V86.7031ZM57.0547 105.344V115.516H55.5703V105.344H57.0547ZM57.4766 117.828V119.031H47.8984V114.484H49.3984V117.828H57.4766ZM49.4609 106.281C51.5703 106.281 53.1797 107.719 53.1797 109.75C53.1797 111.812 51.5703 113.234 49.4609 113.234C47.3516 113.234 45.7266 111.812 45.7266 109.75C45.7266 107.719 47.3516 106.281 49.4609 106.281ZM49.4609 107.578C48.1484 107.578 47.1797 108.469 47.1797 109.75C47.1797 111.062 48.1484 111.938 49.4609 111.938C50.7422 111.938 51.7266 111.062 51.7266 109.75C51.7266 108.469 50.7422 107.578 49.4609 107.578ZM70.9141 105.328V119.328H69.4141V105.328H70.9141ZM66.7422 106.828C66.7422 110.922 64.9922 114.484 60.1953 116.781L59.4141 115.578C63.1406 113.805 64.9531 111.281 65.2422 108.016H60.0859V106.828H66.7422ZM81.8672 108.891C81.8516 111.375 83.2891 113.906 85.3828 114.922L84.4609 116.109C82.9375 115.32 81.7578 113.75 81.1484 111.875C80.5156 113.875 79.2891 115.547 77.6953 116.375L76.7734 115.172C78.9297 114.141 80.3828 111.453 80.3828 108.891V106.5H81.8672V108.891ZM87.9141 105.328V110.906H90.1641V112.172H87.9141V119.328H86.4297V105.328H87.9141ZM96.0234 108.25C96.0234 110.062 97.3672 111.766 99.5234 112.453L98.7578 113.609C97.1484 113.078 95.9297 111.977 95.3047 110.578C94.6719 112.102 93.4297 113.305 91.7578 113.891L90.9922 112.719C93.1641 111.984 94.5078 110.172 94.5234 108.25V107.641H91.3828V106.438H99.1016V107.641H96.0234V108.25ZM102.445 105.344V115.562H100.961V105.344H102.445ZM102.867 117.828V119.031H93.2891V114.594H94.7891V117.828H102.867ZM111.039 106.172C113.977 106.172 116.211 107.719 116.211 110.078C116.211 112.438 113.977 114 111.039 113.984C108.102 114 105.883 112.438 105.883 110.078C105.883 107.719 108.102 106.172 111.039 106.172ZM111.039 107.375C108.898 107.359 107.289 108.453 107.305 110.078C107.289 111.719 108.898 112.766 111.039 112.766C113.18 112.766 114.773 111.719 114.773 110.078C114.773 108.453 113.18 107.359 111.039 107.375ZM117.477 116.281V117.516H104.664V116.281H117.477ZM131.305 116.406V117.656H118.492V116.406H124.133V113.953H120.055V109.5H128.273V107.531H120.023V106.312H129.742V110.688H121.523V112.734H130.07V113.953H125.602V116.406H131.305ZM147.82 105.328V119.328H146.336V105.328H147.82ZM141.492 109.828C141.492 112.062 142.977 114.344 145.148 115.266L144.336 116.406C142.727 115.703 141.438 114.25 140.789 112.484C140.156 114.352 138.891 115.906 137.258 116.641L136.43 115.5C138.602 114.531 140.039 112.172 140.039 109.828V108.906H136.852V107.719H140.023V105.609H141.492V107.719H144.633V108.906H141.492V109.828ZM162.867 116.297V117.516H150.055V116.297H162.867ZM157.211 108.297C157.211 110.438 159.633 112.328 162.305 112.75L161.711 113.922C159.453 113.5 157.367 112.18 156.445 110.344C155.547 112.195 153.477 113.555 151.258 113.984L150.648 112.797C153.258 112.375 155.664 110.438 155.664 108.297V107.859H151.117V106.656H161.758V107.859H157.211V108.297ZM166.008 106.781V114.562C167.445 114.539 168.805 114.445 170.352 114.125L170.555 115.391C168.727 115.766 167.18 115.844 165.445 115.844H164.523V106.781H166.008ZM175.914 105.328V119.328H174.508V105.328H175.914ZM172.914 105.641V118.641H171.508V111.156H168.445V109.938H171.508V105.641H172.914ZM189.383 105.344V114.906H187.898V110.609H185.039V109.406H187.898V105.344H189.383ZM185.508 114.172C185.508 116.047 187.492 117.609 190.117 118.062L189.508 119.25C187.383 118.852 185.609 117.789 184.773 116.25C183.914 117.797 182.117 118.867 179.977 119.266L179.398 118.094C182.039 117.656 184.023 116.078 184.039 114.172V113.719H185.508V114.172ZM185.023 106.297C185.023 110.016 183.133 112.688 178.633 114.156L178.039 112.969C180.266 112.258 181.711 111.281 182.555 110.078L178.227 110.406L177.992 109.203L183.133 108.984C183.305 108.523 183.414 108.031 183.461 107.516H178.695V106.297H185.023ZM197.914 105.562C201.07 105.562 202.914 106.406 202.914 107.969C202.914 109.531 201.07 110.391 197.914 110.391C194.758 110.391 192.914 109.531 192.914 107.969C192.914 106.406 194.758 105.562 197.914 105.562ZM197.914 106.656C195.68 106.656 194.445 107.141 194.461 107.969C194.445 108.828 195.68 109.281 197.914 109.281C200.148 109.281 201.383 108.828 201.383 107.969C201.383 107.141 200.148 106.656 197.914 106.656ZM204.305 111.25V112.438H191.539V111.25H204.305ZM202.695 113.516V116.797H194.539V118.047H203.086V119.188H193.086V115.719H201.227V114.625H193.07V113.516H202.695ZM216.367 106.562V113.094H209.82V106.562H216.367ZM211.273 107.766V111.922H214.914V107.766H211.273ZM220.273 105.312V109.5H222.305V110.75H220.273V115.578H218.789V105.312H220.273ZM220.867 117.828V119.031H211.398V114.594H212.883V117.828H220.867ZM235.883 111.062V112.25H223.102V111.062H235.883ZM234.367 108.859V110.047H224.773V105.734H234.227V106.938H226.258V108.859H234.367ZM234.258 113.359V116.75H226.102V118H234.648V119.172H224.648V115.656H232.789V114.5H224.633V113.359H234.258ZM240.727 106.375C242.625 106.375 244.016 107.984 244.242 110.578H247.133V105.328H248.602V119.359H247.133V111.781H244.258C244.094 114.508 242.672 116.203 240.727 116.203C238.633 116.203 237.164 114.297 237.18 111.281C237.164 108.281 238.633 106.375 240.727 106.375ZM240.727 107.703C239.461 107.703 238.586 109.078 238.586 111.281C238.586 113.5 239.461 114.875 240.727 114.875C241.992 114.875 242.867 113.5 242.867 111.281C242.867 109.078 241.992 107.703 240.727 107.703ZM263.57 116.344V117.578H250.758V116.344H253.82V112.688C252.672 112.055 251.977 111.047 251.977 109.797C251.977 107.594 254.133 106.141 257.133 106.141C260.148 106.141 262.305 107.594 262.305 109.797C262.305 111.031 261.633 112.023 260.508 112.656V116.344H263.57ZM257.133 107.328C254.93 107.328 253.414 108.281 253.414 109.797C253.414 111.297 254.93 112.281 257.133 112.281C259.32 112.281 260.867 111.297 260.867 109.797C260.867 108.281 259.32 107.328 257.133 107.328ZM255.289 116.344H259.008V113.219C258.438 113.367 257.805 113.438 257.133 113.438C256.477 113.438 255.852 113.367 255.289 113.234V116.344Z" fill="#424349"/>
<path d="M198.099 185.095C199.066 186.732 199.029 188.926 197.942 190.391C200.221 188.504 203.521 188.669 205.545 190.775L205.784 190.518L206.484 192.075C208.043 195.094 205.925 199.223 201.906 200.988C197.764 202.807 193.115 202.928 187.836 202.112L187.835 202.114L187.834 202.113L187.831 202.113C187.831 202.111 187.83 202.109 187.83 202.107L186.695 200.609L187.356 200.111C186.766 197.289 186.381 193.807 186.991 190.754C187.755 186.928 190.558 182.544 194.579 182.911C195.543 183 196.343 183.333 196.979 183.821L197.314 183.54L198.099 185.095Z" fill="url(#paint0_linear_5086_42390)"/>
<g filter="url(#filter0_i_5086_42390)">
<path d="M193.564 181.022C197.665 181.397 198.882 186.104 196.993 188.651C199.65 186.45 203.666 186.986 205.546 190.085C207.427 193.184 205.262 197.603 201.036 199.458C196.81 201.314 192.067 201.437 186.681 200.605C185.857 197.515 185.046 192.924 185.825 189.021C186.604 185.119 189.462 180.647 193.564 181.022Z" fill="url(#paint1_linear_5086_42390)"/>
</g>
<path d="M209.93 167.084C210.984 168.045 211.443 169.625 210.99 170.916C212.206 169.053 214.611 168.438 216.533 169.499L216.648 169.261L217.501 170.227C219.286 172.049 218.684 175.481 216.195 177.64C213.626 179.867 210.315 180.99 206.345 181.58L206.344 181.58L206.342 181.58C206.341 181.579 206.34 181.577 206.339 181.576L205.191 180.753L205.555 180.249C204.503 178.355 203.452 175.941 203.21 173.614C202.907 170.697 203.943 166.926 206.911 166.295C207.623 166.143 208.271 166.204 208.837 166.413L209.015 166.137L209.93 167.084Z" fill="url(#paint2_linear_5086_42390)"/>
<g filter="url(#filter1_i_5086_42390)">
<path d="M205.764 165.163C208.791 164.519 210.713 167.627 209.923 169.876C211.341 167.705 214.343 167.196 216.383 169.001C218.423 170.807 217.852 174.462 215.231 176.734C212.611 179.006 209.234 180.151 205.183 180.752C203.903 178.718 202.299 175.603 201.989 172.628C201.68 169.653 202.736 165.807 205.764 165.163Z" fill="url(#paint3_linear_5086_42390)"/>
</g>
<path d="M97.0723 193.004C96.1849 194.117 95.9781 195.743 96.6241 196.946C95.1347 195.294 92.6627 195.058 90.9278 196.403L90.7779 196.186L90.0892 197.267C88.5994 199.342 89.7251 202.645 92.5222 204.395C95.4045 206.199 98.8486 206.795 102.863 206.763L102.863 206.764L102.864 206.763L102.866 206.763C102.867 206.762 102.867 206.76 102.868 206.759L103.874 205.769L103.437 205.327C104.183 203.293 104.848 200.745 104.728 198.409C104.576 195.481 102.969 191.915 99.9388 191.75C99.2127 191.71 98.5812 191.872 98.0553 192.166L97.8361 191.92L97.0723 193.004Z" fill="url(#paint4_linear_5086_42390)"/>
<g filter="url(#filter2_i_5086_42390)">
<path d="M100.895 190.456C97.8045 190.288 96.3871 193.655 97.5147 195.755C95.7783 193.83 92.7337 193.791 90.9978 195.89C89.2619 197.99 90.391 201.512 93.3314 203.352C96.2718 205.192 99.7853 205.8 103.881 205.767C104.83 203.559 105.934 200.234 105.779 197.247C105.625 194.26 103.986 190.624 100.895 190.456Z" fill="url(#paint5_linear_5086_42390)"/>
</g>
<path d="M107.523 272.692V226.761L179.784 230.154C184.082 230.356 188.092 227.995 190 224.139L194.836 214.368L194.857 265.163C194.857 266.501 194.563 267.822 193.994 269.033L190.15 277.223C188.36 281.036 184.447 283.392 180.241 283.191L114.537 280.049C110.61 279.861 107.523 276.623 107.523 272.692Z" fill="url(#paint6_linear_5086_42390)"/>
<g filter="url(#filter3_d_5086_42390)">
<path d="M126.196 244.043C131.279 235.587 143.393 233.537 153.253 239.464C163.113 245.391 166.985 257.051 161.902 265.507C161.645 265.935 161.367 266.347 161.075 266.742L159.627 269.122L159.389 268.667C153.483 274.379 143.33 275.187 134.845 270.087C126.474 265.055 122.42 255.892 124.496 248.065L123.537 247.887L126.024 244.339C126.08 244.24 126.137 244.141 126.196 244.043Z" fill="url(#paint7_linear_5086_42390)"/>
</g>
<g filter="url(#filter4_i_5086_42390)">
<path d="M191.039 209.919C193.201 210.323 194.836 212.476 194.836 214.456L194.768 214.472L190.519 223.537C188.505 227.831 184.099 230.484 179.362 230.255L107.549 226.783L107.563 226.753L107.52 226.783C107.52 222.498 108.458 219.573 110.054 217.282C110.897 216.926 111.818 216.76 112.675 216.692L115.595 210.947L185.684 214L185.542 213.569L191.039 209.919Z" fill="url(#paint8_linear_5086_42390)"/>
</g>
<path d="M185.722 220.375C184.718 222.35 182.649 223.552 180.436 223.448L111.916 220.209C110.268 220.131 109.326 218.294 110.224 216.91L113.261 212.233C115.428 208.894 119.197 206.948 123.173 207.112L191.043 209.913L185.722 220.375Z" fill="url(#paint9_linear_5086_42390)"/>
<ellipse cx="141.232" cy="259.075" rx="21.0182" ry="17.5507" transform="rotate(31.0107 141.232 259.075)" fill="url(#paint10_linear_5086_42390)"/>
<ellipse cx="140.488" cy="260.314" rx="19.3016" ry="16.0588" transform="rotate(31.0107 140.488 260.314)" fill="url(#paint11_linear_5086_42390)"/>
<g filter="url(#filter5_i_5086_42390)">
<ellipse cx="142.307" cy="257.288" rx="15.0578" ry="12.528" transform="rotate(31.0107 142.307 257.288)" fill="url(#paint12_linear_5086_42390)"/>
</g>
<g filter="url(#filter6_ii_5086_42390)">
<ellipse cx="142.306" cy="257.288" rx="9.60354" ry="7.99009" transform="rotate(31.0107 142.306 257.288)" fill="url(#paint13_radial_5086_42390)"/>
</g>
<g filter="url(#filter7_f_5086_42390)">
<ellipse cx="139.133" cy="257.912" rx="2.60796" ry="2.16981" transform="rotate(31.0107 139.133 257.912)" fill="white"/>
</g>
<g filter="url(#filter8_i_5086_42390)">
<path fill-rule="evenodd" clip-rule="evenodd" d="M123.942 250.375C128.513 242.771 139.625 241.059 148.761 246.551C157.897 252.043 161.599 262.659 157.028 270.263C152.457 277.867 141.345 279.579 132.209 274.087C123.073 268.595 119.372 257.979 123.942 250.375ZM146.937 249.586C139.452 245.087 130.496 246.245 126.933 252.172C123.371 258.099 126.549 266.552 134.034 271.051C141.518 275.55 150.474 274.392 154.037 268.465C157.6 262.538 154.421 254.085 146.937 249.586Z" fill="url(#paint14_linear_5086_42390)"/>
</g>
<path d="M120.755 212.662C121.306 211.818 122.262 211.328 123.269 211.373L180.741 213.969C181.263 213.993 181.583 214.552 181.339 215.014L180.464 216.673C179.947 217.652 178.909 218.243 177.803 218.189L120.276 215.355C119.726 215.328 119.414 214.714 119.715 214.254L120.755 212.662Z" fill="#332100"/>
<mask id="mask0_5086_42390" style="mask-type:alpha" maskUnits="userSpaceOnUse" x="107" y="146" width="74" height="73">
<path d="M122.224 215.444L176.283 218.127C176.713 218.148 177.079 217.816 177.098 217.385L180.172 149.976C180.253 148.205 178.839 146.725 177.066 146.725H107.818C107.32 146.725 106.951 147.186 107.06 147.672L122.224 215.444Z" fill="#332100"/>
</mask>
<g mask="url(#mask0_5086_42390)">
<rect x="113.701" y="165.977" width="51.4118" height="69.6016" rx="4.10493" transform="rotate(-10.812 113.701 165.977)" fill="url(#paint15_linear_5086_42390)"/>
<rect x="120.002" y="170.093" width="17.9711" height="22.4704" rx="1.6369" transform="rotate(-10.812 120.002 170.093)" fill="#56575F"/>
<rect x="125.268" y="196.102" width="17.9711" height="22.4704" rx="1.6369" transform="rotate(-10.812 125.268 196.102)" fill="#56575F"/>
<rect x="141.809" y="165.779" width="17.9711" height="22.4704" rx="1.6369" transform="rotate(-10.812 141.809 165.779)" fill="#56575F"/>
<rect x="147.072" y="191.788" width="17.9711" height="22.4704" rx="1.6369" transform="rotate(-10.812 147.072 191.788)" fill="#56575F"/>
</g>
<defs>
<filter id="filter0_i_5086_42390" x="185.51" y="179.74" width="20.7188" height="21.3574" filterUnits="userSpaceOnUse" color-interpolation-filters="sRGB">
<feFlood flood-opacity="0" result="BackgroundImageFix"/>
<feBlend mode="normal" in="SourceGraphic" in2="BackgroundImageFix" result="shape"/>
<feColorMatrix in="SourceAlpha" type="matrix" values="0 0 0 0 0 0 0 0 0 0 0 0 0 0 0 0 0 0 127 0" result="hardAlpha"/>
<feOffset dy="-1.26"/>
<feGaussianBlur stdDeviation="0.693"/>
<feComposite in2="hardAlpha" operator="arithmetic" k2="-1" k3="1"/>
<feColorMatrix type="matrix" values="0 0 0 0 1 0 0 0 0 1 0 0 0 0 1 0 0 0 0.41 0"/>
<feBlend mode="normal" in2="shape" result="effect1_innerShadow_5086_42390"/>
</filter>
<filter id="filter1_i_5086_42390" x="201.938" y="163.817" width="15.6758" height="16.9355" filterUnits="userSpaceOnUse" color-interpolation-filters="sRGB">
<feFlood flood-opacity="0" result="BackgroundImageFix"/>
<feBlend mode="normal" in="SourceGraphic" in2="BackgroundImageFix" result="shape"/>
<feColorMatrix in="SourceAlpha" type="matrix" values="0 0 0 0 0 0 0 0 0 0 0 0 0 0 0 0 0 0 127 0" result="hardAlpha"/>
<feOffset dy="-1.26"/>
<feGaussianBlur stdDeviation="0.693"/>
<feComposite in2="hardAlpha" operator="arithmetic" k2="-1" k3="1"/>
<feColorMatrix type="matrix" values="0 0 0 0 1 0 0 0 0 1 0 0 0 0 1 0 0 0 0.41 0"/>
<feBlend mode="normal" in2="shape" result="effect1_innerShadow_5086_42390"/>
</filter>
<filter id="filter2_i_5086_42390" x="90.1777" y="189.189" width="15.6152" height="16.5793" filterUnits="userSpaceOnUse" color-interpolation-filters="sRGB">
<feFlood flood-opacity="0" result="BackgroundImageFix"/>
<feBlend mode="normal" in="SourceGraphic" in2="BackgroundImageFix" result="shape"/>
<feColorMatrix in="SourceAlpha" type="matrix" values="0 0 0 0 0 0 0 0 0 0 0 0 0 0 0 0 0 0 127 0" result="hardAlpha"/>
<feOffset dy="-1.26"/>
<feGaussianBlur stdDeviation="0.693"/>
<feComposite in2="hardAlpha" operator="arithmetic" k2="-1" k3="1"/>
<feColorMatrix type="matrix" values="0 0 0 0 1 0 0 0 0 1 0 0 0 0 1 0 0 0 0.41 0"/>
<feBlend mode="normal" in2="shape" result="effect1_innerShadow_5086_42390"/>
</filter>
<filter id="filter3_d_5086_42390" x="123.537" y="234.651" width="46.301" height="43.0981" filterUnits="userSpaceOnUse" color-interpolation-filters="sRGB">
<feFlood flood-opacity="0" result="BackgroundImageFix"/>
<feColorMatrix in="SourceAlpha" type="matrix" values="0 0 0 0 0 0 0 0 0 0 0 0 0 0 0 0 0 0 127 0" result="hardAlpha"/>
<feOffset dx="2.8497" dy="1.42485"/>
<feGaussianBlur stdDeviation="1.42485"/>
<feComposite in2="hardAlpha" operator="out"/>
<feColorMatrix type="matrix" values="0 0 0 0 0 0 0 0 0 0 0 0 0 0 0 0 0 0 0.15 0"/>
<feBlend mode="normal" in2="BackgroundImageFix" result="effect1_dropShadow_5086_42390"/>
<feBlend mode="normal" in="SourceGraphic" in2="effect1_dropShadow_5086_42390" result="shape"/>
</filter>
<filter id="filter4_i_5086_42390" x="107.52" y="206.919" width="87.3164" height="23.3496" filterUnits="userSpaceOnUse" color-interpolation-filters="sRGB">
<feFlood flood-opacity="0" result="BackgroundImageFix"/>
<feBlend mode="normal" in="SourceGraphic" in2="BackgroundImageFix" result="shape"/>
<feColorMatrix in="SourceAlpha" type="matrix" values="0 0 0 0 0 0 0 0 0 0 0 0 0 0 0 0 0 0 127 0" result="hardAlpha"/>
<feOffset dy="-3"/>
<feGaussianBlur stdDeviation="2.175"/>
<feComposite in2="hardAlpha" operator="arithmetic" k2="-1" k3="1"/>
<feColorMatrix type="matrix" values="0 0 0 0 1 0 0 0 0 1 0 0 0 0 1 0 0 0 0.49 0"/>
<feBlend mode="normal" in2="shape" result="effect1_innerShadow_5086_42390"/>
</filter>
<filter id="filter5_i_5086_42390" x="125.736" y="244.041" width="31.0045" height="31.4821" filterUnits="userSpaceOnUse" color-interpolation-filters="sRGB">
<feFlood flood-opacity="0" result="BackgroundImageFix"/>
<feBlend mode="normal" in="SourceGraphic" in2="BackgroundImageFix" result="shape"/>
<feColorMatrix in="SourceAlpha" type="matrix" values="0 0 0 0 0 0 0 0 0 0 0 0 0 0 0 0 0 0 127 0" result="hardAlpha"/>
<feOffset dx="-2.13728" dy="4.98698"/>
<feGaussianBlur stdDeviation="2.81408"/>
<feComposite in2="hardAlpha" operator="arithmetic" k2="-1" k3="1"/>
<feColorMatrix type="matrix" values="0 0 0 0 0 0 0 0 0 0 0 0 0 0 0 0 0 0 0.12 0"/>
<feBlend mode="normal" in2="shape" result="effect1_innerShadow_5086_42390"/>
</filter>
<filter id="filter6_ii_5086_42390" x="131.962" y="246.702" width="22.3997" height="19.0355" filterUnits="userSpaceOnUse" color-interpolation-filters="sRGB">
<feFlood flood-opacity="0" result="BackgroundImageFix"/>
<feBlend mode="normal" in="SourceGraphic" in2="BackgroundImageFix" result="shape"/>
<feColorMatrix in="SourceAlpha" type="matrix" values="0 0 0 0 0 0 0 0 0 0 0 0 0 0 0 0 0 0 127 0" result="hardAlpha"/>
<feOffset dx="3.56213" dy="-2.13728"/>
<feGaussianBlur stdDeviation="1.42485"/>
<feComposite in2="hardAlpha" operator="arithmetic" k2="-1" k3="1"/>
<feColorMatrix type="matrix" values="0 0 0 0 0 0 0 0 0 0 0 0 0 0 0 0 0 0 0.43 0"/>
<feBlend mode="normal" in2="shape" result="effect1_innerShadow_5086_42390"/>
<feColorMatrix in="SourceAlpha" type="matrix" values="0 0 0 0 0 0 0 0 0 0 0 0 0 0 0 0 0 0 127 0" result="hardAlpha"/>
<feOffset dx="-1.42485" dy="-1.42485"/>
<feGaussianBlur stdDeviation="0.569941"/>
<feComposite in2="hardAlpha" operator="arithmetic" k2="-1" k3="1"/>
<feColorMatrix type="matrix" values="0 0 0 0 1 0 0 0 0 1 0 0 0 0 1 0 0 0 0.15 0"/>
<feBlend mode="normal" in2="effect1_innerShadow_5086_42390" result="effect2_innerShadow_5086_42390"/>
</filter>
<filter id="filter7_f_5086_42390" x="133.783" y="252.768" width="10.6994" height="10.2883" filterUnits="userSpaceOnUse" color-interpolation-filters="sRGB">
<feFlood flood-opacity="0" result="BackgroundImageFix"/>
<feBlend mode="normal" in="SourceGraphic" in2="BackgroundImageFix" result="shape"/>
<feGaussianBlur stdDeviation="1.42485" result="effect1_foregroundBlur_5086_42390"/>
</filter>
<filter id="filter8_i_5086_42390" x="121.984" y="241.695" width="37.002" height="35.6085" filterUnits="userSpaceOnUse" color-interpolation-filters="sRGB">
<feFlood flood-opacity="0" result="BackgroundImageFix"/>
<feBlend mode="normal" in="SourceGraphic" in2="BackgroundImageFix" result="shape"/>
<feColorMatrix in="SourceAlpha" type="matrix" values="0 0 0 0 0 0 0 0 0 0 0 0 0 0 0 0 0 0 127 0" result="hardAlpha"/>
<feOffset dy="-2.13728"/>
<feGaussianBlur stdDeviation="0.819289"/>
<feComposite in2="hardAlpha" operator="arithmetic" k2="-1" k3="1"/>
<feColorMatrix type="matrix" values="0 0 0 0 1 0 0 0 0 1 0 0 0 0 1 0 0 0 0.25 0"/>
<feBlend mode="normal" in2="shape" result="effect1_innerShadow_5086_42390"/>
</filter>
<linearGradient id="paint0_linear_5086_42390" x1="210.109" y1="193.706" x2="192.105" y2="203.97" gradientUnits="userSpaceOnUse">
<stop stop-color="#FFB700"/>
<stop offset="1" stop-color="#E09900"/>
</linearGradient>
<linearGradient id="paint1_linear_5086_42390" x1="193.719" y1="200.333" x2="190.386" y2="182.781" gradientUnits="userSpaceOnUse">
<stop stop-color="#FFCD14"/>
<stop offset="1" stop-color="#FFDC5C"/>
</linearGradient>
<linearGradient id="paint2_linear_5086_42390" x1="220.462" y1="170.586" x2="209.822" y2="181.962" gradientUnits="userSpaceOnUse">
<stop stop-color="#FFB700"/>
<stop offset="1" stop-color="#E09900"/>
</linearGradient>
<linearGradient id="paint3_linear_5086_42390" x1="210.174" y1="178.991" x2="203.875" y2="167.133" gradientUnits="userSpaceOnUse">
<stop stop-color="#FFCD14"/>
<stop offset="1" stop-color="#FFDC5C"/>
</linearGradient>
<linearGradient id="paint4_linear_5086_42390" x1="87.2146" y1="198.087" x2="99.4851" y2="207.679" gradientUnits="userSpaceOnUse">
<stop stop-color="#FFB700"/>
<stop offset="1" stop-color="#E09900"/>
</linearGradient>
<linearGradient id="paint5_linear_5086_42390" x1="98.677" y1="204.799" x2="103.066" y2="192.11" gradientUnits="userSpaceOnUse">
<stop stop-color="#FFCD14"/>
<stop offset="1" stop-color="#FFDC5C"/>
</linearGradient>
<linearGradient id="paint6_linear_5086_42390" x1="107.523" y1="248.945" x2="194.857" y2="248.945" gradientUnits="userSpaceOnUse">
<stop stop-color="#F1F2F3"/>
<stop offset="0.842973" stop-color="#F7F7F8"/>
<stop offset="1" stop-color="#94969E"/>
</linearGradient>
<linearGradient id="paint7_linear_5086_42390" x1="128.239" y1="240.742" x2="164.935" y2="260.919" gradientUnits="userSpaceOnUse">
<stop stop-color="#FFDC5C"/>
<stop offset="0.245148" stop-color="#FFE894"/>
<stop offset="1" stop-color="#E09900"/>
</linearGradient>
<linearGradient id="paint8_linear_5086_42390" x1="208.144" y1="212.642" x2="107.488" y2="223.661" gradientUnits="userSpaceOnUse">
<stop offset="0.0208262" stop-color="#FFC730"/>
<stop offset="0.315537" stop-color="#FFE894"/>
<stop offset="1" stop-color="#FFB700"/>
</linearGradient>
<linearGradient id="paint9_linear_5086_42390" x1="149.62" y1="175.356" x2="171.825" y2="226.539" gradientUnits="userSpaceOnUse">
<stop stop-color="#FFCD14"/>
<stop offset="1" stop-color="#FFE894"/>
</linearGradient>
<linearGradient id="paint10_linear_5086_42390" x1="124.103" y1="251.907" x2="141.232" y2="276.626" gradientUnits="userSpaceOnUse">
<stop stop-color="#FFE894"/>
<stop offset="1" stop-color="#FFCD14"/>
</linearGradient>
<linearGradient id="paint11_linear_5086_42390" x1="121.593" y1="258.253" x2="158.549" y2="263.971" gradientUnits="userSpaceOnUse">
<stop stop-color="#FFB700"/>
<stop offset="1" stop-color="#FFF2C2"/>
</linearGradient>
<linearGradient id="paint12_linear_5086_42390" x1="131.892" y1="249.891" x2="148.635" y2="267.815" gradientUnits="userSpaceOnUse">
<stop stop-color="#FFB700"/>
<stop offset="1" stop-color="#FFCD14"/>
</linearGradient>
<radialGradient id="paint13_radial_5086_42390" cx="0" cy="0" r="1" gradientUnits="userSpaceOnUse" gradientTransform="translate(147.588 258.472) rotate(-167.284) scale(10.2026 12.2628)">
<stop stop-color="#18191B"/>
<stop offset="1" stop-color="#56575F"/>
</radialGradient>
<linearGradient id="paint14_linear_5086_42390" x1="135.484" y1="244.925" x2="147.334" y2="278.835" gradientUnits="userSpaceOnUse">
<stop stop-color="#FFF2C2"/>
<stop offset="1" stop-color="#FFCD14"/>
</linearGradient>
<linearGradient id="paint15_linear_5086_42390" x1="155.675" y1="171.634" x2="117.559" y2="226.056" gradientUnits="userSpaceOnUse">
<stop offset="0.322136" stop-color="white"/>
<stop offset="1" stop-color="#E5E5E7"/>
</linearGradient>
</defs>
</svg>
