<svg width="135" height="93" viewBox="0 0 135 93" fill="none" xmlns="http://www.w3.org/2000/svg">
<path d="M62.8676 30.6078L42.4594 73.6304C41.2011 76.2831 42.3141 79.4544 44.9543 80.7388C59.739 87.9313 77.0087 87.9313 91.7933 80.7388C94.4335 79.4544 95.5466 76.2831 94.2882 73.6304L73.8801 30.6078C71.6775 25.9646 65.0701 25.9646 62.8676 30.6078Z" fill="#FFE894"/>
<mask id="mask0_2743_24064" style="mask-type:alpha" maskUnits="userSpaceOnUse" x="41" y="27" width="54" height="60">
<path d="M62.1801 30.6078L41.7719 73.6304C40.5136 76.2831 41.6266 79.4544 44.2668 80.7388C59.0515 87.9313 76.3212 87.9313 91.1058 80.7388C93.746 79.4544 94.8591 76.2831 93.6007 73.6304L73.1926 30.6078C70.99 25.9646 64.3826 25.9646 62.1801 30.6078Z" fill="#FFF2C2"/>
</mask>
<g mask="url(#mask0_2743_24064)">
<ellipse cx="84.8271" cy="62.0416" rx="4.95165" ry="6.47524" transform="rotate(25.2686 84.8271 62.0416)" fill="#FFF2C2"/>
<ellipse cx="58.9072" cy="42.8275" rx="4.95165" ry="4.63591" transform="rotate(25.2686 58.9072 42.8275)" fill="#FFF2C2"/>
<ellipse cx="57.826" cy="83.7282" rx="7.96767" ry="4.63591" transform="rotate(25.2686 57.826 83.7282)" fill="#FFF2C2"/>
<ellipse cx="81.8252" cy="73.3461" rx="2.7227" ry="2.37072" transform="rotate(25.2686 81.8252 73.3461)" fill="#FFF2C2"/>
<ellipse cx="67.7097" cy="41.5063" rx="1.63769" ry="1.93954" transform="rotate(25.2686 67.7097 41.5063)" fill="#FFF2C2"/>
</g>
<path d="M98.8127 28.5166C96.8125 21.5132 104.813 14.0197 111.313 18.5164C117.813 23.0132 111.313 29.521 106.313 25.0171C101.313 20.5132 106.313 9.5165 116.313 10.0165" stroke="#FFD22B" stroke-width="5" stroke-linecap="round"/>
<path d="M39.1123 46.4996C32.1199 48.5383 24.5826 40.5793 29.0436 34.0547C33.5046 27.5301 40.048 33.9943 35.5716 39.019C31.0952 44.0436 20.0713 39.1041 20.5163 29.1015" stroke="#FFD22B" stroke-width="5" stroke-linecap="round"/>
<path d="M102.5 53.1592L110.113 46.6758" stroke="#FFB700" stroke-width="5" stroke-linecap="round"/>
<path d="M47.5352 8L51.3823 17.2303" stroke="#FFB700" stroke-width="5" stroke-linecap="round"/>
<path d="M2.5 55.5083L12.4433 56.5711" stroke="#FFB700" stroke-width="5" stroke-linecap="round"/>
<circle cx="82" cy="10.5" r="4.5" fill="#FFE894"/>
<path d="M134.5 44.5C134.5 46.9853 132.485 49 130 49C127.515 49 125.5 46.9853 125.5 44.5C125.5 42.0147 127.515 40 130 40C132.485 40 134.5 42.0147 134.5 44.5Z" fill="#FFE894"/>
<circle cx="19" cy="4.5" r="4.5" fill="#FFE894"/>
</svg>
