<svg width="56" height="56" viewBox="0 0 56 56" fill="none" xmlns="http://www.w3.org/2000/svg">
<rect width="56" height="56" rx="28" fill="#FFF2C2"/>
<path d="M25.6533 16.626L22.9629 19.3027L25.6689 21.9814L23.5586 24.1133L20.8369 21.4199L18.1162 24.1289L16 22.0029L18.7051 19.3096L16 16.6328L18.1104 14.5L20.8311 17.1924L23.5371 14.5L25.6533 16.626Z" fill="#FFCD14"/>
<path d="M39.6533 16.626L36.9629 19.3027L39.6689 21.9814L37.5586 24.1133L34.8369 21.4199L32.1162 24.1289L30 22.0029L32.7051 19.3096L30 16.6328L32.1104 14.5L34.8311 17.1924L37.5371 14.5L39.6533 16.626Z" fill="#FFCD14"/>
<circle cx="27.5" cy="35" r="8.5" fill="#FFCD14"/>
</svg>
