<svg width="56" height="56" viewBox="0 0 56 56" fill="none" xmlns="http://www.w3.org/2000/svg">
<rect width="56" height="56" rx="28" fill="#FFF2C2"/>
<path d="M26.6819 22.2365C26.6819 22.2365 24.2317 22.2365 21.2091 22.2365C18.1866 22.2365 15.7363 22.2365 15.7363 22.2365C15.7363 19.2139 18.1866 16.7637 21.2091 16.7637C24.2317 16.7637 26.6819 19.2139 26.6819 22.2365Z" fill="#FFCD14"/>
<path d="M40.3636 22.2365C40.3636 22.2365 37.9133 22.2365 34.8908 22.2365C31.8682 22.2365 29.418 22.2365 29.418 22.2365C29.418 19.2139 31.8682 16.7637 34.8908 16.7637C37.9133 16.7637 40.3636 19.2139 40.3636 22.2365Z" fill="#FFCD14"/>
<path d="M42 27.2363C42 34.9683 35.732 41.2363 28 41.2363C20.268 41.2363 14 34.9683 14 27.2363" stroke="#FFCD14" stroke-width="3.5"/>
</svg>
