<svg width="56" height="56" viewBox="0 0 56 56" fill="none" xmlns="http://www.w3.org/2000/svg">
<rect width="56" height="56" rx="28" fill="#FFF2C2"/>
<path d="M26.4456 19.2365C26.4456 19.2365 23.9953 19.2365 20.9728 19.2365C17.9503 19.2365 15.5 19.2365 15.5 19.2365C15.5 22.2891 17.9503 24.7637 20.9728 24.7637C23.9953 24.7637 26.4456 22.2891 26.4456 19.2365Z" fill="#FFCD14"/>
<path d="M40.1272 19.2365C40.1272 19.2365 37.677 19.2365 34.6544 19.2365C31.6319 19.2365 29.1816 19.2365 29.1816 19.2365C29.1816 22.2891 31.6319 24.7637 34.6544 24.7637C37.677 24.7637 40.1272 22.2891 40.1272 19.2365Z" fill="#FFCD14"/>
<line x1="11.5" y1="35.0137" x2="44.5" y2="35.0137" stroke="#FFCD14" stroke-width="3.5"/>
</svg>
