<svg width="116" height="81" viewBox="0 0 116 81" fill="none" xmlns="http://www.w3.org/2000/svg">
<rect x="8" y="63" width="95" height="7" rx="2" fill="#94969E"/>
<path d="M101 12C102.105 12 103 12.8954 103 14L103 68C103 69.1046 102.105 70 101 70L98 70C96.8954 70 96 69.1046 96 68L96 15.5C96 13.567 97.567 12 99.5 12L101 12Z" fill="#94969E"/>
<rect x="96" y="12" width="20" height="7" rx="3.5" fill="#94969E"/>
<circle cx="25" cy="75" r="6" fill="#94969E"/>
<circle cx="84" cy="75" r="6" fill="#94969E"/>
<rect x="7" width="86" height="18" rx="5" fill="#FFE37C"/>
<mask id="mask0_1319_10531" style="mask-type:alpha" maskUnits="userSpaceOnUse" x="7" y="0" width="86" height="18">
<rect x="7" width="86" height="18" rx="5" fill="#FFE37C"/>
</mask>
<g mask="url(#mask0_1319_10531)">
<path d="M21.0849 8.32817C19.1334 8.32817 17.2796 7.53316 17.2796 5.88186C17.2796 4.23057 19.1334 1.80469 21.0849 1.80469C23.0365 1.80469 25.1621 2.87151 25.1621 4.52281C25.1621 6.1741 23.0365 8.32817 21.0849 8.32817Z" fill="#FFC955"/>
<path d="M68.7605 1.69491C67.59 0.133332 67.1144 -1.82689 68.4357 -2.81726C69.757 -3.80763 72.81 -3.77915 73.9805 -2.21757C75.1509 -0.65599 75.5721 1.68475 74.2508 2.67512C72.9294 3.66549 69.9309 3.2565 68.7605 1.69491Z" fill="#FFC955"/>
<path d="M64.6325 4.57525C63.9836 3.70938 63.7198 2.62247 64.4525 2.07333C65.1851 1.52419 66.8779 1.53998 67.5269 2.40585C68.1759 3.27172 68.4095 4.56962 67.6768 5.11876C66.9442 5.6679 65.2815 5.44112 64.6325 4.57525Z" fill="#FFC955"/>
<path d="M79.7029 13.8174C79.0539 12.9516 78.7901 11.8647 79.5228 11.3155C80.2554 10.7664 81.9483 10.7822 82.5972 11.648C83.2462 12.5139 83.4798 13.8118 82.7471 14.3609C82.0145 14.9101 80.3518 14.6833 79.7029 13.8174Z" fill="#FFC955"/>
<path d="M26.4361 10.5033C25.2248 10.5033 24.0742 10.172 24.0742 9.48398C24.0742 8.79594 25.2248 7.78516 26.4361 7.78516C27.6474 7.78516 28.9668 8.22967 28.9668 8.91771C28.9668 9.60574 27.6474 10.5033 26.4361 10.5033Z" fill="#FFC955"/>
<ellipse cx="32.4755" cy="16.9565" rx="2.64787" ry="3.50885" transform="rotate(90 32.4755 16.9565)" fill="#FFC955"/>
</g>
<rect x="9" y="42" width="84" height="18" rx="5" fill="#FFE37C"/>
<mask id="mask1_1319_10531" style="mask-type:alpha" maskUnits="userSpaceOnUse" x="9" y="42" width="84" height="18">
<rect x="9" y="42" width="84" height="18" rx="5" fill="#FFE37C"/>
</mask>
<g mask="url(#mask1_1319_10531)">
<path d="M11.5713 50.6446C9.61973 50.6446 7.76589 49.8496 7.76589 48.1983C7.76589 46.547 9.61973 44.1211 11.5713 44.1211C13.5228 44.1211 15.6484 45.1879 15.6484 46.8392C15.6484 48.4905 13.5228 50.6446 11.5713 50.6446Z" fill="#FFC955"/>
<path d="M70.3913 44.5543C69.2209 42.9927 68.7452 41.0325 70.0666 40.0421C71.3879 39.0517 74.4409 39.0802 75.6113 40.6418C76.7818 42.2034 77.203 44.5441 75.8816 45.5345C74.5603 46.5249 71.5618 46.1159 70.3913 44.5543Z" fill="#FFC955"/>
<path d="M66.2634 47.4346C65.6144 46.5688 65.3507 45.4818 66.0833 44.9327C66.816 44.3836 68.5088 44.3994 69.1578 45.2652C69.8068 46.1311 70.0403 47.429 69.3077 47.9781C68.575 48.5273 66.9124 48.3005 66.2634 47.4346Z" fill="#FFC955"/>
<path d="M35.6384 45.9256C34.646 46.357 33.5276 46.3626 33.1626 45.5229C32.7975 44.6832 33.2039 43.0398 34.1963 42.6084C35.1886 42.1769 36.5054 42.2495 36.8704 43.0892C37.2355 43.9289 36.6308 45.4942 35.6384 45.9256Z" fill="#FFC955"/>
<path d="M81.5132 57.5876C80.8964 57.3996 80.3449 56.9502 80.3053 56.3065C80.255 55.4899 80.6357 54.5618 81.1535 54.1738C81.8862 53.6246 83.579 53.6404 84.228 54.5063C84.877 55.3722 85.422 57.1613 84.6894 57.7105C84.1438 58.1194 82.602 57.9193 81.5132 57.5876Z" fill="#FFC955"/>
<path d="M31.1072 62.274C30.5057 62.044 29.9743 61.5766 29.9455 60.9333C29.9047 60.0241 30.3411 58.9221 30.8692 58.5263C31.6019 57.9772 32.3929 58.4745 33.0428 59.3416C33.6928 60.2088 34.0458 61.7931 33.3131 62.3422C32.7979 62.7283 31.8868 62.572 31.1072 62.274Z" fill="#FFC955"/>
<path d="M16.6723 52.2767C15.7302 52.2767 14.8353 51.9455 14.8353 51.2574C14.8353 50.5694 15.7302 49.5586 16.6723 49.5586C17.6144 49.5586 18.6406 50.0031 18.6406 50.6911C18.6406 51.3792 17.6144 52.2767 16.6723 52.2767Z" fill="#FFC955"/>
<path d="M24.8896 62.0606C22.6379 62.0606 20.8124 60.6716 20.8124 58.9581C20.8124 57.2446 21.7196 55.5371 23.9714 55.5371C26.2231 55.5371 28.9668 57.2446 28.9668 58.9581C28.9668 60.6716 27.1414 62.0606 24.8896 62.0606Z" fill="#FFC955"/>
</g>
<rect y="21" width="85" height="18" rx="5" fill="#FFBB64"/>
<mask id="mask2_1319_10531" style="mask-type:alpha" maskUnits="userSpaceOnUse" x="0" y="21" width="85" height="18">
<rect y="21" width="85" height="18" rx="5" fill="#FFBB64"/>
</mask>
<g mask="url(#mask2_1319_10531)">
<path d="M15.3777 30.8024C15.3777 32.9041 13.4021 33.7924 11.3005 33.7924C9.19884 33.7924 6.67969 32.0887 6.67969 29.987C6.67969 27.8854 9.19884 26.1816 11.3005 26.1816C13.4021 26.1816 15.3777 28.7008 15.3777 30.8024Z" fill="#FFDDA3"/>
<path d="M80.6115 35.4226C80.6115 37.0534 79.995 38.6843 77.8934 38.6843C75.7918 38.6843 72.4434 36.8611 72.4434 34.7595C72.4434 32.6578 74.9625 31.6172 77.0642 31.6172C79.1658 31.6172 80.6115 33.7917 80.6115 35.4226Z" fill="#FFDDA3"/>
<path d="M70.555 31.889C70.555 32.5163 71.0319 32.7044 71.7313 32.7044C72.4307 32.7044 73.5449 32.0032 73.5449 31.1949C73.5449 30.3866 72.7066 29.9863 72.0073 29.9863C71.3079 29.9863 70.555 31.2618 70.555 31.889Z" fill="#FFDDA3"/>
<path d="M59.492 22.5527C58.6764 23.5169 59.8724 24.2198 60.5792 24.4554C61.3948 24.7273 62.4991 24.6643 63.0211 24.0472C63.5432 23.43 63.8312 22.1887 63.2973 21.737C62.7633 21.2854 60.3076 21.5885 59.492 22.5527Z" fill="#FFDDA3"/>
<path d="M47.2025 39.4242C48.0774 38.3899 46.498 37.3851 45.5898 37.0055C44.5419 36.5675 43.1833 36.4879 42.6233 37.1499C41.5821 38.3808 41.8983 39.9753 42.6227 40.5881C43.3471 41.2008 46.3276 40.4585 47.2025 39.4242Z" fill="#FFDDA3"/>
<path d="M33.3165 21.8314C33.3165 23.0323 32.2798 24.5495 30.3095 24.5495C28.3392 24.5495 26.793 22.4887 26.793 21.2878C26.793 20.0868 28.3392 19.1133 30.3095 19.1133C32.2798 19.1133 33.3165 20.6305 33.3165 21.8314Z" fill="#FFDDA3"/>
<path d="M33.86 26.5434C33.86 27.0268 33.2937 27.2682 32.6369 27.2682C31.9801 27.2682 31.6855 26.7852 31.6855 26.0601C31.6855 25.4608 32.116 25.0938 32.7728 25.0938C33.4296 25.0938 33.86 25.4758 33.86 26.5434Z" fill="#FFDDA3"/>
<path d="M9.39586 24.7831C9.39586 25.3836 8.4081 25.6374 7.35728 25.6374C6.30645 25.6374 5.04688 25.1506 5.04688 24.5501C5.04688 23.9497 6.30645 23.4629 7.35728 23.4629C8.4081 23.4629 9.39586 24.1826 9.39586 24.7831Z" fill="#FFDDA3"/>
</g>
</svg>
