<svg width="104" height="21" viewBox="0 0 104 21" fill="none" xmlns="http://www.w3.org/2000/svg">
<g clip-path="url(#clip0_955_5098)">
<path d="M8.36443 4.70932C9.66487 4.70932 10.7191 3.65511 10.7191 2.35466C10.7191 1.05422 9.66487 0 8.36443 0C7.06398 0 6.00977 1.05422 6.00977 2.35466C6.00977 3.65511 7.06398 4.70932 8.36443 4.70932Z" fill="#FFCD14"/>
<path d="M14.4015 4.70932C15.702 4.70932 16.7562 3.65511 16.7562 2.35466C16.7562 1.05422 15.702 0 14.4015 0C13.1011 0 12.0469 1.05422 12.0469 2.35466C12.0469 3.65511 13.1011 4.70932 14.4015 4.70932Z" fill="#FFCD14"/>
<path d="M2.72322 9.495C4.22721 9.495 5.44644 8.20374 5.44644 6.6109C5.44644 5.01806 4.22721 3.72681 2.72322 3.72681C1.21923 3.72681 0 5.01806 0 6.6109C0 8.20374 1.21923 9.495 2.72322 9.495Z" fill="#FFCD14"/>
<path d="M19.7545 9.495C21.2585 9.495 22.4777 8.20374 22.4777 6.6109C22.4777 5.01806 21.2585 3.72681 19.7545 3.72681C18.2505 3.72681 17.0312 5.01806 17.0312 6.6109C17.0312 8.20374 18.2505 9.495 19.7545 9.495Z" fill="#FFCD14"/>
<path d="M19.5538 9.47501C16.0583 9.25855 14.2507 11.1013 11.2583 11.1072C8.26603 11.113 7.57279 9.38433 2.98047 9.46623L4.21191 4.18652C8.18999 8.33716 15.2101 8.04466 18.2785 4.18652L19.5538 9.47501Z" fill="#FFCD14"/>
<path d="M19.587 19.7541C21.0663 19.1591 21.7915 17.4982 21.2067 16.0444C20.622 14.5906 18.9488 13.8944 17.4695 14.4894C15.9902 15.0843 15.265 16.7452 15.8498 18.199C16.4345 19.6528 18.1077 20.3491 19.587 19.7541Z" fill="#FFCD14"/>
<path d="M4.68452 19.6049C6.20383 18.9839 6.95935 17.3156 6.37202 15.8785C5.78468 14.4415 4.07691 13.7799 2.5576 14.4008C1.03829 15.0218 0.282768 16.6901 0.870102 18.1272C1.45744 19.5642 3.16521 20.2258 4.68452 19.6049Z" fill="#FFCD14"/>
<path d="M6.41212 17.8366C7.20773 15.2947 9.99237 11.3166 11.0366 11.2961C12.0809 11.2757 14.883 15.1455 15.6816 17.5587L20.7039 15.166C16.5971 12.4866 15.3569 11.4249 13.2158 7.99377L8.81358 7.91479C6.34776 11.1908 5.4644 12.1649 1.49219 15.0929L6.40919 17.8395L6.41212 17.8366Z" fill="#FFCD14"/>
<path d="M81.7076 6.38611C83.2116 6.38611 84.4308 5.09486 84.4308 3.50201C84.4308 1.90917 83.2116 0.61792 81.7076 0.61792C80.2036 0.61792 78.9844 1.90917 78.9844 3.50201C78.9844 5.09486 80.2036 6.38611 81.7076 6.38611Z" fill="#FFCD14"/>
<path d="M98.7388 6.3866C100.243 6.3866 101.462 5.09535 101.462 3.5025C101.462 1.90966 100.243 0.618408 98.7388 0.618408C97.2349 0.618408 96.0156 1.90966 96.0156 3.5025C96.0156 5.09535 97.2349 6.3866 98.7388 6.3866Z" fill="#FFCD14"/>
<path d="M98.5401 6.36514C94.9101 5.68946 93.196 6.54357 90.2008 6.54942C87.2056 6.55527 86.9423 5.73333 81.9668 6.35637L83.1982 1.07666C86.9891 3.01889 93.6436 3.10957 97.2648 1.07666L98.5401 6.36514Z" fill="#FFCD14"/>
<path d="M100.753 14.6908C102.232 14.0959 102.957 12.435 102.373 10.9812C101.788 9.52739 100.115 8.83116 98.6355 9.42613C97.1562 10.0211 96.431 11.682 97.0158 13.1358C97.6005 14.5896 99.2737 15.2858 100.753 14.6908Z" fill="#FFCD14"/>
<path d="M81.5478 14.5878C83.0671 13.9669 83.8226 12.2985 83.2353 10.8614C82.648 9.42438 80.9402 8.76278 79.4209 9.38373C77.9016 10.0047 77.146 11.673 77.7334 13.1101C78.3207 14.5472 80.0285 15.2088 81.5478 14.5878Z" fill="#FFCD14"/>
<path d="M82.7621 13.7271C83.5577 11.1852 88.9749 8.2075 90.0221 8.18702C91.0692 8.16655 96.2232 10.7435 97.0217 13.1567L101.731 9.98885C97.6243 7.30951 94.3424 8.31865 92.2012 4.88757L87.799 4.80859C85.3332 8.08465 82.6714 6.79763 78.6992 9.72267L82.7592 13.73L82.7621 13.7271Z" fill="#FFCD14"/>
<path d="M25.6568 6.63929C27.1608 6.63929 28.38 5.34803 28.38 3.75519C28.38 2.16235 27.1608 0.871094 25.6568 0.871094C24.1528 0.871094 22.9336 2.16235 22.9336 3.75519C22.9336 5.34803 24.1528 6.63929 25.6568 6.63929Z" fill="#FFCD14"/>
<path d="M25.6568 20.7667C27.1608 20.7667 28.38 19.4755 28.38 17.8826C28.38 16.2898 27.1608 14.9985 25.6568 14.9985C24.1528 14.9985 22.9336 16.2898 22.9336 17.8826C22.9336 19.4755 24.1528 20.7667 25.6568 20.7667Z" fill="#FFCD14"/>
<path d="M22.9375 3.75537C23.5986 8.75135 23.619 12.2205 22.9375 17.8804H28.381C27.6585 12.1561 27.7229 8.7923 28.381 3.75537H22.9375Z" fill="#FFCD14"/>
<path d="M49.4459 6.63929C50.9499 6.63929 52.1691 5.34803 52.1691 3.75519C52.1691 2.16235 50.9499 0.871094 49.4459 0.871094C47.9419 0.871094 46.7227 2.16235 46.7227 3.75519C46.7227 5.34803 47.9419 6.63929 49.4459 6.63929Z" fill="#FFCD14"/>
<path d="M49.4459 20.767C50.9499 20.767 52.1691 19.4757 52.1691 17.8829C52.1691 16.29 50.9499 14.9988 49.4459 14.9988C47.9419 14.9988 46.7227 16.29 46.7227 17.8829C46.7227 19.4757 47.9419 20.767 49.4459 20.767Z" fill="#FFCD14"/>
<path d="M46.7227 3.75537C47.3837 8.75135 47.4042 12.2205 46.7227 17.8804H52.1662C51.4437 12.1561 51.508 8.7923 52.1662 3.75537H46.7227Z" fill="#FFCD14"/>
<path d="M37.8466 20.6452C42.6493 20.6452 46.5427 16.2934 46.5427 10.9252C46.5427 5.55708 42.6493 1.20532 37.8466 1.20532C33.0438 1.20532 29.1504 5.55708 29.1504 10.9252C29.1504 16.2934 33.0438 20.6452 37.8466 20.6452Z" fill="#FFCD14"/>
<path d="M100.226 20.7365C101.819 20.7365 103.11 19.5172 103.11 18.0133C103.11 16.5093 101.819 15.29 100.226 15.29C98.633 15.29 97.3418 16.5093 97.3418 18.0133C97.3418 19.5172 98.633 20.7365 100.226 20.7365Z" fill="#FFCD14"/>
<path d="M80.1107 20.8029C81.7035 20.8029 82.9948 19.5837 82.9948 18.0797C82.9948 16.5757 81.7035 15.3564 80.1107 15.3564C78.5178 15.3564 77.2266 16.5757 77.2266 18.0797C77.2266 19.5837 78.5178 20.8029 80.1107 20.8029Z" fill="#FFCD14"/>
<path d="M99.4995 15.3564C94.5035 16.0175 85.7693 16.038 80.1094 15.3564V20.8C85.8337 20.0775 94.4626 20.1418 99.4995 20.8V15.3564Z" fill="#FFCD14"/>
<path d="M42.3335 11.8067C41.2942 10.7567 39.7779 10.9774 38.6897 11.9704C37.6015 12.9634 37.4457 14.6675 38.1985 15.558C39.0162 16.5252 40.7572 16.7146 41.9542 15.7216C43.1512 14.7287 43.3728 12.8567 42.3335 11.8067Z" fill="white"/>
<path d="M73.8228 6.64563C75.3268 6.64563 76.546 5.35438 76.546 3.76154C76.546 2.1687 75.3268 0.877441 73.8228 0.877441C72.3188 0.877441 71.0996 2.1687 71.0996 3.76154C71.0996 5.35438 72.3188 6.64563 73.8228 6.64563Z" fill="#FFCD14"/>
<path d="M73.8228 20.7731C75.3268 20.7731 76.546 19.4818 76.546 17.889C76.546 16.2961 75.3268 15.0049 73.8228 15.0049C72.3188 15.0049 71.0996 16.2961 71.0996 17.889C71.0996 19.4818 72.3188 20.7731 73.8228 20.7731Z" fill="#FFCD14"/>
<path d="M71.0996 3.76172C71.7607 8.7577 71.7811 12.2268 71.0996 17.8868H76.5431C75.8206 12.1625 75.885 8.79865 76.5431 3.76172H71.0996Z" fill="#FFCD14"/>
<path d="M62.2235 20.6515C67.0263 20.6515 70.9197 16.2998 70.9197 10.9316C70.9197 5.56343 67.0263 1.21167 62.2235 1.21167C57.4207 1.21167 53.5273 5.56343 53.5273 10.9316C53.5273 16.2998 57.4207 20.6515 62.2235 20.6515Z" fill="#FFCD14"/>
<path d="M66.6128 11.8067C65.5735 10.7567 64.0572 10.9774 62.969 11.9704C61.8808 12.9634 61.725 14.6675 62.4778 15.558C63.2955 16.5252 65.0365 16.7146 66.2335 15.7216C67.4304 14.7287 67.6521 12.8567 66.6128 11.8067Z" fill="white"/>
</g>
<defs>
<clipPath id="clip0_955_5098">
<rect width="103.108" height="20.8" fill="white"/>
</clipPath>
</defs>
</svg>
