<svg width="90" height="20" viewBox="0 0 90 20" fill="none" xmlns="http://www.w3.org/2000/svg">
<path d="M87.0586 15.2712C88.0464 15.2714 88.8467 16.0725 88.8467 17.0603C88.8467 18.0481 88.0464 18.8492 87.0586 18.8494H69.2676C68.2798 18.8492 67.4795 18.0481 67.4795 17.0603C67.4795 16.0725 68.2798 15.2714 69.2676 15.2712H87.0586ZM85.9805 0.865967C86.9548 0.866068 87.7449 1.65538 87.7451 2.62964C87.7451 3.6041 86.9549 4.39419 85.9805 4.39429H80.6465C80.5233 4.90452 80.3711 5.37898 80.1924 5.81909L86.8242 9.00171C87.8161 9.47784 88.1646 10.7164 87.5674 11.6404C87.0649 12.4176 86.0606 12.697 85.2295 12.2898L78.1709 8.83081C77.052 10.0362 75.662 10.9805 74.0029 11.6619H74C72.7265 12.1727 71.3859 12.5047 69.9795 12.657C68.9684 12.7662 68.1572 11.9369 68.1572 10.9558C68.1574 9.99934 68.9114 9.25557 69.8135 9.10815C71.1376 8.89176 72.3231 8.44182 73.374 7.76147L73.375 7.7605H73.376C74.6789 6.92765 75.5923 5.80751 76.125 4.39429H70.3174C69.343 4.39414 68.5527 3.60407 68.5527 2.62964C68.553 1.65541 69.3431 0.866119 70.3174 0.865967H85.9805Z" fill="#FFCD14" stroke="#FFCD14" stroke-width="0.565293"/>
<path d="M62.8965 0.355713C64.0437 0.355877 64.9736 1.28562 64.9736 2.43286V17.5002C64.9736 18.6475 64.0437 19.5772 62.8965 19.5774C61.7491 19.5774 60.8184 18.6476 60.8184 17.5002V2.43286C60.8184 1.28552 61.7491 0.355713 62.8965 0.355713ZM52.0566 0.646729C54.1151 0.646729 55.7546 1.41845 56.9424 2.96509L57.1611 3.26099C58.2183 4.78215 58.7275 6.95827 58.7275 9.74829C58.7275 12.7247 58.1482 15.0091 56.9434 16.554L56.9424 16.553C55.754 18.0849 54.115 18.8489 52.0566 18.8489C49.9803 18.8489 48.3218 18.0862 47.1143 16.5549L47.1123 16.552C45.9274 15.0074 45.3584 12.7239 45.3584 9.74829C45.3584 6.77288 45.9273 4.49608 47.1133 2.96704V2.96606C48.3204 1.41834 49.9791 0.646743 52.0566 0.646729ZM52.0566 4.15161C51.297 4.15163 50.6739 4.54339 50.1836 5.41626C49.7115 6.27418 49.4561 7.70324 49.4561 9.74829C49.4561 11.8082 49.7114 13.2439 50.1826 14.1018L50.2754 14.2571C50.7497 15.0048 51.3421 15.344 52.0566 15.344C52.797 15.344 53.4109 14.9609 53.9014 14.1038L53.9912 13.9329C54.4245 13.0476 54.6572 11.6651 54.6572 9.74829C54.6572 7.71992 54.3922 6.29019 53.9014 5.41626C53.4096 4.54082 52.795 4.15161 52.0566 4.15161Z" fill="#FFCD14" stroke="#FFCD14" stroke-width="0.565293"/>
<path d="M40.5137 0.355713C41.6609 0.355876 42.5908 1.28562 42.5908 2.43286V17.5002C42.5908 18.6475 41.6609 19.5772 40.5137 19.5774C39.3663 19.5774 38.4355 18.6476 38.4355 17.5002V2.43286C38.4355 1.28552 39.3663 0.355713 40.5137 0.355713ZM29.6738 0.646729C31.7323 0.646729 33.3718 1.41845 34.5596 2.96509L34.7783 3.26099C35.8355 4.78215 36.3447 6.95827 36.3447 9.74829C36.3447 12.7247 35.7654 15.0091 34.5605 16.554L34.5596 16.553C33.3711 18.0849 31.7322 18.8489 29.6738 18.8489C27.5975 18.8489 25.939 18.0862 24.7314 16.5549L24.7295 16.552C23.5446 15.0074 22.9756 12.7239 22.9756 9.74829C22.9756 6.77288 23.5445 4.49608 24.7305 2.96704V2.96606C25.9376 1.41834 27.5963 0.646743 29.6738 0.646729ZM29.6738 4.15161C28.9142 4.15163 28.2911 4.54339 27.8008 5.41626C27.3287 6.27418 27.0732 7.70324 27.0732 9.74829C27.0733 11.8082 27.3286 13.2439 27.7998 14.1018L27.8926 14.2571C28.3669 15.0048 28.9593 15.344 29.6738 15.344C30.4142 15.344 31.0281 14.9609 31.5186 14.1038L31.6084 13.9329C32.0417 13.0476 32.2744 11.6651 32.2744 9.74829C32.2744 7.71992 32.0094 6.29019 31.5186 5.41626C31.0268 4.54082 30.4122 4.15161 29.6738 4.15161Z" fill="#FFCD14" stroke="#FFCD14" stroke-width="0.565293"/>
<path d="M18.1309 0.355225C19.2782 0.355225 20.208 1.28601 20.208 2.43335V17.5007C20.2079 18.648 19.2781 19.5779 18.1309 19.5779C16.9836 19.5778 16.0538 18.6479 16.0537 17.5007V2.43335C16.0537 1.28603 16.9835 0.355259 18.1309 0.355225ZM7.81445 0.282959C8.97735 0.283025 9.91992 1.22551 9.91992 2.38843V2.78491H12.9199C13.9011 2.78491 14.6962 3.58011 14.6963 4.56128C14.6963 5.54251 13.9012 6.33765 12.9199 6.33765H9.87207C9.78023 7.59302 9.6339 8.68552 9.43457 9.61401L14.2148 14.7292C14.9886 15.5575 14.8951 16.8696 14.0117 17.5798C13.2051 18.2281 12.0325 18.1328 11.3408 17.363L7.97266 13.613C7.15793 15.0956 6.14888 16.2762 4.94043 17.1443L4.93848 17.1453C4.17349 17.685 3.3563 18.0795 2.4873 18.3269C1.27672 18.6715 0.282315 17.6313 0.282227 16.4753C0.282227 15.5872 0.9625 14.9188 1.68848 14.6013C2.18183 14.3856 2.6456 14.0634 3.07812 13.6296C3.83377 12.8557 4.44508 11.8254 4.90527 10.5281C5.33838 9.29184 5.60758 7.89566 5.71582 6.33765H2.48242C1.50121 6.33763 0.706055 5.5425 0.706055 4.56128C0.706134 3.58012 1.50125 2.78493 2.48242 2.78491H5.70898V2.38843C5.70898 1.22547 6.6515 0.282959 7.81445 0.282959Z" fill="#FFCD14" stroke="#FFCD14" stroke-width="0.565293"/>
</svg>
