<svg width="91" height="88" viewBox="0 0 91 88" fill="none" xmlns="http://www.w3.org/2000/svg">
<path d="M17.2247 2.87061H6.31595C4.41341 2.87061 2.87109 4.41292 2.87109 6.31546V17.2242" stroke="#FFCD14" stroke-width="5.74143" stroke-linecap="round" stroke-linejoin="round"/>
<path d="M87.2695 17.2242L87.2695 6.31546C87.2695 4.41292 85.7272 2.87061 83.8247 2.87061L72.916 2.8706" stroke="#FFCD14" stroke-width="5.74143" stroke-linecap="round" stroke-linejoin="round"/>
<path d="M72.916 84.3989H83.8247C85.7272 84.3989 87.2695 82.8566 87.2695 80.9541V70.0453" stroke="#FFCD14" stroke-width="5.74143" stroke-linecap="round" stroke-linejoin="round"/>
<path d="M2.87109 70.0453L2.87109 80.9541C2.87109 82.8566 4.41341 84.3989 6.31595 84.3989L17.2247 84.3989" stroke="#FFCD14" stroke-width="5.74143" stroke-linecap="round" stroke-linejoin="round"/>
<path d="M38.1816 43.6348H53.6835" stroke="#FFB700" stroke-width="5.74143" stroke-linecap="round" stroke-linejoin="round"/>
<path d="M45.9316 35.8838L45.9316 51.3857" stroke="#FFB700" stroke-width="5.74143" stroke-linecap="round" stroke-linejoin="round"/>
<path d="M74.7742 27.1747C77.0324 28.7919 78.3721 31.3989 78.3721 34.1765V53.6941C78.3721 58.0514 75.1177 61.7221 70.7918 62.2442L21.4155 68.2035C16.2872 68.8224 11.7715 64.8189 11.7715 59.6534V42.6919C11.7715 39.6525 13.3736 36.8381 15.9871 35.2865L49.4841 15.3994C52.4232 13.6545 56.116 13.8128 58.8949 15.8029L74.7742 27.1747Z" fill="#FFE894"/>
<mask id="mask0_3518_68832" style="mask-type:alpha" maskUnits="userSpaceOnUse" x="11" y="14" width="68" height="55">
<path d="M74.7744 27.1754C77.0325 28.7926 78.3721 31.3996 78.3721 34.1771V53.6939C78.3721 58.0511 75.1177 61.7219 70.7918 62.244L21.4155 68.2032C16.2872 68.8222 11.7715 64.8187 11.7715 59.6531V42.6925C11.7715 39.6532 13.3735 36.8389 15.987 35.2872L49.4839 15.3994C52.4231 13.6544 56.1161 13.8127 58.895 15.803L74.7744 27.1754Z" fill="#FFE894"/>
</mask>
<g mask="url(#mask0_3518_68832)">
<path d="M11.7715 37.7899C11.7715 40.5403 14.1718 42.6742 16.9032 42.3522L71.4656 35.9198C75.6115 35.4311 78.7356 31.917 78.7356 27.7424L78.3721 61.3298L11.7715 69.3678V37.7899Z" fill="#FFDC5C"/>
</g>
<mask id="mask1_3518_68832" style="mask-type:alpha" maskUnits="userSpaceOnUse" x="11" y="14" width="68" height="55">
<path d="M74.7744 27.1749C77.0325 28.7921 78.3721 31.3991 78.3721 34.1766V53.6934C78.3721 58.0506 75.1177 61.7214 70.7918 62.2435L21.4155 68.2027C16.2872 68.8217 11.7715 64.8182 11.7715 59.6526V42.692C11.7715 39.6527 13.3735 36.8384 15.987 35.2867L49.4839 15.3989C52.4231 13.6539 56.1161 13.8122 58.895 15.8025L74.7744 27.1749Z" fill="#FFE894"/>
</mask>
<g mask="url(#mask1_3518_68832)">
<ellipse cx="4.95201" cy="4.49043" rx="4.95201" ry="4.49043" transform="matrix(0.885451 -0.464733 0.361333 0.932437 59.1094 26.9939)" fill="#FFF2C2"/>
<ellipse cx="1.54705" cy="2.21909" rx="1.54705" ry="2.21909" transform="matrix(-0.775211 0.631703 -0.515533 -0.85687 47.291 46.7034)" fill="#FFE894"/>
<ellipse cx="2.85428" cy="3.42959" rx="2.85428" ry="3.42959" transform="matrix(-0.775211 0.631703 -0.515533 -0.85687 31.2148 62.7175)" fill="#FFE894"/>
<ellipse cx="1.98843" cy="1.89655" rx="1.98843" ry="1.89655" transform="matrix(-0.775211 0.631703 -0.515533 -0.85687 75.373 51.7651)" fill="#FFE894"/>
<ellipse cx="5.59723" cy="6.0914" rx="5.59723" ry="6.0914" transform="matrix(-0.5827 0.812687 -0.72196 -0.691935 23.041 57.4712)" fill="#FFE894"/>
<ellipse cx="6.25517" cy="3.65137" rx="6.25517" ry="3.65137" transform="matrix(-0.775211 0.631703 -0.515533 -0.85687 71.7402 59.6526)" fill="#FFE894"/>
<ellipse cx="4.11414" cy="3.61287" rx="4.11414" ry="3.61287" transform="matrix(0.983635 0.180171 -0.134018 0.990979 21.9258 28.2925)" fill="#FFF2C2"/>
<ellipse cx="1.80238" cy="2.18043" rx="1.80238" ry="2.18043" transform="matrix(0.885451 -0.464733 0.361333 0.932437 53.6836 28.9468)" fill="#FFF2C2"/>
<ellipse cx="2.76125" cy="3.98095" rx="2.76125" ry="3.98095" transform="matrix(0.328936 -0.944352 0.904407 0.426671 50.2148 16.1235)" fill="#FFF2C2"/>
<ellipse cx="1.80238" cy="2.18043" rx="1.80238" ry="2.18043" transform="matrix(0.885451 -0.464733 0.361333 0.932437 28.6172 26.0759)" fill="#FFF2C2"/>
</g>
<path d="M37.3203 44.209H52.8222" stroke="#FFB700" stroke-width="5.74143" stroke-linecap="round" stroke-linejoin="round"/>
<path d="M45.0703 36.458L45.0703 51.9599" stroke="#FFB700" stroke-width="5.74143" stroke-linecap="round" stroke-linejoin="round"/>
</svg>
