<svg width="120" height="120" viewBox="0 0 120 120" fill="none" xmlns="http://www.w3.org/2000/svg">
<path d="M0 60C0 26.8629 26.8629 0 60 0C93.1371 0 120 26.8629 120 60C120 93.1371 93.1371 120 60 120C26.8629 120 0 93.1371 0 60Z" fill="#FFCD14"/>
<path d="M34.6807 55.9198C39.1567 55.9198 42.7852 52.0769 42.7852 47.3365C42.7852 42.5961 39.1567 38.7532 34.6807 38.7532C30.2047 38.7532 26.5762 42.5961 26.5762 47.3365C26.5762 52.0769 30.2047 55.9198 34.6807 55.9198Z" fill="white"/>
<path d="M85.3721 55.9198C89.8481 55.9198 93.4766 52.0769 93.4766 47.3365C93.4766 42.5961 89.8481 38.7532 85.3721 38.7532C80.8961 38.7532 77.2676 42.5961 77.2676 47.3365C77.2676 52.0769 80.8961 55.9198 85.3721 55.9198Z" fill="white"/>
<path d="M84.7709 55.8589C74.3682 55.2147 68.9884 60.6989 60.083 60.7164C51.1775 60.7338 49.1144 55.589 35.4473 55.8327L39.1122 40.1199C50.9513 52.4725 71.8437 51.602 80.9754 40.1199L84.7709 55.8589Z" fill="white"/>
<path d="M84.8709 86.4512C89.2734 84.6805 91.4316 79.7376 89.6914 75.4109C87.9512 71.0842 82.9716 69.0122 78.5691 70.7829C74.1666 72.5536 72.0084 77.4965 73.7485 81.8231C75.4887 86.1498 80.4684 88.2219 84.8709 86.4512Z" fill="white"/>
<path d="M40.517 86.0067C45.0386 84.1587 47.2871 79.1935 45.5391 74.9167C43.7912 70.6399 38.7087 68.6709 34.1871 70.5189C29.6655 72.3669 27.417 77.332 29.165 81.6089C30.9129 85.8857 35.9954 87.8547 40.517 86.0067Z" fill="white"/>
<path d="M45.6578 80.7467C48.0256 73.1819 56.3129 61.3429 59.4207 61.2819C62.5284 61.221 70.868 72.738 73.2445 79.9198L88.1913 72.7989C75.9692 64.825 72.2782 61.665 65.906 51.4538L52.8047 51.2188C45.4662 60.9686 42.8373 63.8674 31.0156 72.5813L45.649 80.7555L45.6578 80.7467Z" fill="white"/>
<path d="M51.3024 42.1203C54.9254 42.1203 57.8625 39.1833 57.8625 35.5602C57.8625 31.9371 54.9254 29 51.3024 29C47.6793 29 44.7422 31.9371 44.7422 35.5602C44.7422 39.1833 47.6793 42.1203 51.3024 42.1203Z" fill="white"/>
<path d="M68.1715 42.1203C71.7946 42.1203 74.7317 39.1833 74.7317 35.5602C74.7317 31.9371 71.7946 29 68.1715 29C64.5484 29 61.6113 31.9371 61.6113 35.5602C61.6113 39.1833 64.5484 42.1203 68.1715 42.1203Z" fill="white"/>
</svg>
