<svg width="172" height="39" viewBox="0 0 172 39" fill="none" xmlns="http://www.w3.org/2000/svg">
<path d="M167.238 29.3354C169.136 29.3356 170.674 30.8743 170.674 32.772C170.674 34.6697 169.136 36.2083 167.238 36.2085H133.063C131.166 36.2085 129.627 34.6698 129.627 32.772C129.627 30.8742 131.166 29.3354 133.063 29.3354H167.238ZM165.167 1.6626C167.039 1.6626 168.557 3.18022 168.557 5.05225C168.557 6.92426 167.039 8.44189 165.167 8.44189H154.926C154.689 9.4216 154.399 10.3341 154.056 11.1792L166.788 17.2925C168.693 18.2071 169.364 20.5859 168.217 22.3608C167.252 23.854 165.322 24.3891 163.726 23.6069L150.167 16.9644C148.017 19.2801 145.346 21.092 142.158 22.4009L142.154 22.4028C139.708 23.3841 137.132 24.0204 134.431 24.313C132.488 24.5232 130.93 22.9313 130.93 21.0464C130.93 19.2087 132.378 17.7788 134.111 17.4956C136.655 17.0799 138.933 16.2166 140.951 14.9097L140.954 14.9077C143.457 13.3079 145.212 11.1565 146.235 8.44189H135.08C133.208 8.44189 131.69 6.92426 131.69 5.05225C131.69 3.18022 133.208 1.6626 135.08 1.6626H165.167Z" fill="white" stroke="white" stroke-width="1.08591"/>
<path d="M120.823 0.682739C123.027 0.682834 124.813 2.46925 124.813 4.67297V33.6173C124.813 35.8213 123.027 37.6084 120.823 37.6085C118.619 37.6085 116.832 35.8221 116.832 33.6183V4.67297C116.832 2.46919 118.619 0.682739 120.823 0.682739ZM100.001 1.24231C103.956 1.24235 107.106 2.72644 109.388 5.69934C111.703 8.637 112.814 13.0104 112.814 18.7257C112.814 24.4435 111.702 28.8323 109.388 31.7999L109.387 31.799C107.104 34.7414 103.955 36.2081 100.001 36.2081C96.0124 36.2081 92.8265 34.7434 90.5068 31.8019L90.5029 31.796C88.2267 28.8288 87.1328 24.442 87.1328 18.7257C87.1328 13.01 88.2266 8.63657 90.5049 5.69934V5.69836C92.8237 2.72522 96.0101 1.24231 100.001 1.24231ZM100.001 7.97571C98.5427 7.97571 97.345 8.72614 96.4033 10.4005C95.4953 12.0482 95.0059 14.7945 95.0059 18.7257C95.0059 22.6833 95.495 25.4419 96.4004 27.09L96.5791 27.3868C97.4903 28.8235 98.6281 29.4757 100.001 29.4757C101.424 29.4757 102.604 28.7388 103.547 27.09C104.488 25.4113 104.996 22.6518 104.996 18.7257C104.996 14.8293 104.488 12.0832 103.545 10.4044C102.6 8.72276 101.419 7.97576 100.001 7.97571Z" fill="white" stroke="white" stroke-width="1.08591"/>
<path d="M77.8271 0.682739C80.0309 0.682834 81.8171 2.46925 81.8174 4.67297V33.6173C81.8174 35.8213 80.0311 37.6084 77.8271 37.6085C75.6231 37.6085 73.8359 35.8213 73.8359 33.6173V4.67297C73.8362 2.46919 75.6233 0.682739 77.8271 0.682739ZM57.0049 1.24231C60.9603 1.24235 64.1097 2.72644 66.3916 5.69934C68.7067 8.637 69.8184 13.0104 69.8184 18.7257C69.8183 24.4435 68.7061 28.8323 66.3916 31.7999L66.3906 31.799C64.1078 34.7414 60.9586 36.2081 57.0049 36.2081C53.0163 36.2081 49.8304 34.7434 47.5107 31.8019L47.5068 31.796C45.2306 28.8288 44.1367 24.442 44.1367 18.7257C44.1367 13.01 45.2305 8.63657 47.5088 5.69934V5.69836C49.8276 2.72522 53.014 1.24231 57.0049 1.24231ZM57.0049 7.97571C55.5466 7.97571 54.3489 8.72614 53.4072 10.4005C52.4992 12.0482 52.0098 14.7945 52.0098 18.7257C52.0098 22.6833 52.4989 25.4419 53.4043 27.09L53.583 27.3868C54.4942 28.8235 55.632 29.4757 57.0049 29.4757C58.428 29.4757 59.6083 28.7388 60.5508 27.09C61.4924 25.4113 62 22.6518 62 18.7257C62 14.8293 61.4918 12.0832 60.5488 10.4044C59.6041 8.72276 58.4232 7.97576 57.0049 7.97571Z" fill="white" stroke="white" stroke-width="1.08591"/>
<path d="M34.8301 0.682617C37.0341 0.682617 38.8213 2.46982 38.8213 4.67383V33.6182C38.8212 35.8221 37.034 37.6084 34.8301 37.6084C32.6263 37.6082 30.8399 35.822 30.8398 33.6182V4.67383C30.8398 2.46995 32.6263 0.682832 34.8301 0.682617ZM15.0127 0.542969C17.2466 0.542975 19.0576 2.35395 19.0576 4.58789V5.34961H24.8203C26.7052 5.34961 28.2334 6.87778 28.2334 8.7627C28.2333 10.6476 26.7052 12.1758 24.8203 12.1758H18.9648C18.7885 14.5864 18.5097 16.6847 18.127 18.4678L27.3076 28.2949C28.794 29.8859 28.6148 32.4052 26.918 33.7695C25.3683 35.0155 23.1149 34.8327 21.7861 33.3535L15.3164 26.1514C13.7515 28.9988 11.8142 31.2661 9.49316 32.9336L9.48926 32.9365C8.01956 33.9735 6.44886 34.7308 4.7793 35.2061C2.45373 35.868 0.542969 33.8691 0.542969 31.6484C0.542982 29.9425 1.85056 28.6587 3.24512 28.0488C4.19282 27.6345 5.08319 27.0158 5.91406 26.1826C7.36581 24.6958 8.54071 22.7169 9.4248 20.2246C10.2568 17.85 10.7793 15.1685 10.9873 12.1758H4.77051C2.88564 12.1758 1.35749 10.6476 1.35742 8.7627C1.35742 6.87778 2.88559 5.34961 4.77051 5.34961H10.9678V4.58789C10.9678 2.35394 12.7787 0.542969 15.0127 0.542969Z" fill="white" stroke="white" stroke-width="1.08591"/>
</svg>
