<svg width="393" height="745" viewBox="0 0 393 745" fill="none" xmlns="http://www.w3.org/2000/svg">
<path d="M353.329 514.476C348.777 508.951 351.335 500.573 358.197 498.533L391.115 488.744C397.977 486.704 404.697 492.323 403.904 499.438L399.017 543.252C398.037 552.035 386.98 555.323 381.36 548.502L353.329 514.476Z" fill="#FFF2C2"/>
<circle cx="369.052" cy="522.071" r="5.58344" transform="rotate(-57.1339 369.052 522.071)" fill="#FFFBEB"/>
<circle cx="372.148" cy="532.713" r="3.90841" transform="rotate(-57.1339 372.148 532.713)" fill="#FFFBEB"/>
<circle cx="397.072" cy="541.892" r="4.61681" transform="rotate(0.367031 397.072 541.892)" fill="#FFFBEB"/>
<circle cx="384.551" cy="497.738" r="3.90841" transform="rotate(0.367031 384.551 497.738)" fill="#FFFBEB"/>
<path d="M-25.6069 595.457C-30.1587 589.932 -27.6006 581.553 -20.739 579.513L12.1794 569.725C19.0411 567.684 25.7615 573.304 24.968 580.418L20.0814 624.232C19.1017 633.016 8.04451 636.304 2.42489 629.482L-25.6069 595.457Z" fill="#FFF2C2"/>
<circle cx="19.9089" cy="595.842" r="5.58344" transform="rotate(0.367031 19.9089 595.842)" fill="#FFFBEB"/>
<circle cx="18.136" cy="622.873" r="4.61681" transform="rotate(0.367031 18.136 622.873)" fill="#FFFBEB"/>
<circle cx="5.61571" cy="578.722" r="3.90841" transform="rotate(0.367031 5.61571 578.722)" fill="#FFFBEB"/>
<path d="M19.2151 325.326C17.5333 332.284 9.29872 335.273 3.54514 331.014L-24.0576 310.581C-29.8112 306.321 -29.3568 297.573 -23.1929 293.933L14.7671 271.515C22.3771 267.02 31.6487 273.884 29.5724 282.475L19.2151 325.326Z" fill="#FFF2C2"/>
<circle cx="15.8378" cy="308.193" r="5.58344" transform="rotate(175.937 15.8378 308.193)" fill="#FFFBEB"/>
<circle cx="22.4866" cy="299.324" r="3.90841" transform="rotate(175.937 22.4866 299.324)" fill="#FFFBEB"/>
<circle cx="14.8487" cy="273.885" r="4.61681" transform="rotate(-126.562 14.8487 273.885)" fill="#FFFBEB"/>
<path d="M197.168 254.588C193.31 250.356 195.019 243.559 200.419 241.654L238.498 228.225C243.899 226.321 249.493 230.542 249.144 236.258L245.982 287.993C245.55 295.05 236.847 298.12 232.084 292.894L197.168 254.588Z" fill="#FFF2C2"/>
<circle cx="215.853" cy="260.744" r="6.31204" transform="rotate(-60 215.853 260.744)" fill="#FFFBEB"/>
<circle cx="216.821" cy="275.081" r="3.90841" transform="rotate(-60 216.821 275.081)" fill="#FFFBEB"/>
<circle cx="244.681" cy="254.925" r="5.58344" transform="rotate(-2.49912 244.681 254.925)" fill="#FFFBEB"/>
<circle cx="244.263" cy="282.013" r="4.61681" transform="rotate(-2.49912 244.263 282.013)" fill="#FFFBEB"/>
<circle cx="229.548" cy="238.539" r="3.90841" transform="rotate(-2.49912 229.548 238.539)" fill="#FFFBEB"/>
<path d="M365.334 695.724C359.827 697.298 354.499 692.747 355.193 687.062L360.09 646.983C360.784 641.298 367.052 638.163 372.017 641.017L416.955 666.846C423.085 670.37 421.966 679.53 415.168 681.474L365.334 695.724Z" fill="#FFF2C2"/>
<circle cx="379.156" cy="681.726" r="6.31204" transform="rotate(-123.608 379.156 681.726)" fill="#FFFBEB"/>
<circle cx="392.428" cy="687.23" r="3.90841" transform="rotate(-123.608 392.428 687.23)" fill="#FFFBEB"/>
<circle cx="386.753" cy="653.317" r="5.58344" transform="rotate(-66.1075 386.753 653.317)" fill="#FFFBEB"/>
<circle cx="365.35" cy="659.588" r="3.90841" transform="rotate(-66.1075 365.35 659.588)" fill="#FFFBEB"/>
<path d="M111.898 477.215C117.473 478.521 119.911 485.092 116.536 489.719L92.74 522.339C89.3649 526.966 82.3637 526.651 79.4171 521.741L52.7477 477.296C49.1097 471.234 54.5485 463.778 61.4324 465.391L111.898 477.215Z" fill="#FFF2C2"/>
<circle cx="93.007" cy="482.71" r="6.31204" transform="rotate(85.5358 93.007 482.71)" fill="#FFFBEB"/>
<circle cx="84.0932" cy="471.443" r="3.90841" transform="rotate(85.5358 84.0932 471.443)" fill="#FFFBEB"/>
<circle cx="72.5329" cy="503.826" r="5.58344" transform="rotate(143.037 72.5329 503.826)" fill="#FFFBEB"/>
<circle cx="57.5506" cy="481.251" r="4.61681" transform="rotate(143.037 57.5506 481.251)" fill="#FFFBEB"/>
<circle cx="94.2809" cy="508.766" r="3.90841" transform="rotate(143.037 94.2809 508.766)" fill="#FFFBEB"/>
<path d="M121.333 185.926C122.602 191.51 117.764 196.58 112.126 195.574L72.3766 188.482C66.7388 187.476 63.9531 181.045 67.0756 176.245L95.3361 132.795C99.1911 126.868 108.276 128.489 109.843 135.383L121.333 185.926Z" fill="#FFF2C2"/>
<circle cx="108.115" cy="171.348" r="6.31204" transform="rotate(149.543 108.115 171.348)" fill="#FFFBEB"/>
<circle cx="114.335" cy="158.405" r="3.90841" transform="rotate(149.543 114.335 158.405)" fill="#FFFBEB"/>
<circle cx="80.1672" cy="162.203" r="5.58344" transform="rotate(-152.956 80.1672 162.203)" fill="#FFFBEB"/>
<circle cx="93.8836" cy="138.844" r="4.61681" transform="rotate(-152.956 93.8836 138.844)" fill="#FFFBEB"/>
<circle cx="85.255" cy="183.922" r="3.90841" transform="rotate(-152.956 85.255 183.922)" fill="#FFFBEB"/>
<path d="M311.097 123.226C313.604 128.375 310.047 134.413 304.328 134.717L264.008 136.858C258.289 137.162 254.113 131.534 256.061 126.148L273.69 77.4064C276.095 70.7576 285.31 70.2683 288.406 76.6251L311.097 123.226Z" fill="#FFF2C2"/>
<circle cx="294.91" cy="112.046" r="6.31204" transform="rotate(136.387 294.91 112.046)" fill="#FFFBEB"/>
<circle cx="298.021" cy="98.0225" r="3.90841" transform="rotate(136.387 298.021 98.0225)" fill="#FFFBEB"/>
<circle cx="265.611" cy="109.501" r="5.58344" transform="rotate(-166.112 265.611 109.501)" fill="#FFFBEB"/>
<circle cx="273.656" cy="83.6327" r="4.61681" transform="rotate(-166.112 273.656 83.6327)" fill="#FFFBEB"/>
<circle cx="275.507" cy="129.49" r="3.90841" transform="rotate(-166.112 275.507 129.49)" fill="#FFFBEB"/>
<path d="M273.898 606.847C276.405 611.996 272.848 618.035 267.129 618.338L226.808 620.479C221.09 620.783 216.913 615.155 218.861 609.769L236.491 561.027C238.896 554.379 248.111 553.889 251.206 560.246L273.898 606.847Z" fill="#FFF2C2"/>
<circle cx="257.711" cy="595.663" r="6.31204" transform="rotate(136.387 257.711 595.663)" fill="#FFFBEB"/>
<circle cx="260.82" cy="581.64" r="3.90841" transform="rotate(136.387 260.82 581.64)" fill="#FFFBEB"/>
<circle cx="228.414" cy="593.122" r="5.58344" transform="rotate(-166.112 228.414 593.122)" fill="#FFFBEB"/>
<circle cx="236.456" cy="567.254" r="4.61681" transform="rotate(-166.112 236.456 567.254)" fill="#FFFBEB"/>
<circle cx="238.308" cy="613.108" r="3.90841" transform="rotate(-166.112 238.308 613.108)" fill="#FFFBEB"/>
<path d="M177.903 72.8463C175.612 78.0952 168.71 79.3079 164.767 75.154L136.972 45.8666C133.03 41.7127 134.601 34.8829 139.963 32.8699L188.487 14.6511C195.106 12.1659 201.459 18.8598 198.632 25.3401L177.903 72.8463Z" fill="#FFF2C2"/>
<circle cx="175.906" cy="53.2695" r="6.31204" transform="rotate(-174.077 175.906 53.2695)" fill="#FFFBEB"/>
<circle cx="188.596" cy="46.5412" r="3.90841" transform="rotate(-174.077 188.596 46.5412)" fill="#FFFBEB"/>
<circle cx="158.83" cy="29.3328" r="5.58344" transform="rotate(-116.576 158.83 29.3328)" fill="#FFFBEB"/>
<circle cx="183.728" cy="18.661" r="4.61681" transform="rotate(-116.576 183.728 18.661)" fill="#FFFBEB"/>
<circle cx="150.04" cy="49.8302" r="3.90841" transform="rotate(-116.576 150.04 49.8302)" fill="#FFFBEB"/>
<path d="M366.058 178.762C367.518 173.225 374.153 170.97 378.685 174.471L410.635 199.16C415.167 202.662 414.659 209.651 409.669 212.461L364.504 237.892C358.343 241.361 351.041 235.718 352.843 228.881L366.058 178.762Z" fill="#FFF2C2"/>
<circle cx="371.027" cy="197.799" r="6.31204" transform="rotate(-2.88017 371.027 197.799)" fill="#FFFBEB"/>
<circle cx="359.516" cy="206.395" r="3.90841" transform="rotate(-2.88017 359.516 206.395)" fill="#FFFBEB"/>
<circle cx="391.567" cy="218.844" r="5.58344" transform="rotate(54.6207 391.567 218.844)" fill="#FFFBEB"/>
<circle cx="368.594" cy="233.199" r="4.61681" transform="rotate(54.6207 368.594 233.199)" fill="#FFFBEB"/>
<circle cx="397.109" cy="197.243" r="3.90841" transform="rotate(54.6207 397.109 197.243)" fill="#FFFBEB"/>
<path d="M108.938 643.211C110.398 637.674 117.034 635.419 121.566 638.921L153.516 663.609C158.048 667.111 157.54 674.101 152.549 676.91L107.385 702.341C101.224 705.81 93.9216 700.167 95.7241 693.331L108.938 643.211Z" fill="#FFF2C2"/>
<circle cx="113.91" cy="662.245" r="6.31204" transform="rotate(-2.88017 113.91 662.245)" fill="#FFFBEB"/>
<circle cx="102.399" cy="670.84" r="3.90841" transform="rotate(-2.88017 102.399 670.84)" fill="#FFFBEB"/>
<circle cx="134.448" cy="683.289" r="5.58344" transform="rotate(54.6207 134.448 683.289)" fill="#FFFBEB"/>
<circle cx="111.475" cy="697.644" r="4.61681" transform="rotate(54.6207 111.475 697.644)" fill="#FFFBEB"/>
<circle cx="139.992" cy="661.688" r="3.90841" transform="rotate(54.6207 139.992 661.688)" fill="#FFFBEB"/>
<path d="M92.1441 337.234C89.3373 332.243 92.5313 326.005 98.2221 325.364L138.346 320.845C144.037 320.204 148.538 325.576 146.912 331.067L132.192 380.765C130.184 387.544 121.013 388.577 117.548 382.414L92.1441 337.234Z" fill="#FFF2C2"/>
<circle cx="108.966" cy="347.443" r="6.31204" transform="rotate(-46.9992 108.966 347.443)" fill="#FFFBEB"/>
<circle cx="106.684" cy="361.624" r="3.90841" transform="rotate(-46.9992 106.684 361.624)" fill="#FFFBEB"/>
<circle cx="138.361" cy="348.246" r="5.58344" transform="rotate(10.5017 138.361 348.246)" fill="#FFFBEB"/>
<circle cx="131.86" cy="374.549" r="4.61681" transform="rotate(10.5017 131.86 374.549)" fill="#FFFBEB"/>
<circle cx="127.3" cy="328.88" r="3.90841" transform="rotate(10.5017 127.3 328.88)" fill="#FFFBEB"/>
<path d="M200.82 462.875C195.094 462.955 191.141 457.168 193.298 451.863L208.509 414.46C210.666 409.155 217.536 407.768 221.582 411.822L258.198 448.507C263.193 453.511 259.716 462.06 252.647 462.158L200.82 462.875Z" fill="#FFF2C2"/>
<circle cx="217.827" cy="452.976" r="6.31204" transform="rotate(-108.444 217.827 452.976)" fill="#FFFBEB"/>
<circle cx="229.192" cy="461.763" r="3.90841" transform="rotate(-108.444 229.192 461.763)" fill="#FFFBEB"/>
<circle cx="232.59" cy="427.546" r="5.58344" transform="rotate(-50.9433 232.59 427.546)" fill="#FFFBEB"/>
<circle cx="252.582" cy="445.828" r="4.61681" transform="rotate(-50.9433 252.582 445.828)" fill="#FFFBEB"/>
<circle cx="210.291" cy="428.002" r="3.90841" transform="rotate(-50.9433 210.291 428.002)" fill="#FFFBEB"/>
<path d="M-54.1762 110.961C-59.9025 111.041 -63.855 105.253 -61.6977 99.9485L-46.4873 62.5455C-44.33 57.2405 -37.4602 55.8543 -33.4145 59.9076L3.20197 96.5927C8.19677 101.597 4.7203 110.146 -2.34936 110.243L-54.1762 110.961Z" fill="#FFF2C2"/>
<circle cx="-2.41219" cy="93.9138" r="4.61681" transform="rotate(-50.9433 -2.41219 93.9138)" fill="#FFFBEB"/>
<path d="M351.627 402.917C350.578 408.547 344.126 411.283 339.349 408.124L305.672 385.849C300.895 382.69 300.888 375.681 305.658 372.513L348.833 343.833C354.722 339.921 362.419 345.012 361.124 351.962L351.627 402.917Z" fill="#FFF2C2"/>
<circle cx="345.275" cy="384.301" r="6.31204" transform="rotate(172.907 345.275 384.301)" fill="#FFFBEB"/>
<circle cx="356.121" cy="374.881" r="3.90841" transform="rotate(172.907 356.121 374.881)" fill="#FFFBEB"/>
<circle cx="323.242" cy="364.819" r="5.58344" transform="rotate(-129.592 323.242 364.819)" fill="#FFFBEB"/>
<circle cx="345.102" cy="348.812" r="4.61681" transform="rotate(-129.592 345.102 348.812)" fill="#FFFBEB"/>
<circle cx="319.302" cy="386.771" r="3.90841" transform="rotate(-129.592 319.302 386.771)" fill="#FFFBEB"/>
</svg>
